<svg width="155" height="323" viewBox="0 0 155 323" fill="none" xmlns="http://www.w3.org/2000/svg">
<path d="M84.8223 290.005L84.412 312.862L75.0456 313.543L70.563 291.924L84.8223 290.005Z" fill="#E8A19A"/>
<path d="M138.479 290.005L138.173 316.249L128.807 316.931L124.221 291.924L138.479 290.005Z" fill="#E8A19A"/>
<path d="M60.6259 134.041L50.4491 207.496L65.4001 302.839L92.445 301.847L84.4613 210.447L94.3271 142.898L60.6259 134.041Z" fill="#3A6789"/>
<path d="M76.2785 143.77C73.9015 152 66.5083 158.66 57.4749 160.703C57.06 160.796 56.8834 160.21 57.2983 160.117C66.1145 158.123 73.3182 151.642 75.6382 143.608C75.7477 143.23 76.3879 143.39 76.2785 143.77Z" fill="#2C2D40"/>
<path d="M64.8216 299.07C64.8289 299.07 64.8362 299.069 64.8445 299.069L91.4433 298.134C91.7652 298.123 92.0155 297.875 92.0035 297.58C91.9915 297.293 91.733 297.067 91.4203 297.067C91.4129 297.067 91.4056 297.068 91.3973 297.068L64.7985 298.003C64.4766 298.014 64.2264 298.262 64.2383 298.557C64.2512 298.843 64.5097 299.07 64.8216 299.07Z" fill="#2C2D40"/>
<path d="M88.7658 297.854H87.8634C86.5277 285.874 78.6921 215.09 79.3185 209.302C79.9863 203.131 89.9083 158.06 90.3306 156.145C90.3793 155.923 90.6166 155.78 90.8594 155.823C91.1023 155.868 91.2596 156.084 91.2109 156.306C91.1078 156.775 80.8759 203.253 80.2117 209.383C79.6 215.032 87.4991 286.465 88.7658 297.854Z" fill="#2C2D40"/>
<path d="M62.3269 208.298C59.994 208.812 57.5564 209.084 55.16 208.835C53.7876 208.692 52.22 208.422 51.1723 207.529C50.6544 207.088 51.4326 206.38 51.9487 206.821C52.8768 207.612 54.4627 207.79 55.666 207.877C57.8075 208.034 59.9527 207.79 62.0353 207.331C62.7216 207.179 63.014 208.146 62.3269 208.298Z" fill="#2C2D40"/>
<path d="M88.4901 137.545L99.0679 211.47L120.971 302.103L145.604 301.513L133.103 208.747L129.419 140.684L88.4901 137.545Z" fill="#3A6789"/>
<path d="M88.5762 143.997C89.6037 149.333 90.8639 154.63 92.0267 159.941C92.1104 160.323 91.4701 160.486 91.3864 160.103C90.2237 154.79 88.9625 149.494 87.9359 144.159C87.8623 143.777 88.5026 143.613 88.5762 143.997Z" fill="#2C2D40"/>
<path d="M104.57 143.442C109.204 152.785 118.587 161.315 130.282 162.034C130.707 162.06 130.709 162.668 130.282 162.642C118.355 161.908 108.734 153.3 103.997 143.748C103.823 143.395 104.395 143.086 104.57 143.442Z" fill="#2C2D40"/>
<path d="M120.299 298.117C120.305 298.117 120.31 298.117 120.315 298.116L144.632 297.522C144.954 297.515 145.208 297.269 145.2 296.975C145.192 296.685 144.932 296.456 144.617 296.456C144.611 296.456 144.607 296.456 144.601 296.456L120.284 297.051C119.962 297.058 119.708 297.303 119.716 297.598C119.724 297.886 119.984 298.117 120.299 298.117Z" fill="#2C2D40"/>
<path d="M140.816 296.986C140.835 296.986 140.854 296.985 140.874 296.983C141.12 296.953 141.294 296.748 141.262 296.523C141.145 295.706 129.584 214.719 129.143 210.653C128.362 203.45 126.394 162.58 126.373 162.169C126.362 161.942 126.154 161.772 125.905 161.777C125.658 161.788 125.465 161.979 125.476 162.205C125.496 162.617 127.466 203.509 128.25 210.734C128.692 214.812 140.255 295.811 140.372 296.629C140.4 296.835 140.593 296.986 140.816 296.986Z" fill="#2C2D40"/>
<path d="M110.908 210.295C108.715 211.187 106.372 211.857 103.966 212.009C102.588 212.095 100.993 212.09 99.7857 211.384C99.1896 211.036 99.8133 210.211 100.408 210.559C101.478 211.183 103.073 211.096 104.274 210.983C106.412 210.783 108.473 210.188 110.43 209.393C111.075 209.131 111.555 210.033 110.908 210.295Z" fill="#2C2D40"/>
<path d="M75.3457 307.415C75.3457 307.415 72.1334 304.853 70.5622 307.415C68.991 309.978 70.1133 311.977 66.4098 313.541C64.9205 314.17 59.9982 315.866 57.095 316.233C53.0659 316.74 52.9693 319.644 55.0721 322.825L55.1871 322.999H73.9291H88.49C88.49 322.999 89.1248 319.692 87.8452 316.929C86.7754 314.62 86.6006 306.778 84.529 306.277C82.4583 305.775 80.3536 310.798 75.3457 307.415Z" fill="white"/>
<path d="M58.0763 320.663C63.4687 316.454 71.3614 316.512 76.6738 320.807C76.9985 321.07 76.5211 321.504 76.1973 321.242C71.1737 317.181 63.6527 317.117 58.5519 321.098C58.2244 321.354 57.7461 320.922 58.0763 320.663Z" fill="#2C2D40"/>
<path d="M86.3884 310.725C82.7833 312.587 79.8764 315.913 79.5314 319.772C79.4965 320.165 78.8231 320.168 78.8581 319.772C79.2224 315.692 82.2222 312.169 86.048 310.194C86.4261 309.999 86.7655 310.53 86.3884 310.725Z" fill="#2C2D40"/>
<path d="M128.359 310.082C128.359 310.082 129.875 305.8 133.842 305.335C137.809 304.87 138.26 308.762 138.26 308.762L138.292 306.083C138.292 306.083 139.357 308.953 139.357 311.926C139.357 314.9 145.305 314.284 146.876 322.998H126.563C126.563 322.998 124.958 310.609 125.924 308.543C126.89 306.477 128.359 310.082 128.359 310.082Z" fill="white"/>
<path d="M126.232 314.229C130.203 314.414 133.185 317.409 132.943 321.049C132.918 321.442 132.243 321.446 132.27 321.049C132.489 317.757 129.853 315.013 126.232 314.844C125.801 314.824 125.798 314.209 126.232 314.229Z" fill="#2C2D40"/>
<path d="M125.937 317.197C125.937 317.197 124.73 320.608 126.563 323H146.876C146.876 323 146.593 320.859 145.788 319.393C144.983 317.926 143.659 319.446 142.461 318.42C141.265 317.395 139.245 317.7 137.898 319.393C136.551 321.087 132.136 321.092 130.641 320.099C129.144 319.104 127.668 317.206 125.937 317.197Z" fill="#2C2D40"/>
<path d="M55.1873 323C55.1873 323 53.5756 322.03 53.6538 320.608C53.6538 320.608 66.0733 320.676 69.3656 320.744C72.6579 320.813 74.528 320.509 76.6981 319.993C78.8681 319.477 83.3544 315.818 87.47 315.787C87.47 315.787 90.4072 318.147 88.4902 323H55.1873Z" fill="#2C2D40"/>
<path d="M71.1572 87.1212C71.1572 87.1212 53.4815 118.112 40.6168 117.852C27.753 117.592 15.6444 76.1562 15.6444 76.1562L24.1783 72.9691L39.5975 93.7941L54.7114 70.8096L71.1572 87.1212Z" fill="#E8A19A"/>
<path d="M39.8535 93.4743C41.4762 96.037 42.3455 98.8798 42.3906 101.842C42.397 102.237 41.7255 102.276 41.7191 101.878C41.6749 99.0237 40.8589 96.2869 39.2942 93.8152C39.078 93.4743 39.6364 93.131 39.8535 93.4743Z" fill="#B46871"/>
<path d="M40.322 94.5035C42.1388 95.5235 43.4928 96.9172 44.3925 98.6837C44.5746 99.0414 43.9353 99.2324 43.7541 98.8764C42.9381 97.2749 41.6723 95.9805 40.0267 95.0564C39.6596 94.8511 39.9531 94.2965 40.322 94.5035Z" fill="#B46871"/>
<path d="M15.3801 64.9749C15.3801 64.9749 19.2519 63.0519 16.5401 59.8513C14.6561 57.6279 14.7307 51.2268 13.9994 50.4491C12.7106 49.0782 10.8662 51.6677 11.7364 56.3705C11.7364 56.3705 3.69287 55.2091 2.14377 56.533C0.593746 57.8568 2.07476 59.4524 2.07476 59.4524C2.07476 59.4524 0.0914593 60.3336 0.00315094 61.7845C-0.0851593 63.2353 1.54396 63.9381 1.54396 63.9381C1.54396 63.9381 0.058321 64.374 0.222063 65.6381C0.384884 66.9021 2.53196 67.344 2.53196 67.344C2.53196 67.344 0.799791 67.4567 1.19075 68.7578C1.5817 70.0589 3.41317 71.0823 9.39708 70.3089C15.3801 69.5371 15.3801 64.9749 15.3801 64.9749Z" fill="#2B4B6B"/>
<path d="M6.15116 67.3154C5.35729 67.2893 4.5625 67.2632 3.76771 67.2363C3.36664 67.2228 3.33908 66.6489 3.74475 66.6623C4.53862 66.6884 5.33337 66.7145 6.12724 66.7414C6.52923 66.7541 6.55683 67.3289 6.15116 67.3154Z" fill="#1C2F3C"/>
<path d="M9.22747 57.1034C10.4813 58.561 9.42614 60.3292 7.50632 60.5657C7.52564 60.3763 7.54495 60.1878 7.56427 59.9984C8.75461 60.2375 9.57058 61.207 9.34061 62.3406C9.09592 63.5449 7.86326 64.1996 6.59749 64.1231C6.64165 63.9421 6.68582 63.762 6.73089 63.5811C8.7059 64.3865 8.68011 67.1797 6.25803 67.2958C6.32427 67.1292 6.3905 66.9626 6.45673 66.7959C7.28648 67.3371 7.94056 68.1694 7.7345 69.1482C7.56156 69.9721 6.77962 70.5023 5.87905 70.44C5.48074 70.4122 5.4522 69.8374 5.85603 69.866C6.77684 69.93 7.3049 69.2163 7.09517 68.432C6.95074 67.8908 6.50642 67.5298 6.03452 67.2218C5.79994 67.0686 5.9839 66.7337 6.23412 66.7219C8.08034 66.6335 7.78693 64.6406 6.44112 64.0919C6.16516 63.9791 6.25987 63.5306 6.57447 63.5499C7.36742 63.5979 8.1834 63.3564 8.56608 62.6637C9.0619 61.7649 8.46488 60.7685 7.42632 60.5598C7.0602 60.4866 7.14574 60.0338 7.48426 59.9926C8.95609 59.8116 9.62853 58.4945 8.70128 57.4173C8.45014 57.1253 8.98002 56.8147 9.22747 57.1034Z" fill="#1C2F3C"/>
<path d="M7.86742 60.6856C6.65776 60.3716 5.43247 60.1267 4.18969 59.9517C3.79046 59.8953 3.93029 59.3348 4.3286 59.3912C5.57138 59.5662 6.79666 59.8111 8.00632 60.1251C8.3936 60.226 8.25745 60.7874 7.86742 60.6856Z" fill="#1C2F3C"/>
<path d="M6.71088 64.176C5.64473 63.9799 4.57768 63.7846 3.51152 63.5886C3.11505 63.5162 3.25303 62.9548 3.65043 63.0281C4.71658 63.2241 5.78363 63.4194 6.84979 63.6155C7.24626 63.6879 7.10828 64.2492 6.71088 64.176Z" fill="#1C2F3C"/>
<path d="M11.455 68.5645L17.4352 85.4509C22.7853 84.9451 26.0381 82.2369 29.4463 78.4219L17.4453 61.5439L11.455 68.5645Z" fill="#2B4B6B"/>
<path d="M16.9654 83.0891C21.0599 82.0994 24.6189 79.7783 26.9545 76.5433C27.1421 76.2832 26.7135 75.9987 26.5258 76.2596C24.2711 79.3828 20.84 81.6542 16.8807 82.6111C16.5542 82.6894 16.6352 83.1682 16.9654 83.0891Z" fill="white"/>
<path d="M11.8852 65.5539C11.1263 65.6995 10.4924 66.0378 9.98923 66.579C9.72614 66.8609 9.26161 66.4746 9.52378 66.1935C10.0904 65.5842 10.8392 65.171 11.6966 65.006C12.0875 64.9311 12.2807 65.4782 11.8852 65.5539Z" fill="#1C2F3C"/>
<path d="M10.0603 61.7162C10.8183 64.0659 12.8236 65.872 15.4122 66.5107C15.8013 66.6067 15.6652 67.168 15.2733 67.0712C12.4731 66.3803 10.2838 64.4371 9.46142 61.8896C9.34736 61.5353 9.94529 61.3611 10.0603 61.7162Z" fill="#1C2F3C"/>
<path d="M57.8926 55.0557L45.6166 81.2988C45.6166 81.2988 54.8017 94.9452 67.1338 97.1257L57.8926 55.0557Z" fill="#70B0C5"/>
<path d="M47.2195 78.3322C51.7178 83.9709 57.0393 89.2089 63.5963 92.8673C63.9606 93.0709 63.6277 93.5961 63.2615 93.3916C56.6033 89.6768 51.2137 84.3639 46.6464 78.6386C46.3944 78.323 46.9702 78.0192 47.2195 78.3322Z" fill="white"/>
<path d="M76.2375 37.7933C76.2375 37.7933 63.7776 45.1479 59.7319 50.9751C55.9971 56.3536 58.0899 57.8096 61.9387 82.0986C65.7875 106.388 62.4125 120.447 59.9186 133.426C57.1231 147.974 50.8807 144.889 77.0176 146.711C90.1574 147.627 124.661 144.238 129.909 141.776C135.157 139.315 125.412 87.51 124.712 75.684C124.012 63.8589 126.531 50.7302 118.834 44.3383C111.137 37.9465 91.9935 35.5547 91.9935 35.5547L76.2375 37.7933Z" fill="#70B0C5"/>
<path d="M59.0937 63.1174C61.203 73.9057 62.7208 84.7672 63.8449 95.6758C63.8854 96.0646 63.2203 96.0621 63.1808 95.6758C62.0622 84.821 60.5517 74.0134 58.4525 63.279C58.3789 62.896 59.0192 62.7319 59.0937 63.1174Z" fill="#2B4B6B"/>
<path d="M108.172 111.581C100.58 119.853 89.8249 125.548 78.2333 127.567C74.9355 128.142 71.5852 128.412 68.2285 128.381C67.8017 128.377 67.8007 127.769 68.2285 127.774C83.2733 127.912 98.0303 121.691 107.702 111.151C107.978 110.851 108.445 111.283 108.172 111.581Z" fill="#2B4B6B"/>
<path d="M71.157 114.243C80.1213 115.009 89.1602 113.925 97.6057 111.072C98.0068 110.936 98.1807 111.523 97.7824 111.658C89.2872 114.528 80.1737 115.621 71.157 114.851C70.7347 114.814 70.731 114.206 71.157 114.243Z" fill="#2B4B6B"/>
<path d="M65.8677 67.8613L73.8975 66.6157L73.5544 63.2241L65.5246 64.4688L65.8677 67.8613Z" fill="white"/>
<path d="M118.467 69.0202C121.879 87.6723 123.792 106.549 124.151 125.458C124.252 130.824 124.227 136.191 124.082 141.557C124.072 141.947 123.408 141.948 123.418 141.557C123.923 122.744 122.918 103.903 120.387 85.2275C119.661 79.8624 118.803 74.5132 117.827 69.1818C117.756 68.7989 118.397 68.6348 118.467 69.0202Z" fill="white"/>
<path d="M74.0534 39.844C73.9651 41.6467 74.9476 43.7877 76.6567 44.7227C78.9482 45.9766 81.9544 46.1988 84.5329 45.7443C89.7293 44.8279 93.695 40.912 94.4419 36.1461C94.5026 35.7589 95.176 35.7741 95.1153 36.1663C94.2892 41.4337 89.8103 45.7191 83.9873 46.4488C81.293 46.7862 78.1166 46.4614 75.8537 44.9751C74.2208 43.9021 73.2918 41.6332 73.381 39.8246C73.3994 39.4291 74.0727 39.4476 74.0534 39.844Z" fill="white"/>
<path d="M93.1035 36.5165C93.1035 38.5834 81.4982 47.3923 75.3892 40.1202L76.4516 33.7283L77.0164 29.4556L77.4111 26.4637L89.7183 22.627C90.0486 28.024 91.2463 32.5871 93.1035 36.5165Z" fill="#E8A19A"/>
<path d="M87.4893 27.3408C82.9073 34.3007 77.9959 35.7474 76.238 35.367L77.0163 29.4557L87.4893 27.3408Z" fill="#2C2D40"/>
<path d="M90.5453 19.2655C90.583 19.7385 90.5913 20.1778 90.5683 20.5961C90.5149 21.5639 90.2997 22.4215 89.9151 23.3152C89.4074 24.4918 88.6071 25.7356 87.4949 27.3784C85.748 29.9587 82.5661 31.1453 79.4026 31.413C70.9994 32.1258 69.7217 26.9559 69.6334 18.9945C69.58 14.051 67.7954 11.4548 68.9489 9.43663H68.9517C69.0326 9.34069 69.1164 9.24727 69.201 9.15638C71.2008 6.96068 74.0994 5.60152 77.2105 5.28509C77.8103 5.22449 78.3843 5.18409 78.9381 5.16305C79.0632 5.15464 79.1892 5.15043 79.3116 5.14959C79.3631 5.14622 79.4145 5.14454 79.4642 5.14622C79.604 5.14118 79.742 5.13865 79.8809 5.14033C79.9794 5.13865 80.0778 5.13865 80.1744 5.14118C80.3989 5.14202 80.6168 5.14791 80.8293 5.15632C87.632 5.44078 89.6723 9.04108 90.273 12.7104C90.6814 15.204 90.422 17.7296 90.5453 19.2655Z" fill="#E8A19A"/>
<path d="M75.7173 25.5729C73.1278 25.6191 72.8766 22.99 72.8766 22.99L78.4484 22.6265C78.4484 22.6265 78.7805 25.5182 75.7173 25.5729Z" fill="white"/>
<path d="M77.5658 16.7098C77.6505 17.1205 77.9936 17.4058 78.3302 17.3478C78.6669 17.2897 78.8712 16.9093 78.7865 16.4994C78.701 16.0887 78.3597 15.8034 78.0221 15.8615C77.6845 15.9187 77.4812 16.2991 77.5658 16.7098Z" fill="#2C2D40"/>
<path d="M72.0844 17.2665C72.169 17.6772 72.5113 17.9625 72.8489 17.9044C73.1855 17.8463 73.3897 17.4659 73.3051 17.0561C73.2195 16.6454 72.8783 16.3601 72.5407 16.4181C72.204 16.4762 71.9997 16.8558 72.0844 17.2665Z" fill="#2C2D40"/>
<path d="M81.658 19.2831C81.692 19.7047 81.0012 20.0944 80.1153 20.1541C79.2295 20.213 78.4843 19.9193 78.4503 19.4977C78.4163 19.0761 79.1071 18.6864 79.993 18.6267C80.8788 18.5677 81.6239 18.8615 81.658 19.2831Z" fill="#B46871"/>
<path d="M69.6867 20.9903C69.9958 21.1502 70.4613 21.2335 70.9727 21.199C71.8576 21.1401 72.5485 20.7505 72.5144 20.328C72.4813 19.9072 71.7353 19.6135 70.8504 19.6732C70.3628 19.7061 69.9351 19.839 69.6527 20.0217L69.6867 20.9903Z" fill="#B46871"/>
<path d="M77.7641 14.4405C78.3078 14.3269 79.0501 14.4523 79.1991 15.0346C79.2893 15.3881 79.6029 15.6684 80.0261 15.617C80.3904 15.5724 80.7546 15.2198 80.6636 14.8613C80.3389 13.5938 78.9839 12.8078 77.5746 13.1024C77.1873 13.1831 76.88 13.4718 76.9371 13.8581C76.9858 14.1931 77.3722 14.523 77.7641 14.4405Z" fill="#2C2D40"/>
<path d="M70.879 16.0479C71.0427 15.4664 71.373 15.0995 72.0381 14.9791C72.9708 14.8108 72.7087 13.4836 71.775 13.6519C70.6279 13.859 69.7788 14.5617 69.4854 15.601C69.2508 16.4367 70.6417 16.8904 70.879 16.0479Z" fill="#2C2D40"/>
<path d="M87.7001 21.6266C88.8895 21.5626 89.8398 21.1772 90.5684 20.5923C90.515 21.5601 90.2997 22.4177 89.9152 23.3114C89.0487 22.99 88.287 22.4522 87.7001 21.6266Z" fill="#2C2D40"/>
<path d="M88.3803 12.7814C85.1 13.8393 85.1846 19.0807 83.3945 18.2989C81.6044 17.5171 84.112 8.78476 79.7131 9.30486C75.3142 9.82412 75.9222 10.5521 73.9132 10.8197C70.4958 11.2733 70.3697 9.70461 68.9522 9.43614C69.0331 9.3402 69.1168 9.24679 69.2015 9.15589C71.2013 6.9602 74.0999 5.60104 77.211 5.2846C77.8108 5.224 78.3848 5.18361 78.9385 5.16257C79.0637 5.15415 79.1897 5.14994 79.312 5.1491C79.3635 5.14573 79.415 5.14405 79.4647 5.14574C79.6045 5.14069 79.7425 5.13816 79.8814 5.13984C79.9798 5.13816 80.0783 5.13817 80.1749 5.14069C80.3966 5.13901 80.6164 5.1449 80.8298 5.15584C87.6324 5.44029 89.6727 9.0406 90.2734 12.7099C89.7335 12.5441 89.0997 12.5483 88.3803 12.7814Z" fill="#2C2D40"/>
<path d="M83.3962 18.2985C85.1854 19.0795 85.0989 13.839 88.3811 12.7811C89.1004 12.548 89.7343 12.5429 90.2724 12.7087C90.6818 15.2023 90.4224 17.7288 90.5456 19.2647C90.5824 19.725 90.5916 20.1542 90.5695 20.5624C91.6026 17.2937 92.7433 13.4426 92.9144 11.8377C92.9493 11.5137 92.9548 11.2098 92.9346 10.9254C92.849 10.8522 92.7644 10.7815 92.6752 10.7142C92.2925 10.4162 91.873 10.1705 91.4269 9.96514C90.7222 9.64534 89.9468 9.43326 89.141 9.30703C86.5266 8.89044 83.5746 9.35584 81.4984 9.84143C83.3401 11.7072 81.9318 17.6581 83.3962 18.2985Z" fill="#2C2D40"/>
<path d="M92.5786 15.6225C92.5786 15.6225 95.6951 11.2109 94.3263 7.566C92.9584 3.92109 89.1345 3.44812 89.1345 3.44812C89.1345 3.44812 85.8744 0.21559 78.1748 0.00603501C72.0649 -0.160599 70.0862 3.17881 70.0862 3.17881C70.0862 3.17881 66.0285 6.01412 66.6918 9.52437C67.3559 13.0346 69.0246 14.01 69.0246 14.01C69.0246 14.01 68.5224 9.19868 75.3885 9.14145C82.2546 9.08506 89.1336 13.6372 89.1336 13.6372L92.5786 15.6225Z" fill="#3A6789"/>
<path d="M67.2103 11.1235C69.579 7.38935 74.4489 5.96539 78.9408 6.56965C84.4785 7.31529 88.9777 10.5899 93.189 13.7231C93.5202 13.9697 93.0483 14.3972 92.7199 14.1523C88.8867 11.3002 84.8557 8.3496 79.9186 7.34896C75.4028 6.43331 70.2303 7.57198 67.7834 11.429C67.569 11.7681 66.995 11.4626 67.2103 11.1235Z" fill="#2B4B6B"/>
<path d="M75.6053 27.1901C76.2575 27.3407 76.9337 27.2961 77.4102 26.8223C77.6512 26.5816 77.2317 26.2517 76.9907 26.4916C76.6504 26.8299 76.1637 26.7979 75.713 26.6936C75.3671 26.6136 75.2613 27.1101 75.6053 27.1901Z" fill="#B46871"/>
<path d="M84.8792 19.8979C84.3273 18.6944 84.4698 17.3201 85.1634 16.1789C86.0622 14.7002 87.7557 12.4052 89.5633 12.5129C92.22 12.6712 92.7029 14.792 92.6192 16.9902C92.5355 19.1884 91.1989 22.1491 87.8799 21.9076C86.2195 21.7864 85.3309 20.8842 84.8792 19.8979Z" fill="#E8A19A"/>
<path d="M87.9796 19.3071C87.7772 18.4032 87.6356 17.4522 87.9382 16.5509C88.2087 15.7455 89.0761 14.5462 90.2011 14.8029C90.5783 14.8888 90.7899 14.3661 90.41 14.2803C89.3264 14.0337 88.3632 14.6699 87.8002 15.4913C86.988 16.6754 87.0864 18.0986 87.3817 19.4114C87.4589 19.7615 88.0587 19.6597 87.9796 19.3071Z" fill="#2C2D40"/>
<path d="M72.6936 19.7397C73.1398 19.0142 73.5859 18.2879 74.0321 17.5625C74.0578 17.565 74.0845 17.5667 74.1112 17.5642C74.113 17.5642 74.1148 17.5642 74.1167 17.5633C74.3457 17.5423 74.5012 17.7754 74.388 17.958C74.0182 18.5598 73.6484 19.1615 73.2786 19.7624C73.7331 20.0275 74.1516 20.3212 74.5463 20.6671C74.7882 20.8792 74.4524 21.2461 74.2077 21.0324C73.7772 20.6553 73.3311 20.3381 72.8178 20.0578C72.7028 19.9955 72.6182 19.8617 72.6936 19.7397Z" fill="#2C2D40"/>
<path d="M129.379 53.158C129.379 53.158 132.725 60.835 125.669 66.631C105.536 83.1715 114.952 58.3018 114.952 58.3018C114.952 58.3018 114.266 48.0143 129.379 53.158Z" fill="#2C2D40"/>
<path d="M126.23 52.3376C126.23 52.3376 153.178 77.3874 154.74 82.0978C158.637 93.8589 117.509 133.938 117.509 133.938L112.333 128.087L132.687 89.4196L113.146 68.0147C112.666 57.2718 118.99 51.9059 126.23 52.3376Z" fill="#E8A19A"/>
<path d="M111.797 129L119.176 134.038L130.412 122.636L130.777 122.266L132.103 120.921C130.393 115.759 119.359 112.547 119.359 112.547L118.328 114.793L118.106 115.271L111.797 129Z" fill="#2B4B6B"/>
<path d="M118.316 126.249C120.943 127.932 121.423 131.284 119.673 133.742C118.751 135.039 117.868 136.539 117.554 137.873C116.799 141.076 116.88 145.05 115.999 146.569C114.699 148.811 113.717 146.226 113.644 145.89C113.175 143.74 113.086 140.67 113.086 140.67C113.086 140.67 111.758 146.102 112.198 148.258C112.639 150.413 111.239 151.917 109.571 150.119C107.903 148.322 108.005 142.059 108.546 140.331C108.546 140.331 106.782 143.488 107.273 146.425C107.763 149.363 107.509 150.474 107.034 151.597C106.558 152.719 104.203 151.625 103.633 147.509C103.063 143.392 103.973 141.684 104.752 139.79C104.752 139.79 103.541 141.001 102.067 143.335C100.594 145.669 101.457 149.022 99.9958 149.924C98.5019 150.846 97.6933 146.943 98.3004 144.609C98.9076 142.274 99.132 140.529 101.089 138.038C103.045 135.547 105.009 133.229 106.572 131.995C108.135 130.761 113.062 125.705 116.031 125.519C116.79 125.47 117.572 125.773 118.316 126.249Z" fill="#2B4B6B"/>
<path d="M110.812 128.476C110.812 128.476 104.928 130.547 103.591 132.063C102.254 133.578 99.3553 135.213 100.39 136.119C101.426 137.026 104.932 134.926 104.932 134.926L110.812 128.476Z" fill="#2B4B6B"/>
<path d="M118.108 115.27C123.008 116.22 127.391 118.84 130.33 122.567C130.354 122.597 130.384 122.622 130.412 122.636L130.777 122.266C130.771 122.255 130.764 122.244 130.755 122.234C127.763 118.441 123.302 115.792 118.329 114.794L118.108 115.27Z" fill="white"/>
<path d="M132.868 88.8933C135.942 88.0315 139.099 87.5443 142.311 87.4222C142.769 87.4046 142.731 88.0551 142.278 88.0719C139.127 88.1923 136.034 88.6838 133.019 89.5296C132.58 89.6524 132.433 89.0154 132.868 88.8933Z" fill="#B46871"/>
<path d="M133.781 88.6338C134.602 87.3764 135.759 86.3851 137.178 85.7067C137.584 85.5123 137.906 86.093 137.5 86.2866C136.183 86.9153 135.136 87.8259 134.374 88.9923C134.139 89.3525 133.545 88.9931 133.781 88.6338Z" fill="#B46871"/>
<path d="M118.834 44.3418L129.25 53.1338C129.25 53.1338 113.117 62.8525 113.199 73.3126L102.041 62.866C102.041 62.866 107.401 45.557 118.834 44.3418Z" fill="#70B0C5"/>
<path d="M126.437 51.3594C118.566 55.1987 112.587 61.8565 110.012 69.6706C109.889 70.0443 109.248 69.8852 109.372 69.509C111.994 61.5501 118.082 54.7468 126.102 50.8351C126.479 50.6508 126.815 51.1751 126.437 51.3594Z" fill="white"/>
<path d="M96.9898 60.9375C101.856 64.5647 106.633 68.3064 111.798 71.581C112.147 71.8024 111.816 72.3292 111.463 72.1053C106.252 68.8021 101.431 65.0267 96.5207 61.3667C96.1886 61.1201 96.6614 60.6926 96.9898 60.9375Z" fill="#2B4B6B"/>
<path d="M107.18 39.8147C102.872 42.5818 100.118 47.0473 99.7551 51.8519C99.7256 52.2399 99.0615 52.2424 99.0909 51.8519C99.4727 46.8192 102.333 42.1888 106.846 39.2904C107.195 39.0649 107.527 39.5908 107.18 39.8147Z" fill="#2B4B6B"/>
<path d="M86.0947 14.8154C82.4648 15.6663 80.7474 21.4151 80.6674 21.6988L81.5238 21.9033C81.5394 21.8444 82.8742 17.3023 85.322 15.9255L86.0947 14.8154Z" fill="white"/>
<path d="M81.9901 29.661L82.5503 30.2871C82.7582 30.1297 86.1388 28.0182 88.582 25.421C89.9067 24.0181 91.8899 21.8451 91.6112 20.1611C91.3122 20.592 91.1126 20.8142 90.5 21.2762C90.2958 21.6238 89.7503 22.9838 89.4568 23.2944C87.0614 25.8393 82.0397 29.6231 81.9901 29.661Z" fill="white"/>
<path d="M72.8766 19.25C72.8766 19.25 80.9634 19.6531 82.3892 22.6155C83.5676 25.0628 85.0818 29.3625 82.1114 30.8159C79.1402 32.2693 74.3742 33.4703 71.1564 30.2874C68.5421 27.7012 68.8411 24.148 69.8281 22.4177C71.2448 19.9334 72.8766 19.25 72.8766 19.25Z" fill="#3A6789"/>
<path d="M75.4169 22.6638C74.3802 22.9575 73.3536 23.0821 72.315 23.0316C71.97 23.0147 72.097 22.5081 72.4419 22.5249C73.3802 22.5704 74.3176 22.4643 75.2541 22.1992C75.5944 22.1025 75.7609 22.5662 75.4169 22.6638Z" fill="#2B4B6B"/>
<path d="M78.0863 24.2478C75.5916 25.0877 73.118 25.2914 70.6692 24.8529C70.3371 24.7931 70.4604 24.2865 70.7962 24.3463C73.1539 24.7679 75.5198 24.592 77.9235 23.7824C78.2629 23.6688 78.4276 24.1333 78.0863 24.2478Z" fill="#2B4B6B"/>
<path d="M78.6973 26.4999C76.129 27.3667 73.5827 27.5754 71.0631 27.1201C70.7311 27.0604 70.8543 26.5529 71.1901 26.6135C73.6195 27.0528 76.0581 26.871 78.5354 26.0353C78.8749 25.92 79.0386 26.3846 78.6973 26.4999Z" fill="#2B4B6B"/>
<path d="M79.0061 28.9291C76.3963 29.9415 73.8253 30.0745 71.3057 29.4139C70.981 29.3289 71.2422 28.855 71.5642 28.9392C73.9393 29.5628 76.3816 29.4197 78.8433 28.4645C79.1799 28.3333 79.3428 28.7978 79.0061 28.9291Z" fill="#2B4B6B"/>
</svg>
