<svg width="373" height="237" viewBox="0 0 373 237" fill="none" xmlns="http://www.w3.org/2000/svg">
<path d="M168.57 205.003C159.45 205.028 150.329 205.229 141.225 206.156C137.792 206.505 134.431 207.275 130.99 207.585C124.118 208.204 117.368 209.36 110.472 209.893C104.918 210.323 99.3406 210.576 93.8026 211.121C88.6109 211.631 82.8629 211.514 77.7107 210.67C73.8968 210.045 70.0649 209.693 66.3152 208.69C62.12 207.568 57.5627 206.765 53.1919 206.794C46.9591 206.835 40.8896 206.84 34.925 208.822C32.8313 209.517 30.2681 210.661 28.678 212.121C25.0382 215.463 24.5455 223.803 28.1796 227.269C34.3009 233.103 47.3653 235.393 55.9454 235.501C65.3472 235.619 74.4809 234.98 83.8969 234.604C92.646 234.255 101.374 233.758 110.137 233.776C128.037 233.811 145.938 233.776 163.805 232.681C180.591 231.652 197.419 232.005 214.242 232.005C231.494 232.005 248.629 232.129 265.755 234.229C273.218 235.144 280.82 235.464 288.32 236.105C295.037 236.679 301.491 236.093 308.181 235.563C313.799 235.117 319.38 233.796 324.483 231.563C328.523 229.795 335.725 224.302 336.964 220.082C340.437 208.252 288.017 208.536 279.969 208.563C270.965 208.592 261.89 208.864 252.893 208.549C249.109 208.417 245.381 207.74 241.687 206.998C238.008 206.258 234.301 206.446 230.57 206.135C215.012 204.84 199.419 205.029 183.812 205.029C178.733 205.03 173.651 204.989 168.57 205.003Z" fill="#5A86A9" fill-opacity="0.64"/>
<path d="M130.014 216.977C128.931 217.011 127.89 216.785 126.826 216.694C126.277 206.901 127.274 196.638 127.706 186.798C130.416 186.933 133.125 187.067 135.835 187.201C133.948 192.459 132.601 197.885 131.813 203.379C131.688 204.25 130.168 216.972 130.014 216.977Z" fill="#E5D1BD"/>
<path d="M126.499 214.794C125.83 214.683 125.436 214.96 124.99 215.338C124.731 215.558 124.555 215.869 124.242 216.026C123.93 216.183 123.623 216.214 123.252 216.249C121.298 216.431 116.795 216.356 119.194 219.391C121.372 222.147 127.158 221.05 130.5 220.301C130.72 220.252 130.952 220.221 131.113 220.063C131.274 219.905 131.383 219.68 131.452 219.447C131.833 218.15 132.354 216.53 130.637 215.987C129.904 215.755 129.229 216.206 128.454 215.956C127.819 215.752 127.168 214.905 126.499 214.794Z" fill="#20252D"/>
<path d="M121.63 192.705C127.155 192.605 132.68 192.506 138.206 192.407C142.675 172.65 146.612 152.789 150.009 132.85C150.273 131.304 150.529 129.696 150.05 128.196C149.142 125.358 145.869 123.739 142.735 123.195C137.864 122.35 128.916 123.526 126.418 128.228C123.778 133.197 124.222 142.071 123.581 147.563C121.834 162.546 121.18 177.639 121.63 192.705Z" fill="#4D7B9E"/>
<path d="M161.609 216.977C162.692 217.011 163.733 216.785 164.797 216.694C165.346 206.901 164.35 196.638 163.917 186.798C161.208 186.933 158.498 187.067 155.789 187.201C157.676 192.459 159.023 197.885 159.81 203.379C159.935 204.25 161.455 216.972 161.609 216.977Z" fill="#E5D1BD"/>
<path d="M165.126 214.794C165.794 214.683 166.189 214.96 166.635 215.338C166.894 215.558 167.07 215.869 167.382 216.026C167.695 216.183 168.001 216.214 168.372 216.249C170.327 216.431 174.83 216.356 172.431 219.391C170.252 222.147 164.466 221.05 161.124 220.301C160.904 220.252 160.672 220.221 160.511 220.063C160.35 219.905 160.241 219.68 160.173 219.447C159.791 218.15 159.27 216.53 160.987 215.987C161.72 215.755 162.395 216.206 163.17 215.956C163.806 215.752 164.457 214.905 165.126 214.794Z" fill="#20252D"/>
<path d="M169.993 192.705C164.467 192.605 158.942 192.506 153.416 192.407C148.947 172.65 145.011 152.789 141.613 132.85C141.35 131.304 141.093 129.696 141.573 128.196C142.48 125.358 145.754 123.739 148.888 123.195C153.758 122.35 162.707 123.526 165.204 128.228C167.844 133.197 167.401 142.071 168.041 147.563C169.788 162.546 170.442 177.639 169.993 192.705Z" fill="#4D7B9E"/>
<path d="M101.481 66.4713C101.585 66.5004 101.692 66.5317 101.78 66.5854C102.597 67.0861 102.699 67.8012 103.335 68.4883C103.618 68.7948 104.726 68.6542 104.47 69.4633C104.375 69.7617 104.032 70.4637 103.823 71.0984C103.519 72.0241 103.736 73.3683 104.121 74.406C105.632 78.4825 108.296 82.0646 111.05 85.5309C111.207 85.7285 111.375 85.9327 111.612 86.0406C112.037 86.2342 112.541 86.0673 112.982 85.9075C115.028 85.1664 117.149 84.6021 119.307 84.2246C121.233 83.8877 123.242 83.7028 125.136 84.1697C127.03 84.6366 128.8 85.8632 129.39 87.5985C129.831 88.898 129.546 90.3908 128.649 91.4697C126.426 94.145 121.286 92.8803 118.175 92.6786C115.23 92.4878 112.301 92.1053 109.414 91.5345C109.058 91.4641 108.692 91.3866 108.394 91.1915C108.076 90.9836 107.869 90.6641 107.672 90.3536C105.132 86.3539 102.986 82.1685 100.921 77.9213C100.354 76.7543 100.519 75.4582 99.9842 74.3836C99.6427 73.6977 98.8432 73.3875 98.3668 72.8068C97.8954 72.232 97.4343 71.3658 97.2245 70.6706C96.8109 69.2998 97.7871 68.1418 98.5328 67.0523C98.7186 66.7809 98.8429 66.5972 99.1249 66.448C99.5833 66.2054 100.091 66.2687 100.597 66.3149C100.896 66.3413 101.195 66.3909 101.481 66.4713Z" fill="#E5D1BD"/>
<path d="M119.35 91.951C118.649 89.2971 117.948 86.6432 117.248 83.9893C117.293 84.1596 130.023 80.3012 130.79 80.0955C133.714 79.3106 136.751 78.518 139.761 78.9393C146.189 79.8389 148.23 87.5546 142.468 90.7738C136.213 94.268 127.995 95.8383 120.755 95.1131C120.597 95.0972 120.432 95.0777 120.304 94.9915C120.128 94.8733 120.065 94.6608 120.013 94.4647C119.792 93.6271 119.571 92.7889 119.35 91.951Z" fill="#BCBEC0"/>
<path d="M155.825 84.3707C160.254 88.285 163.573 93.3136 165.571 98.5225C169.111 107.746 169.179 117.595 169.211 127.246C169.222 130.458 169.233 133.67 169.244 136.882C169.255 140.042 168.953 140.722 165.254 140.306C158.4 139.534 151.274 138.222 145.063 135.394C142.108 134.047 139.346 132.348 136.247 131.288C131.74 129.747 127.118 130.445 122.659 129.442C123.79 126.267 125.481 123.368 126.268 120.037C127.056 116.703 127.427 113.296 127.675 109.891C128.108 103.942 128.906 98.027 129.386 92.0997C129.73 87.8544 129.128 84.3772 133.991 81.5927C136.639 80.077 141.455 77.4827 145.191 78.1844C149.155 78.9286 153.349 82.1828 155.825 84.3707Z" fill="#BCBEC0"/>
<path d="M139.843 70.8397C140.68 72.5375 142.047 73.9528 143.163 75.5057C144.249 77.0168 144.639 78.3839 144.927 80.1357C145.136 81.401 145.623 82.39 147.264 82.6065C150.36 83.0151 149.475 80.6398 150.178 78.9122C150.982 76.937 152.696 75.3763 153.894 73.6137C157.356 68.5196 156.368 58.4513 149.173 56.3027C141.306 53.9537 137.304 65.6877 139.843 70.8397Z" fill="#E5D1BD"/>
<path d="M152.384 65.9097C153.277 65.9432 154.259 66.009 154.922 66.5659C155.584 67.123 155.512 68.3375 154.638 68.4687C153.845 68.5878 152.818 67.8197 152.334 68.3803C152.051 68.7079 152.3 69.1875 152.514 69.5706C153.338 71.041 153.585 72.7457 153.201 74.3123C153.527 74.5927 154.036 74.3017 154.322 74.0095C155.744 72.5589 156.855 70.8645 157.583 69.0364C157.869 69.4788 158.288 69.8554 158.782 70.1141C158.485 69.427 158.673 68.6747 158.856 67.9736C159.528 65.397 159.986 62.3779 158.048 60.2722C157.011 59.1458 155.434 58.4971 153.848 58.2248C152.262 57.9524 150.646 58.0185 149.048 58.0858C148.364 58.1146 147.522 58.2514 147.357 58.8387C148.857 59.3971 150.408 60.4844 151.16 61.8031C151.39 62.2079 152.292 65.9063 152.384 65.9097Z" fill="#404C60"/>
<path d="M149.215 59.7189C149.269 59.7558 149.323 59.7927 149.376 59.8302C150.055 60.3104 150.693 60.8949 151.515 61.108C152.701 61.4151 153.975 60.8843 155.142 61.2594C156.447 61.6785 157.305 63.1272 158.257 63.9849C159.819 65.3908 161.756 66.4248 163.834 67.0123C164.896 67.3123 165.996 67.4969 167.105 67.5549C167.607 67.5813 168.279 67.6697 168.769 67.5472C169.426 67.3827 169.404 67.1054 168.703 66.8969C166.507 66.2436 165.818 63.3791 165.984 61.4803C166.115 59.9816 166.672 58.415 166.056 57.0243C165.586 55.9618 164.576 55.4134 163.6 54.8057C162.523 54.1353 161.356 54.3158 160.134 53.9935C158.858 53.6572 157.819 52.7247 156.519 52.4868C155.145 52.2355 153.772 52.801 152.397 53.0489C151.262 53.2536 150.081 53.2403 148.951 53.0095C147.938 52.8026 146.95 52.4223 145.914 52.4309C144.385 52.444 142.979 53.33 142.087 54.4827C140.825 56.1135 140.009 58.9036 140.454 61.0503C140.385 60.7171 141.592 59.5101 141.84 59.2504C142.365 58.7026 142.998 58.1889 143.798 58.1001C145.611 57.9001 147.758 58.737 149.215 59.7189Z" fill="#3B455A"/>
<path d="M157.709 102.989L173.394 114.911C178.51 118.8 179.288 125.775 175.13 130.491C170.973 135.206 163.455 135.875 158.339 131.986L142.654 120.064L157.709 102.989Z" fill="#2F7CB1"/>
<path d="M158.159 103.33L142.474 91.4082C137.358 87.519 129.84 88.1887 125.683 92.9037C121.526 97.6187 122.303 104.594 127.419 108.483L143.104 120.405L158.159 103.33Z" fill="#427093"/>
<path opacity="0.66" d="M132.846 92.791C135.725 92.0548 138.802 92.8794 140.929 94.812C141.991 95.7765 143.479 94.1593 142.42 93.1971C139.7 90.7259 135.713 89.8452 132.085 90.7727C130.66 91.1372 131.426 93.1542 132.846 92.791Z" fill="#7E7979"/>
<path opacity="0.66" d="M128.468 92.643C128.525 92.9039 128.662 93.1384 128.898 93.2997L128.947 93.3329C129.17 93.4858 129.475 93.5569 129.749 93.519C130.011 93.4831 130.306 93.3323 130.454 93.1257C130.609 92.911 130.706 92.6448 130.649 92.383C130.593 92.1221 130.456 91.8876 130.219 91.7263L130.171 91.6931C129.947 91.5402 129.642 91.4694 129.368 91.507C129.107 91.543 128.812 91.6937 128.663 91.9003C128.509 92.115 128.412 92.3812 128.468 92.643Z" fill="#7E7979"/>
<g opacity="0.18">
<path opacity="0.66" d="M130.512 106.413L145.747 117.993L146.197 118.335L161.432 129.915C165.015 132.639 169.774 133.124 173.733 131.553C169.441 135.158 162.814 135.387 158.166 131.854L142.931 120.274L142.482 119.932L127.247 108.351C122.13 104.462 121.353 97.4873 125.51 92.772C126.756 91.3587 128.305 90.3117 130 89.6392C129.567 90.003 129.157 90.4007 128.776 90.8332C124.618 95.5482 125.396 102.523 130.512 106.413Z" fill="#7E7979"/>
</g>
<path d="M150.842 125.902C150.826 125.802 150.811 125.7 150.827 125.603C150.97 124.704 151.624 124.315 152.026 123.49C152.205 123.122 151.598 122.249 152.497 122.122C152.828 122.076 153.658 122.067 154.366 121.974C155.398 121.838 156.618 121.087 157.467 120.324C158.609 119.299 159.792 118.19 160.749 117.027C162.759 114.586 164.706 111.662 166.181 108.906C161.388 106.442 158.319 101.339 158.574 96.2572C158.601 95.7261 158.668 95.1767 158.962 94.7207C159.211 94.3351 159.604 94.0478 160.018 93.8136C164.389 91.339 166.728 95.2909 168.755 98.4023C170.021 100.344 171.173 102.39 172.116 104.485C173.438 107.419 172.395 109.981 170.566 112.573C168.627 115.321 166.61 118.072 164.077 120.383C162.846 121.507 161.475 122.334 160.11 123.29C158.761 124.234 159.289 124.739 158.336 125.847C157.805 126.465 157.389 127.189 156.74 127.706C155.578 128.634 154.034 128.303 152.656 128.137C152.313 128.095 152.081 128.068 151.816 127.894C151.385 127.611 151.232 127.158 151.063 126.713C150.962 126.45 150.884 126.178 150.842 125.902Z" fill="#E5D1BD"/>
<path d="M168.144 100.09C165.851 101.802 163.558 103.514 161.265 105.227C161.412 105.117 152.26 96.0403 151.734 95.4825C149.731 93.3545 147.672 91.1352 146.81 88.4245C144.967 82.6365 151.633 77.6538 157.212 81.1391C163.269 84.9225 168.279 91.1715 170.635 97.5691C170.687 97.708 170.737 97.8551 170.708 97.9993C170.667 98.1972 170.486 98.3406 170.317 98.4668C169.592 99.0081 168.868 99.5489 168.144 100.09Z" fill="#BCBEC0"/>
<path d="M215.624 78.9859C217.77 77.7646 220.511 77.9281 222.471 79.3942C226.051 82.0732 229.632 84.7522 233.213 87.4316C236.549 89.9279 239.227 93.0297 243.761 93.106C246.809 93.1572 253.725 95.106 254.688 98.2901C254.892 98.967 254.791 99.687 254.689 100.384C254.578 101.136 254.171 102.113 253.361 102.005C252.971 101.953 252.689 101.644 252.443 101.358C251.727 100.526 250.892 99.6485 249.759 99.4838C247.888 99.212 245.407 100.393 243.409 100.479C240.498 100.604 237.582 100.894 234.676 101.102L215.269 88.1897C211.807 85.8873 211.994 81.0529 215.624 78.9859Z" fill="#EACDB0"/>
<path d="M211.038 77.0601C213.203 74.6802 216.563 73.4799 220.19 74.8728C221.619 75.4219 223.027 76.0197 224.41 76.6646C225.671 77.2531 235.198 86.1265 234.869 86.5025C231.433 90.4339 227.996 94.3649 224.56 98.2963C220.939 96.3773 217.282 94.4344 214.231 91.7973C210.88 88.9017 207.606 84.8326 209.037 80.4955C209.459 79.2161 210.148 78.0386 211.038 77.0601Z" fill="#2F7CB1"/>
<path d="M218.552 177.239L218.809 191.744C218.704 195.769 219.094 199.781 219.358 203.792C219.603 207.518 218.794 211.358 220.698 214.811C221.295 215.894 222.565 216.648 223.532 215.397C224.277 214.434 223.934 212.766 224.118 211.647C225.501 203.238 228.075 195.038 229.359 186.613C230.704 177.789 227.027 178.021 218.552 177.239Z" fill="#EACDB0"/>
<path d="M219.44 212.332L218.436 214.752L223.378 218.791L227.905 218.964L229.37 216.746L223.28 211.83L219.44 212.332Z" fill="#20252D"/>
<path d="M207.487 177.38L204.638 191.644C203.65 198.025 201.405 204.239 200.417 210.62C200.19 212.087 200.305 213.693 199.644 215.077C198.998 216.43 197.733 216.484 196.617 215.566C195.122 214.335 195.812 212.136 195.839 210.455C196.022 199.257 195.073 188.217 194.845 177C194.842 176.853 194.849 176.685 194.972 176.592C195.071 176.516 195.213 176.517 195.341 176.525C196.515 176.598 207.426 177.688 207.487 177.38Z" fill="#EACDB0"/>
<path d="M195.804 212.927L194.237 215.073L198.07 220.044L202.439 221.162L204.404 219.308L199.668 213.242L195.804 212.927Z" fill="#20252D"/>
<path d="M234.653 186.468L232.522 165.731L231.494 152.256L228.038 141.251L209.378 138.562L186.307 142.234L185.198 146.396L189.638 184.92L211.891 186.468L211.589 162.491L215.022 177.353L214.876 186.468H234.653Z" fill="#534741"/>
<path d="M190.356 97.1514C190.324 97.8516 190.304 98.5514 190.29 99.2501C190.02 113.475 190.865 127.881 190.962 142.223C198.873 141.073 206.871 140.44 214.878 140.327C216.731 140.301 225.157 141.509 226.33 140.482C227.922 139.088 226.171 139.35 226.288 137.534C226.439 135.184 225.222 133.259 225.682 130.474C226.222 127.201 227.296 123.964 227.914 120.691C229.613 111.737 229.208 103.391 227.955 94.3896C227.226 89.1547 226.248 83.4768 223.168 78.925C220.965 75.6708 216.461 74.2839 212.444 73.8865C204.244 73.0759 196.069 77.059 192.933 84.279C191.166 88.3481 190.553 92.7535 190.356 97.1514Z" fill="#7E7979"/>
<path d="M214.896 78.6944L208.989 88.6886C209.298 98.7846 209.607 108.881 209.915 118.977C210.058 123.63 210.2 128.282 210.342 132.935C210.392 134.551 210.435 136.167 210.49 137.782C210.515 138.507 210.3 139.728 210.745 140.32C211.712 141.604 215.247 141.204 216.789 141.316C219.194 141.492 221.633 141.674 223.898 142.445C225.406 142.958 226.835 143.731 228.426 143.939C228.783 143.985 229.183 143.992 229.463 143.781C229.777 143.546 229.83 143.128 229.86 142.755C230.591 133.594 229.921 124.335 230.136 115.13C230.359 105.639 230.397 95.992 227.681 86.7615C226.655 83.2778 225.178 79.7956 222.789 76.9119C219.911 73.4371 217.71 72.9786 213.18 72.8248C211.863 72.7801 210.47 72.5716 210.991 74.3442C211.411 75.7696 213.86 77.55 214.896 78.6944Z" fill="#2F7CB1"/>
<path d="M202.045 79.6335L207.952 89.6278C207.828 89.6278 207.203 114.127 207.152 115.78C206.96 122.069 206.768 128.358 206.576 134.646C206.522 136.394 206.775 138.442 206.407 140.16C205.893 142.558 203.173 142.086 200.855 142.28C195.786 142.705 190.449 143.508 185.366 143.27C183.899 143.201 185.829 114.789 185.826 112.137C185.817 102.601 183.698 92.0211 188.915 83.3735C190.433 80.8573 193.108 76.8236 196.063 75.5815C198.815 74.4238 202.756 74.2268 205.744 73.5781L205.899 75.3761L202.045 79.6335Z" fill="#2F7CB1"/>
<path d="M209.645 55.7451C210.861 57.0713 211.65 58.7064 212.08 60.4024C212.194 60.8531 212.334 61.3724 212.785 61.5713C213.268 61.7841 213.023 62.4802 213.268 62.0391C213.512 61.598 214.334 60.0705 214.285 59.5769C214.169 58.4201 213.933 57.2739 213.583 56.1583C213.278 55.1883 212.851 54.194 212.001 53.5631C211.497 53.1889 210.882 52.9718 210.277 52.7624C209.4 52.459 208.499 52.1562 207.563 52.1587C205.95 52.1627 205.1 52.8496 206.68 53.6167C207.812 54.1664 208.811 54.8365 209.645 55.7451Z" fill="#3B455A"/>
<path d="M203.861 76.8528C204.015 77.5508 204.008 78.304 204.783 78.7299C205.156 78.9347 205.61 78.9635 206.043 78.9514C207.162 78.9204 208.272 78.6484 209.263 78.1632C209.67 77.9634 210.067 77.7199 210.334 77.3715C210.65 76.9599 210.603 76.6304 210.53 76.1769C210.444 75.6455 210.45 75.0889 210.415 74.5411C210.339 73.3424 210.172 72.1499 209.968 70.9649C211.774 70.3398 213.856 69.3937 214.124 67.4663C214.208 66.8592 214.089 66.236 213.97 65.6267C213.477 63.1081 212.985 60.5891 212.492 58.0705C212.321 57.1994 212.141 56.3026 211.655 55.5515C210.804 54.2337 209.201 53.6409 207.69 53.3558C203.834 52.6287 199.673 53.4154 196.761 55.9241C195.987 56.5917 195.291 57.3976 194.967 58.3826C194.468 59.9014 194.913 61.5902 195.36 63.163C195.771 64.6151 196.183 66.0669 196.595 67.519C197.068 69.1889 197.739 71.0893 199.337 71.7346C200.185 72.0771 201.174 71.9936 201.947 72.4943C203.296 73.3679 203.084 75.0641 203.682 76.3047C203.767 76.4784 203.82 76.6636 203.861 76.8528Z" fill="#EACDB0"/>
<path d="M214.42 64.5077C214.295 64.0467 213.797 62.7184 213.217 63.7102C213.065 63.9695 213.081 64.2955 213.13 64.5968C213.178 64.898 213.256 65.2032 213.212 65.5026C213.11 66.19 212.4 66.6194 211.711 66.7286C211.437 66.772 211.151 66.7791 210.883 66.6941C210.624 66.6113 210.398 66.4472 210.177 66.2859C209.641 65.8941 209.105 65.502 208.569 65.1102C207.648 64.4364 206.217 65.049 205.222 65.3518C204.075 65.7008 202.966 66.2369 202.152 67.1238C202.069 67.2131 201.99 67.3062 201.911 67.3986C201.717 67.6248 201.522 67.8494 201.278 68.0181C200.453 68.588 199.242 68.3572 198.449 67.7011C198.085 67.4005 197.721 66.9953 197.256 67.0158C196.892 67.032 196.595 67.3285 196.476 67.6682C196.026 68.9516 196.695 71.5242 197.768 72.3826C198.599 73.0474 199.656 73.4941 200.286 74.3273C200.711 74.8891 200.931 75.6128 201.535 76.0087C202.235 76.4675 203.178 76.3204 204.035 76.3325C204.892 76.3446 205.933 76.7309 205.978 77.5256L207.375 78.0877C207.47 78.1262 207.569 78.165 207.672 78.1647C207.95 78.1631 208.136 77.8818 208.161 77.6246C208.186 77.3674 208.11 77.1081 208.141 76.8515C208.229 76.12 209.08 75.7301 209.776 75.3777C211.169 74.671 212.349 73.6036 213.145 72.3273C213.437 71.8589 213.152 71.526 213.295 71.1119C213.427 70.731 213.773 70.5017 213.992 70.1403C214.553 69.2168 214.742 68.0498 214.752 67.0047C214.76 66.1661 214.642 65.323 214.42 64.5077ZM207.397 69.9176C206.645 70.113 205.791 70.23 205.151 70.6708C204.728 70.9618 204.321 70.3038 204.739 70.0165C205.436 69.5366 206.363 69.3992 207.181 69.1867C207.688 69.0549 207.903 69.7861 207.397 69.9176Z" fill="#3B455A"/>
<path d="M211.08 50.6676C211.014 50.1622 210.939 49.6681 210.545 49.3436C210.183 49.0448 209.624 48.9741 209.338 48.6108C209.204 48.4405 209.146 48.2228 208.995 48.0649C208.734 47.7909 208.284 47.7782 207.891 47.803C207.01 47.8589 206.115 48.0081 205.247 48.1458C204.55 48.2566 203.973 48.6862 203.261 48.7787C202.359 48.8959 201.458 49.0092 200.573 49.2145C198.842 49.6156 197.228 50.309 195.882 51.4105C193.596 53.2821 192.377 55.6912 192.543 58.5191C192.703 61.2208 194.333 64.4995 196.42 66.3983C196.267 65.6985 195.495 64.1198 195.538 63.4218C195.511 62.7344 195.628 62.0466 195.85 61.3914C196.293 60.0836 197.15 58.8976 198.231 57.9691C199.953 56.4891 202.102 55.489 204.313 54.7965C206.143 54.223 208.057 53.6444 210.007 53.6019C211.516 53.5687 212.914 53.6087 211.516 52.0152C211.198 51.65 211.143 51.1537 211.08 50.6676Z" fill="#3B455A"/>
<path d="M259.983 151.226C261.837 147.895 262.075 143.989 260.638 140.486L254.772 126.181L242.828 120.45L229.747 114.173L217.803 108.442L201.842 112.273C197.933 113.211 194.639 115.651 192.785 118.981L162.338 173.685C162.338 173.685 162.348 173.69 162.364 173.698C162.288 173.81 162.207 173.919 162.141 174.037C158.671 180.272 170.9 192.545 189.457 201.449C208.013 210.353 225.869 212.516 229.339 206.281C229.405 206.163 229.454 206.039 229.508 205.917C229.524 205.925 229.535 205.929 229.535 205.929L259.983 151.226Z" fill="#427093"/>
<g opacity="0.2">
<path d="M187.242 134.781L195.236 120.419C197.964 115.518 204.454 113.599 209.732 116.131L219.359 120.751C219.359 120.751 202.958 114.665 187.242 134.781Z" fill="#7E7979"/>
</g>
<path d="M276.97 112.266L217.189 83.5808C216.558 83.278 215.782 83.5076 215.456 84.0933L202.32 107.695C201.994 108.28 202.241 109.001 202.872 109.303L262.653 137.989C263.284 138.292 264.059 138.062 264.385 137.477L277.522 113.875C277.848 113.29 277.601 112.569 276.97 112.266Z" fill="#3B455A"/>
<path d="M216.968 87.1699L214.427 85.9507L203.358 105.838L205.899 107.057L216.968 87.1699Z" fill="#BCBEC0"/>
<path d="M222.399 89.7744L219.857 88.5552L208.789 108.442L211.33 109.662L222.399 89.7744Z" fill="#BCBEC0"/>
<path d="M227.78 92.3574L225.239 91.1382L214.171 111.025L216.712 112.245L227.78 92.3574Z" fill="#BCBEC0"/>
<path d="M233.211 94.9629L230.67 93.7437L219.601 113.631L222.142 114.85L233.211 94.9629Z" fill="#BCBEC0"/>
<path d="M238.641 97.5689L236.1 96.3496L225.031 116.237L227.572 117.456L238.641 97.5689Z" fill="#BCBEC0"/>
<path d="M244.069 100.173L241.528 98.9541L230.46 118.841L233.001 120.061L244.069 100.173Z" fill="#BCBEC0"/>
<path d="M249.347 102.705L246.806 101.486L235.737 121.373L238.278 122.592L249.347 102.705Z" fill="#BCBEC0"/>
<path d="M254.776 105.311L252.235 104.091L241.167 123.979L243.708 125.198L254.776 105.311Z" fill="#BCBEC0"/>
<path d="M260.207 107.917L257.666 106.697L246.597 126.585L249.138 127.804L260.207 107.917Z" fill="#BCBEC0"/>
<path d="M265.634 110.521L263.093 109.302L252.024 129.189L254.565 130.408L265.634 110.521Z" fill="#BCBEC0"/>
<path d="M271.065 113.126L268.524 111.907L257.456 131.795L259.997 133.014L271.065 113.126Z" fill="#BCBEC0"/>
<path d="M276.496 115.732L273.955 114.513L262.886 134.4L265.428 135.619L276.496 115.732Z" fill="#BCBEC0"/>
<g opacity="0.1">
<path d="M206.652 111.118L260.639 140.485L258.871 136.174L206.652 111.118Z" fill="#272525"/>
</g>
<path d="M190.57 122.957L166.52 166.169L233.719 198.413L257.769 155.201L190.57 122.957Z" fill="#A0D2F4"/>
<g opacity="0.05">
<path d="M163.213 181.38C166.951 187.626 176.711 195.332 189.458 201.448C208.014 210.352 225.87 212.516 229.34 206.281C229.406 206.163 229.455 206.039 229.509 205.916C229.525 205.924 229.536 205.929 229.536 205.929L255.704 158.913C255.704 158.913 220.988 209.103 163.213 181.38Z" fill="#272525"/>
</g>
<path d="M197.925 86.2209C200.228 87.1628 201.644 89.3479 201.462 91.6786C201.13 95.9369 200.797 100.196 200.464 104.454C200.277 106.845 199.439 109.855 200.11 112.125C201.295 116.136 204.226 120.273 206.311 123.942C207.37 125.805 208.401 128.561 210.054 130.018C210.364 130.291 213.933 131.931 213.902 132.034C213.9 132.043 213.713 132.942 213.713 132.942L212.741 132.753L212.161 133.112L214.757 134.406L213.025 137.061L209.142 137.09C208.027 135.062 207.45 132.728 205.833 130.976C205.15 130.234 204.342 129.602 203.593 128.918C202.307 127.742 201.2 126.415 200.039 125.136C198.915 123.898 197.53 122.86 196.442 121.628C194.016 118.879 191.61 116.114 189.194 113.357L189.574 91.1912C189.642 87.2375 194.028 84.627 197.925 86.2209Z" fill="#EACDB0"/>
<path d="M197.02 81.624C200.36 81.9215 203.336 83.8026 204.168 87.3633C204.496 88.767 204.769 90.1819 204.985 91.6043C205.182 92.9019 202.752 105.226 202.232 105.19C196.795 104.806 191.357 104.421 185.92 104.038C185.557 100.181 185.194 96.2842 185.791 92.453C186.446 88.2465 188.184 83.4307 192.839 82.0533C194.212 81.647 195.647 81.5018 197.02 81.624Z" fill="#2F7CB1"/>
<path d="M250.317 100.746C250.324 100.963 250.272 101.233 250.214 101.417C249.965 102.217 249.675 103.007 249.345 103.782C250.23 103.963 251.099 104.215 251.938 104.535C252.864 103.764 253.707 102.907 254.452 101.982C254.661 101.722 254.866 101.45 254.961 101.138C255.311 99.9926 254.785 98.2616 253.558 97.9381C252.867 97.7557 252.162 97.6635 251.473 97.4306C250.92 97.2438 250.224 96.8204 249.61 96.937C248.589 97.1312 248.395 98.4586 248.281 99.2341C248.212 99.702 247.738 102.523 248.964 101.454C249.225 101.226 249.364 100.898 249.621 100.665C250.147 100.189 250.306 100.401 250.317 100.746Z" fill="#EACDB0"/>
<path d="M111.149 203.924C111.067 203.734 110.955 203.54 110.81 203.344C110.045 202.302 108.788 201.609 107.569 200.956C104.506 199.317 101.364 197.697 97.8798 196.877C92.654 195.648 87.1794 196.349 82.0462 197.561C77.3978 198.659 71.9545 199.707 67.6198 201.489C66.0201 202.147 64.3443 203.368 64.6259 204.866C64.7328 205.435 65.1167 205.935 65.512 206.402C66.659 207.756 67.9847 209 69.4561 210.101C70.4133 210.818 71.4464 211.481 72.6221 211.898C73.9866 212.381 75.4824 212.511 76.9551 212.606C83.7414 213.041 90.6601 212.784 97.2827 211.376C100.533 210.685 112.927 208.052 111.149 203.924Z" fill="#BCBEC0"/>
<path d="M81.9561 150.76C83.6897 150.58 85.4558 150.553 87.1574 150.452C89.0211 150.341 91.0782 149.06 92.7647 149.583C93.8756 149.928 94.7697 150.692 95.6036 151.455C109.105 163.819 116.262 181.914 114.587 199.453C114.398 201.439 114.025 203.609 112.823 205.309C110.611 208.435 105.544 204.854 102.647 204.1C100.579 203.562 98.5103 203.024 96.4419 202.486C94.3995 201.955 92.3521 201.423 90.2589 201.105C83.0883 200.016 75.8526 201.507 69.0162 203.472C67.4338 203.927 65.3874 204.995 63.7496 205.081C62.3083 205.156 62.2502 205.303 62.2442 203.865C62.2365 201.984 63.7877 199.94 64.4857 198.219C66.9688 192.092 68.7145 185.708 69.6794 179.223C70.7381 172.108 70.8734 164.8 73.135 157.881C73.9138 155.499 74.5787 153.009 77.1409 151.902C78.6594 151.247 80.2929 150.933 81.9561 150.76Z" fill="#427093"/>
<path d="M77.7465 140.796C82.1209 142.202 87.3293 140.187 91.4699 142.063C94.1617 143.283 95.7053 145.979 95.7741 148.593C95.8313 150.773 95.6124 153.654 93.3248 155.03C91.7655 155.969 89.801 156.298 87.9003 156.592C86.1643 156.86 84.3066 157.11 82.6712 156.53C81.2335 156.021 80.2015 154.946 79.3625 153.85C77.6776 151.649 76.2567 147.98 76.4468 145.378C76.5621 143.799 77.1501 142.285 77.7465 140.796Z" fill="#EBCEB1"/>
<path d="M88.5879 142.12C88.4155 142.095 88.2431 142.072 88.0714 142.053C85.5793 141.771 83.0254 142.018 80.6328 142.724C78.9947 143.208 77.2397 144.143 77.0091 145.895C76.9049 146.687 77.081 147.485 77.256 148.266C77.4755 149.244 77.6947 150.223 77.9142 151.201C77.9536 151.377 77.9927 151.562 77.9349 151.734C77.7592 152.254 76.8962 152.197 76.4595 151.832C74.8678 150.499 72.778 148.312 71.9718 146.484C71.314 144.992 71.5311 143.065 70.5228 141.728C69.8563 140.844 69.3374 139.472 68.3344 138.951C66.9586 138.236 65.548 137.473 64.6218 136.288C63.6957 135.103 63.385 133.375 64.3124 132.191C65.1952 131.064 66.866 130.767 68.3665 130.78C69.8673 130.792 71.4122 131.017 72.8392 130.586C73.4576 130.399 74.0393 130.092 74.6844 130.008C76.7953 129.736 79.9924 130.492 81.8413 131.492C83.5656 132.424 85.1981 133.608 87.1472 134.004C88.7108 134.322 90.3463 134.101 91.931 134.309C94.5751 134.655 96.9632 136.242 98.306 138.386C99.8108 140.787 100.267 144.066 98.6328 146.461C97.8135 147.661 97.2112 148.95 96.5951 150.244C96.3812 150.693 94.9787 152.465 94.7835 150.908C94.6319 149.701 94.9042 148.471 94.7438 147.264C94.3542 144.321 91.5424 142.564 88.5879 142.12Z" fill="#3B455A"/>
<path d="M105.194 108.662C100.374 106.294 94.1321 104.484 87.1847 103.67C80.2373 102.857 73.7075 103.171 68.4046 104.353L57.0664 103.025L55.6221 114.647C56.1028 121.533 68.1046 128.288 83.5941 130.102C99.0835 131.916 112.516 128.14 114.823 121.58L116.533 109.989L105.194 108.662Z" fill="#A0D2F4"/>
<g opacity="0.1">
<path d="M105.524 118.613C105.524 118.613 95.9314 131.547 75.3291 128.599C77.9271 129.251 80.6992 129.763 83.5932 130.102C99.0827 131.916 112.515 128.14 114.822 121.58L116.532 109.989C116.007 113.854 111.801 116.893 105.524 118.613Z" fill="#272525"/>
</g>
<path d="M88.5944 93.2913C72.1731 91.3682 58.0575 95.7262 57.0659 103.025C56.3262 108.469 63.0978 114.011 73.4009 117.274L95.2063 94.4037C93.0955 93.9356 90.883 93.5596 88.5944 93.2913Z" fill="#4E83B7"/>
<path d="M99.3611 95.4814L77.5039 118.406C79.8791 118.97 82.3915 119.417 85.0036 119.723C101.425 121.646 115.54 117.288 116.532 109.989C117.291 104.399 110.132 98.7052 99.3611 95.4814Z" fill="#4E83B7"/>
<path d="M95.2598 94.4199L73.4541 117.291C74.7347 117.695 76.0695 118.063 77.4513 118.393L99.3065 95.47C98.0072 95.0822 96.6564 94.7311 95.2598 94.4199Z" fill="#A0D2F4"/>
<path d="M67.3391 171.663C64.6526 177.987 64.0655 185.275 64.6445 192.282C64.9579 196.076 65.6004 199.839 66.3926 203.571C67.1243 207.018 68.4383 210.547 68.7968 214.013C71.0928 213.974 73.3968 214.652 75.6593 214.289C75.7866 214.268 75.9186 214.242 76.0208 214.169C76.1478 214.077 76.2073 213.929 76.2607 213.788C76.7672 212.451 77.3302 211.343 77.6516 209.931C78.0198 208.316 78.3559 206.694 78.6606 205.067C79.273 201.799 79.7581 198.51 80.1176 195.209C80.84 188.58 81.0568 181.902 80.7631 175.245C80.7367 174.645 80.706 174.046 80.6716 173.447C80.0722 163.105 70.8846 163.317 67.3391 171.663Z" fill="#BCBEC0"/>
<path d="M68.5726 218.427C68.6237 218.532 68.6912 218.628 68.7781 218.714C69.7473 219.678 71.8809 220.684 73.1572 221.277C73.5381 221.5 73.9223 221.724 74.3429 221.874C75.3449 222.229 76.4592 222.129 77.524 222.009C78.538 221.895 79.7895 221.565 79.9452 220.627C80.0374 220.072 79.6763 219.549 79.3318 219.088C79.1207 218.805 78.8988 218.513 78.5767 218.343C78.3706 218.234 78.1364 218.182 77.9082 218.122C77.094 217.911 76.3138 217.586 75.6009 217.164C75.658 215.717 75.6055 214.266 75.4435 212.826C75.4669 213.035 71.5989 212.865 71.2551 212.824C69.6812 212.636 69.6541 213.484 69.2749 214.828C68.9922 215.832 68.1089 217.477 68.5726 218.427Z" fill="#20252D"/>
<path d="M81.8334 171.762C79.9951 178.342 80.3666 185.642 81.8588 192.533C83.4675 199.96 86.3144 207.073 89.2301 214.112C91.6768 213.777 94.1231 213.442 96.5698 213.107C97.7304 206.862 97.7405 200.183 97.6042 193.847C97.4598 187.137 96.8003 180.437 95.6293 173.814C95.524 173.219 95.4144 172.623 95.3005 172.028C93.3513 161.83 84.26 163.078 81.8334 171.762Z" fill="#BCBEC0"/>
<path d="M97.0957 217.813C95.511 218.741 93.9263 219.669 92.3417 220.597C91.9608 220.82 91.5766 221.045 91.1559 221.194C90.154 221.549 89.0397 221.449 87.9749 221.329C86.9606 221.216 85.7094 220.885 85.5537 219.947C85.4615 219.393 85.8226 218.869 86.1671 218.408C86.3782 218.126 86.6001 217.833 86.9222 217.663C87.1283 217.554 87.3625 217.502 87.5907 217.443C88.4049 217.231 89.1851 216.907 89.898 216.484C89.8409 215.037 89.8934 213.586 90.0554 212.146C91.7714 212.358 93.5248 212.306 95.2227 211.993C95.652 214.112 96.4402 215.958 97.0957 217.813Z" fill="#20252D"/>
<path d="M60.6535 122.84C60.8072 122.633 61.0478 122.488 61.4788 122.389C62.3972 122.176 63.288 121.86 64.1252 121.449C64.3467 121.341 64.5749 121.223 64.8255 121.213C65.5646 121.184 66.1943 121.899 66.0179 122.5C65.8312 123.136 64.9227 123.536 64.476 123.974C64.008 124.433 64.5262 125.187 65.1623 125.112C65.5034 125.072 65.7894 124.842 65.9768 124.575C66.0657 124.447 66.1496 124.3 66.3019 124.246C67.3985 123.857 66.2321 126.527 65.8235 126.813C65.1613 127.277 64.6845 127.913 64.2879 128.581C63.9221 129.197 63.2509 130.281 63.3377 130.964C63.0888 131.175 63.1887 131.484 63.0534 131.818C62.0588 131.285 60.9285 130.973 59.7818 130.915C59.5804 128.542 59.7618 126.142 60.3154 123.818C60.4163 123.393 60.4781 123.076 60.6535 122.84Z" fill="#EBCEB1"/>
<path d="M58.9523 131.3C58.4304 134.081 57.5631 136.873 57.077 139.66C56.4639 143.174 55.9981 146.709 55.6169 150.25C55.5093 151.249 55.4091 152.261 55.5765 153.253C55.8715 154.999 57.3142 156.569 58.7802 157.615C63.0294 160.647 67.5899 163.303 72.38 165.535C72.6336 165.653 75.0251 160.005 75.2102 159.483C75.9656 157.349 76.299 155.248 76.6763 153.044C76.698 152.917 76.7177 152.778 76.6475 152.666C76.553 152.516 76.3401 152.481 76.1541 152.461C73.0392 152.12 69.937 151.678 66.8556 151.134C65.5713 150.908 63.9428 150.966 63.2669 149.77C62.7584 148.87 62.9154 147.791 63.0488 146.826C63.2806 145.145 63.4754 143.46 63.6334 141.772C63.9555 138.329 64.1236 134.873 64.1369 131.417C64.1389 130.889 59.7308 129.845 59.1935 129.821C59.1267 130.314 59.0452 130.807 58.9523 131.3Z" fill="#427093"/>
<path d="M111.754 125.609C111.594 125.393 111.341 125.241 110.89 125.137C109.929 124.914 108.997 124.583 108.12 124.153C107.888 124.04 107.65 123.916 107.387 123.906C106.613 123.876 105.954 124.624 106.139 125.253C106.334 125.92 107.285 126.338 107.753 126.797C108.243 127.278 107.7 128.066 107.034 127.988C106.677 127.946 106.378 127.706 106.182 127.426C106.089 127.292 106.001 127.138 105.841 127.082C104.693 126.675 105.914 129.47 106.342 129.77C107.035 130.255 107.534 130.921 107.95 131.62C108.332 132.265 109.035 133.399 108.944 134.114C109.205 134.336 109.1 134.659 109.242 135.009C110.283 134.451 111.466 134.125 112.666 134.064C112.877 131.58 112.688 129.067 112.108 126.634C112.003 126.189 111.938 125.856 111.754 125.609Z" fill="#EBCEB1"/>
<path d="M112.302 133.944C112.776 136.473 113.565 139.012 114.007 141.547C114.565 144.743 114.988 147.958 115.335 151.179C115.432 152.088 115.524 153.008 115.372 153.91C115.103 155.499 113.791 156.926 112.458 157.878C108.593 160.636 104.445 163.051 100.089 165.08C99.8581 165.188 97.6828 160.051 97.5147 159.576C97.1729 158.61 96.756 157.663 96.4396 156.718C96.1359 155.811 96.4506 154.785 95.8265 153.959C95.4329 153.437 94.759 153.163 94.2906 152.697C94.0444 152.452 93.8773 152.024 94.1583 151.814C94.2689 151.732 94.4186 151.713 94.5599 151.702C95.601 151.62 96.6624 151.769 97.6306 152.133C98.8929 152.608 99.6463 152.835 101.003 152.64C102.377 152.442 103.747 152.224 105.113 151.983C106.281 151.777 107.762 151.83 108.376 150.742C108.839 149.923 108.696 148.942 108.575 148.064C108.364 146.536 108.187 145.003 108.043 143.468C107.75 140.336 107.597 137.193 107.585 134.05C107.584 133.569 111.593 132.62 112.081 132.599C112.143 133.047 112.217 133.495 112.302 133.944Z" fill="#427093"/>
<path d="M279.405 213.305C278.379 213.368 277.441 213.033 276.446 212.929C276.494 209.668 276.874 206.54 277.631 203.32C279.178 204.914 280.48 203.987 280.427 206.983C280.41 207.952 279.204 211.829 279.405 213.305Z" fill="#E5D1BD"/>
<path d="M276.222 211.306C275.055 210.919 274.792 213.506 274.783 214.115C274.778 214.48 274.824 214.853 274.724 215.207C274.614 215.596 274.338 215.923 274.068 216.238C273.503 216.897 272.938 217.556 272.373 218.216C272.119 218.513 271.86 218.816 271.724 219.173C271.387 220.058 271.944 221.108 272.847 221.532C275.979 223 278.84 219.443 279.518 217.095C279.622 216.736 279.698 216.369 279.773 216.003C279.93 215.246 280.547 213.596 280.224 212.856C279.846 211.993 278.703 212.618 277.953 212.293C277.258 211.991 276.694 211.464 276.222 211.306Z" fill="#20252D"/>
<path d="M298.472 159.562C295.552 166.942 292.183 174.161 290.262 181.887C287.888 191.431 284.061 200.737 282.097 210.303C280.828 210.341 279.556 210.291 278.295 210.152C276.849 209.994 274.555 209.632 274.033 208.166C273.766 207.417 274.049 206.199 274.09 205.421C274.22 202.928 274.412 200.438 274.609 197.95C275.168 190.909 275.551 183.782 276.946 176.841C278.413 169.539 279.818 162.212 281.109 154.911C281.776 151.137 282.598 147.387 283.609 143.68C283.869 142.725 286.582 132.879 287.114 132.958C293.434 133.892 299.345 135.835 304.849 138.865C305.384 139.16 305.9 139.511 306.086 140.035C306.272 140.559 306.104 141.011 305.931 141.487C304.286 146.025 302.093 150.281 300.34 154.802C299.729 156.375 299.11 157.947 298.472 159.562Z" fill="#3B455A"/>
<path d="M302.784 212.056C303.766 212.339 304.763 212.217 305.756 212.331C306.529 209.149 306.943 206.025 307.015 202.729C305.111 203.945 304.077 202.762 303.377 205.686C303.15 206.633 303.35 210.665 302.784 212.056Z" fill="#E5D1BD"/>
<path d="M306.69 211.329C306.82 213.094 308.453 214.901 309.395 216.436C309.506 216.616 309.619 216.804 309.638 217.012C309.666 217.319 309.483 217.606 309.307 217.867C309.062 218.231 308.795 218.614 308.378 218.796C307.967 218.976 307.488 218.928 307.039 218.866C306.288 218.761 305.543 218.624 304.805 218.456C304.622 218.414 304.434 218.369 304.279 218.268C304.096 218.148 303.978 217.962 303.865 217.783C303.286 216.861 302.803 216.211 302.754 215.146C302.703 214.046 302.77 212.9 302.476 211.825C302.331 211.304 302.14 210.638 302.607 210.318C302.967 210.071 303.678 210.336 304.093 210.373C304.824 210.437 305.489 210.354 306.18 210.666C306.321 210.729 306.459 210.807 306.552 210.924C306.645 211.043 306.68 211.182 306.69 211.329Z" fill="#20252D"/>
<path d="M297.726 155.667C298.714 163.476 300.179 171.225 300.109 179.154C300.023 188.949 301.409 198.827 300.919 208.554C302.144 208.866 303.393 209.092 304.654 209.23C306.1 209.389 308.422 209.533 309.297 208.221C309.745 207.55 309.775 206.304 309.931 205.538C310.429 203.086 310.868 200.623 311.3 198.161C312.524 191.192 313.939 184.179 314.324 177.127C314.729 169.708 315.201 162.279 315.778 154.9C316.076 151.086 316.218 147.262 316.164 143.437C316.151 142.452 315.983 132.291 315.446 132.252C309.066 131.794 302.829 132.404 296.717 134.161C296.123 134.332 295.533 134.561 295.22 135.031C294.908 135.501 294.958 135.977 295.007 136.477C295.468 141.246 296.533 145.859 297.104 150.634C297.302 152.296 297.51 153.959 297.726 155.667Z" fill="#3B455A"/>
<path d="M295.624 92.0402C295.521 92.0725 295.418 92.1066 295.317 92.1426C293.616 92.7416 292.17 93.8196 290.756 94.8806C288.631 96.4742 287.585 97.1728 286.764 99.5326C285.999 101.734 285.52 104.058 285.051 106.326C282.645 117.97 282.18 129.566 280.453 141.297C279.983 144.491 279.62 148.245 282.164 150.438C286.677 147.177 292.35 146.989 297.824 146.984C301.668 146.981 305.426 145.825 309.279 146.223C312.962 146.604 316.178 145.75 319.915 145.975C320.816 146.03 321.964 146.021 322.319 145.25C322.497 144.863 321.692 143.102 321.593 142.615C321.398 141.663 321.267 140.7 321.167 139.735C320.806 136.263 320.288 132.886 319.754 129.434C319.566 128.222 319.379 127.003 319.403 125.778C319.425 124.686 319.616 123.603 319.76 122.519C320.588 116.285 319.846 109.91 317.958 103.878C317.565 102.62 317.406 101.157 316.875 99.9793C316.386 98.8969 315.591 97.8161 314.862 96.861C313.317 94.8378 311.304 93.0984 308.766 92.2295C305.398 91.0761 301.44 91.0668 297.926 91.5523C297.146 91.6602 296.37 91.806 295.624 92.0402Z" fill="#4D7B9E"/>
<path d="M271.877 67.5823C272.243 67.5612 272.664 67.8168 272.791 68.1646C272.97 68.6513 272.771 69.1808 272.575 69.6617C271.785 71.5915 270.802 73.4417 270.598 75.485C270.486 76.6003 270.797 78.5664 269.173 78.8735C268.779 78.948 268.375 79.0231 267.977 78.9654C267.652 78.9182 267.35 78.7848 267.06 78.6406C266.834 78.5283 266.447 78.3998 266.373 78.1768C265.969 76.9254 266.468 74.7315 266.339 73.3554C266.261 72.5191 265.494 62.4674 265.984 62.4625C266.728 62.4442 267.472 62.4259 268.216 62.4076C268.36 62.4042 268.513 62.4023 268.638 62.469C268.792 62.5509 268.868 62.7153 268.93 62.8695C269.484 64.2397 269.768 65.7036 269.764 67.1669C269.763 67.5547 269.747 67.9654 269.955 68.3017C270.163 68.638 270.694 68.8334 271.009 68.5793C271.267 68.3724 271.259 67.9862 271.487 67.752C271.593 67.6437 271.731 67.5907 271.877 67.5823Z" fill="#E5D1BD"/>
<path d="M264.493 93.3575C264.568 86.8584 264.913 75.5086 266.334 75.4301C268.579 75.3082 270.85 75.6041 272.973 76.2953C272.877 80.8713 272.305 85.8006 273.821 90.2392C275.058 93.8656 279.172 93.8107 282.57 93.5833C287.322 93.2656 291.812 92.9672 296.564 92.2643C296.88 92.2174 297.223 92.1749 297.503 92.3182C297.81 92.4755 297.951 92.8102 298.05 93.1229C298.258 93.7849 298.382 94.4677 298.468 95.1527C298.789 97.7175 298.57 100.405 297.34 102.721C296.11 105.037 293.757 106.924 291.002 107.277C289.418 107.48 287.814 107.182 286.247 106.885C282.852 106.242 279.829 104.857 276.563 103.77C272.728 102.495 269.03 100.927 265.445 99.1365C265.127 98.9758 264.795 98.7968 264.627 98.4999C264.492 98.2617 264.484 97.9812 264.48 97.7123C264.474 97.3261 264.467 95.6413 264.493 93.3575Z" fill="#4D7B9E"/>
<path d="M298.482 91.8749C298.546 91.9894 298.63 92.0989 298.744 92.2028C299.191 92.6126 299.811 92.845 300.426 92.9266C301.237 93.0345 302.061 92.9095 302.866 92.7668C303.953 92.5742 303.915 91.9832 304.072 91.0671C304.159 90.5664 304.212 90.062 304.253 89.5567C304.275 89.2797 304.16 88.2876 304.35 88.0937C304.479 87.9619 305.004 88.0062 305.234 87.8949C305.599 87.718 305.904 87.392 306.123 87.0756C306.477 86.565 306.672 85.9762 306.862 85.3958C307.194 84.3857 307.525 83.3756 307.856 82.3659C308.195 81.3338 308.536 80.2933 308.644 79.2191C308.808 77.6 308.526 75.3147 307.21 74.1309C306.01 73.051 304.258 72.6729 302.652 72.4824C300.525 72.2302 298.32 72.5916 296.483 73.6398C295.741 74.0633 295.038 74.612 294.6 75.3668C293.925 76.5304 293.976 77.9831 294.049 79.3413C294.116 80.5949 294.182 81.8484 294.25 83.102C294.327 84.5439 294.52 86.2054 295.684 86.9875C296.301 87.4026 297.109 87.4913 297.638 88.0236C298.3 88.6906 298.257 89.691 298.285 90.5364C298.301 91.0191 298.262 91.4763 298.482 91.8749Z" fill="#EACDB0"/>
<path d="M305.216 75.6692C305.289 75.7868 305.351 75.9087 305.398 76.0356C305.646 76.7004 305.479 77.4505 305.72 78.1168C306.104 79.1734 307.432 79.8085 307.633 80.9082C307.796 81.8075 307.134 82.6621 307.079 83.5729C307.018 84.5675 307.704 85.5093 307.597 86.4911C307.505 87.3442 306.922 88.5426 306.374 89.2263C306.543 89.0144 308.081 89.0898 308.48 88.8637C309.092 88.5172 309.161 88.2988 309.343 87.7072C309.523 87.1199 309.384 86.5414 309.665 85.9399C310.01 85.2019 310.72 84.6602 310.968 83.8735C311.307 82.7996 310.692 81.6666 310.74 80.5486C310.813 78.8561 312.388 77.2619 311.816 75.6534C311.481 74.7097 310.494 74.1067 309.939 73.257C309.518 72.6118 309.362 71.8514 309.07 71.1475C308.778 70.4436 308.275 69.7391 307.496 69.5257C307.063 69.4072 306.597 69.4556 306.153 69.379C305.386 69.2465 304.749 68.7548 304.009 68.5228C302.952 68.1905 301.086 69.1836 300.469 70.0156C299.856 70.8417 300.166 71.5437 300.792 72.2742C301.835 73.4903 304.355 74.2863 305.216 75.6692Z" fill="#3B455A"/>
<path d="M289.53 68.3765C289.011 68.652 288.512 68.9567 288.038 69.2985C286.155 70.6582 284.712 72.7031 284.695 74.9181C284.684 76.2871 285.189 77.7531 284.508 78.9673C283.657 80.4846 281.372 80.8342 280.346 82.2547C278.232 85.18 283.046 89.425 280.981 92.3808C279.874 93.966 277.116 94.4474 276.785 96.3118C276.612 97.2915 277.254 98.2485 278.045 98.9158C279.574 100.203 281.775 100.766 283.798 100.387C284.783 100.202 286.943 99.4056 287.708 100.334C287.956 100.635 288.057 101.014 288.192 101.371C288.768 102.896 290.357 104.25 292.077 104.004C292.708 103.914 293.282 103.624 293.883 103.426C294.584 103.197 295.338 103.088 295.983 102.747C296.628 102.404 297.155 101.724 296.971 101.055C296.925 100.887 296.837 100.731 296.787 100.563C296.531 99.7043 297.306 98.8975 297.53 98.031C297.9 96.6031 296.348 95.0688 296.105 93.6359C295.803 91.8525 296.879 90.0706 296.009 88.3411C295.704 87.734 294.805 86.6138 295.495 85.9565C295.931 85.4099 296.959 85.2321 296.986 84.5528C296.998 84.2339 296.759 83.9621 296.569 83.6956C295.837 82.6639 295.762 81.289 296.259 80.1424C296.755 78.9959 297.778 78.0801 298.976 77.5416C300.38 76.9103 300.154 76.592 300.562 75.344C300.937 74.1956 301.639 73.9263 302.752 73.5075C303.752 73.1318 304.074 72.8976 304.442 72.0287C304.712 71.3931 305.045 70.6315 304.653 69.922C303.805 68.3849 301.081 66.0937 299.239 65.8492C297.639 65.637 296.027 66.0509 294.485 66.501C292.783 66.9983 291.072 67.557 289.53 68.3765Z" fill="#3B455A"/>
<path opacity="0.04" d="M306.001 80.4886C306.018 80.5556 306.015 80.6282 305.991 80.6918C305.726 81.3836 304.251 81.7946 303.596 81.4568C303.235 81.2706 303.045 80.8404 303.493 80.6102C303.699 80.5047 304.197 80.617 304.44 80.5916C304.802 80.5534 305.158 80.4662 305.492 80.3325C305.585 80.2953 305.684 80.2537 305.784 80.2696C305.899 80.2882 305.975 80.3812 306.001 80.4886Z" fill="black"/>
<path opacity="0.04" d="M299.379 81.0805C299.383 81.1491 299.367 81.2201 299.331 81.2788C298.94 81.9169 297.41 82.0822 296.829 81.6433C296.508 81.4013 296.402 80.9468 296.887 80.793C297.109 80.7222 297.579 80.9139 297.823 80.9282C298.186 80.9496 298.553 80.9214 298.908 80.8438C299.006 80.8224 299.111 80.7973 299.207 80.8293C299.316 80.8665 299.374 80.9704 299.379 81.0805Z" fill="black"/>
<path d="M320.132 136.54C329.468 127.871 329.468 113.817 320.132 105.149C310.796 96.4809 295.66 96.4809 286.324 105.149C276.988 113.818 276.988 127.872 286.324 136.54C295.66 145.208 310.796 145.208 320.132 136.54Z" fill="#EAC5B0"/>
<path d="M286.267 105.205C285.751 105.688 285.268 106.19 284.81 106.704L318.596 137.846C319.146 137.416 319.683 136.964 320.199 136.481C320.716 135.998 321.199 135.497 321.657 134.982L287.871 103.841C287.321 104.27 286.784 104.722 286.267 105.205Z" fill="#CEAE9F"/>
<path opacity="0.05" d="M315.042 101.55C316.685 105.116 317.601 109.04 317.618 113.162C317.671 126.559 308.203 137.925 295.123 141.736C297.676 142.589 300.43 143.05 303.301 143.04C316.504 142.995 327.168 133.021 327.119 120.762C327.086 112.528 322.229 105.358 315.042 101.55Z" fill="#272525"/>
<path d="M300.751 118.491C300.747 118.151 301.022 117.774 301.374 117.673C301.869 117.531 302.388 117.742 302.859 117.948C304.748 118.778 306.549 119.782 308.579 120.073C309.687 120.232 311.663 120.043 311.894 121.563C311.951 121.933 312.006 122.311 311.93 122.677C311.868 122.976 311.721 123.25 311.564 123.512C311.441 123.715 311.295 124.068 311.069 124.125C309.802 124.437 307.635 123.865 306.256 123.915C304.058 123.995 301.313 124.543 299.39 123.283C299.136 123.117 298.891 122.92 298.748 122.652C298.474 122.139 298.636 121.513 298.803 120.957C298.836 120.849 298.872 120.735 298.955 120.658C299.017 120.601 299.098 120.571 299.178 120.545C299.888 120.315 300.744 120.634 301.38 120.309C301.725 120.132 301.945 119.65 301.706 119.345C301.511 119.096 301.126 119.084 300.903 118.861C300.799 118.757 300.753 118.628 300.751 118.491Z" fill="#E5D1BD"/>
<path d="M323.877 127.242C317.394 126.848 306.083 125.959 306.07 124.638C306.053 122.549 306.453 120.458 307.242 118.524C307.328 118.313 311.427 118.871 311.861 118.903C313.535 119.029 315.217 119.116 316.897 119.044C320.114 118.907 323.298 117.541 326.506 118.506C328.182 119.01 329.723 120.208 330.278 121.87C330.739 123.251 330.589 126.647 329.016 127.376C328.772 127.489 328.491 127.482 328.223 127.473C327.837 127.459 326.155 127.381 323.877 127.242Z" fill="#4D7B9E"/>
<path d="M94.6611 37.6035L115.795 20.366C122.689 14.743 133.093 15.2744 139.033 21.5529C144.973 27.8313 144.2 37.4797 137.306 43.1027L116.173 60.3401L94.6611 37.6035Z" fill="#D3D5D7"/>
<path d="M95.2666 37.1094L74.1331 54.3468C67.2392 59.9698 66.4657 69.6179 72.4061 75.8966C78.3462 82.1751 88.7506 82.7068 95.6445 77.0835L116.778 59.846L95.2666 37.1094Z" fill="#2F7CB1"/>
<path opacity="0.66" d="M73.9131 66.8153C73.5065 63.017 75.4326 59.3069 78.7619 57.0376C80.4231 55.9053 78.4004 53.6727 76.7426 54.8028C72.4861 57.7043 70.265 62.5527 70.7778 67.3393C70.9789 69.2204 74.1139 68.6893 73.9131 66.8153Z" fill="#7E7979"/>
<path opacity="0.66" d="M72.6744 72.3177C73.07 72.3035 73.4456 72.1806 73.7372 71.9172L73.797 71.8633C74.0733 71.6139 74.2487 71.2431 74.2574 70.8892C74.2658 70.5507 74.1138 70.1453 73.8451 69.9123C73.5665 69.6704 73.199 69.4904 72.8021 69.5047C72.4065 69.519 72.031 69.6418 71.7389 69.9052L71.6791 69.9592C71.4028 70.2083 71.2278 70.5793 71.2191 70.9332C71.2107 71.2717 71.3627 71.6771 71.6314 71.9101C71.91 72.1521 72.2775 72.332 72.6744 72.3177Z" fill="#7E7979"/>
<g opacity="0.18">
<path opacity="0.66" d="M93.5169 72.5735L114.045 55.8299L114.651 55.3363L135.179 38.5927C140.007 34.6551 141.828 28.7446 140.45 23.3989C144.731 29.6067 143.52 38.0343 137.259 43.1417L116.73 59.8853L116.125 60.3789L95.5964 77.1225C88.7021 82.7454 78.298 82.214 72.358 75.9353C70.5775 74.0532 69.4045 71.8677 68.8145 69.5792C69.2468 70.2062 69.7339 70.8105 70.2785 71.3863C76.2186 77.665 86.6226 78.1964 93.5169 72.5735Z" fill="#7E7979"/>
</g>
<path d="M247.053 77.7642L212.32 28.5537C210.577 26.0841 211.32 22.7703 213.979 21.1519L247.303 0.875278C249.963 -0.74312 253.532 -0.0531993 255.275 2.41643L290.008 51.627C291.751 54.0963 291.008 57.4103 288.348 59.0287L255.024 79.3054C252.365 80.9238 248.796 80.2338 247.053 77.7642Z" fill="#A3AAB0"/>
<path d="M246.387 78.169L211.654 28.9585C209.911 26.4888 210.654 23.1751 213.313 21.5567L246.637 1.28006C249.297 -0.338334 252.866 0.351586 254.609 2.82122L289.342 52.0317C291.085 54.5014 290.342 57.8151 287.682 59.4335L254.359 79.7102C251.699 81.3286 248.13 80.6386 246.387 78.169Z" fill="#A0D2F4"/>
<path opacity="0.03" d="M249.897 80.4451C251.377 80.7646 252.988 80.545 254.358 79.7111L287.681 59.4345C290.341 57.8161 291.084 54.5024 289.341 52.0327L254.608 2.82221C253.804 1.68341 252.612 0.924308 251.3 0.594238L249.897 80.4451Z" fill="#272525"/>
<path opacity="0.1" d="M236.463 30.6672C237.225 27.2723 234.878 23.9474 231.221 23.2407C227.565 22.534 223.984 24.7131 223.223 28.108C222.462 31.5028 224.809 34.8278 228.465 35.5345C232.121 36.2412 235.702 34.062 236.463 30.6672Z" fill="#272525"/>
<path d="M235.254 30.4333C236.016 27.0384 233.669 23.7135 230.012 23.0068C226.356 22.3 222.775 24.4792 222.014 27.8741C221.253 31.2689 223.6 34.5939 227.256 35.3006C230.912 36.0073 234.493 33.8281 235.254 30.4333Z" fill="#2F7CB1"/>
<path d="M222.022 27.8749C221.98 28.0632 221.948 28.2515 221.925 28.4392L235.109 30.9879C235.168 30.8074 235.22 30.6231 235.262 30.4348C235.305 30.2462 235.336 30.0582 235.359 29.8705L222.175 27.3218C222.116 27.5023 222.064 27.6866 222.022 27.8749Z" fill="#749DB4"/>
<path opacity="0.1" d="M252.588 23.0451C255.793 21.2645 256.837 17.4088 254.919 14.4332C253.001 11.4576 248.848 10.4888 245.644 12.2695C242.439 14.0501 241.395 17.9059 243.313 20.8815C245.231 23.8571 249.384 24.8258 252.588 23.0451Z" fill="#272525"/>
<path opacity="0.1" d="M249.072 47.291C249.221 43.8261 246.316 40.9054 242.584 40.7673C238.853 40.6293 235.707 43.3263 235.558 46.7912C235.41 50.2561 238.314 53.1768 242.046 53.3148C245.778 53.4529 248.923 50.7559 249.072 47.291Z" fill="#272525"/>
<path opacity="0.1" d="M266.544 39.585C269.078 37.0384 268.91 33.066 266.167 30.7125C263.424 28.359 259.146 28.5156 256.611 31.0622C254.076 33.6089 254.245 37.5812 256.988 39.9347C259.73 42.2883 264.009 42.1317 266.544 39.585Z" fill="#272525"/>
<path opacity="0.1" d="M260.9 65.2873C261.661 61.8925 259.314 58.5675 255.658 57.8608C252.002 57.1541 248.421 59.3332 247.659 62.7281C246.898 66.1229 249.245 69.4479 252.902 70.1546C256.558 70.8613 260.139 68.6822 260.9 65.2873Z" fill="#272525"/>
<path opacity="0.1" d="M280.275 52.9838C280.694 49.5379 278.026 46.4286 274.315 46.0388C270.604 45.649 267.255 48.1265 266.835 51.5723C266.415 55.0181 269.084 58.1275 272.795 58.5173C276.506 58.907 279.855 56.4296 280.275 52.9838Z" fill="#272525"/>
<path d="M252.878 21.7007C255.412 19.1541 255.244 15.1817 252.501 12.8282C249.758 10.4747 245.48 10.6313 242.945 13.1779C240.41 15.7246 240.579 19.697 243.322 22.0505C246.064 24.404 250.343 24.2474 252.878 21.7007Z" fill="#2F7CB1"/>
<path d="M241.289 16.1517C241.247 16.3401 241.216 16.5284 241.192 16.716L254.376 19.2648C254.435 19.0842 254.488 18.9 254.53 18.7117C254.572 18.523 254.603 18.3351 254.627 18.1474L241.443 15.5986C241.384 15.7792 241.331 15.9634 241.289 16.1517Z" fill="#749DB4"/>
<path d="M247.712 48.0822C248.473 44.6874 246.126 41.3624 242.469 40.6557C238.813 39.949 235.232 42.1282 234.471 45.523C233.71 48.9179 236.057 52.2428 239.713 52.9495C243.369 53.6562 246.95 51.4771 247.712 48.0822Z" fill="#2F7CB1"/>
<path d="M234.48 45.5238C234.438 45.7121 234.406 45.9004 234.383 46.0881L247.567 48.6368C247.626 48.4563 247.678 48.272 247.72 48.0837C247.762 47.8951 247.794 47.7071 247.817 47.5194L234.633 44.9707C234.574 45.1512 234.522 45.3355 234.48 45.5238Z" fill="#749DB4"/>
<path d="M267.051 35.9844C267.588 32.5528 265.027 29.3667 261.331 28.868C257.635 28.3694 254.204 30.747 253.667 34.1786C253.13 37.6102 255.69 40.7963 259.386 41.295C263.082 41.7936 266.514 39.416 267.051 35.9844Z" fill="#2F7CB1"/>
<path d="M253.745 33.8021C253.703 33.9904 253.672 34.1787 253.648 34.3664L266.832 36.9152C266.891 36.7346 266.944 36.5503 266.986 36.362C267.028 36.1734 267.059 35.9854 267.083 35.7978L253.899 33.249C253.84 33.4296 253.788 33.6135 253.745 33.8021Z" fill="#749DB4"/>
<path d="M259.8 64.473C260.22 61.0272 257.552 57.9178 253.84 57.5281C250.129 57.1383 246.78 59.6157 246.361 63.0615C245.941 66.5074 248.609 69.6167 252.32 70.0065C256.031 70.3963 259.38 67.9188 259.8 64.473Z" fill="#2F7CB1"/>
<path d="M246.458 62.496C246.416 62.6843 246.385 62.8726 246.361 63.0603L259.545 65.609C259.604 65.4285 259.657 65.2442 259.699 65.0559C259.741 64.8673 259.772 64.6793 259.796 64.4916L246.612 61.9429C246.553 62.1237 246.501 62.3077 246.458 62.496Z" fill="#749DB4"/>
<path d="M278.955 53.3313C279.716 49.9364 277.369 46.6114 273.713 45.9047C270.056 45.198 266.475 47.3772 265.714 50.772C264.953 54.1669 267.3 57.4918 270.956 58.1986C274.613 58.9053 278.194 56.7261 278.955 53.3313Z" fill="#2F7CB1"/>
<path d="M265.724 50.7728C265.682 50.9611 265.65 51.1494 265.627 51.3371L278.811 53.8859C278.87 53.7053 278.922 53.521 278.964 53.3327C279.007 53.1441 279.038 52.9561 279.061 52.7685L265.878 50.2197C265.818 50.4003 265.766 50.5842 265.724 50.7728Z" fill="#749DB4"/>
<path opacity="0.3" d="M234.365 27.8764C234.201 27.2849 233.933 26.7072 233.553 26.1678C231.707 23.553 227.95 22.8041 225.113 24.4659C228.562 23.7329 232.286 24.9939 234.365 27.8764Z" fill="#7E7979"/>
<path opacity="0.3" d="M253.783 16.0605C253.619 15.4689 253.351 14.8913 252.97 14.3519C251.125 11.737 247.367 10.9882 244.531 12.65C247.98 11.917 251.704 13.178 253.783 16.0605Z" fill="#7E7979"/>
<path opacity="0.3" d="M246.969 45.7363C246.805 45.1447 246.538 44.5671 246.157 44.0276C244.311 41.4128 240.554 40.664 237.718 42.3258C241.166 41.5927 244.89 42.8538 246.969 45.7363Z" fill="#7E7979"/>
<path opacity="0.3" d="M266.391 33.9194C266.227 33.3278 265.959 32.7502 265.578 32.2107C263.733 29.5959 259.975 28.8471 257.139 30.5089C260.587 29.7759 264.311 31.0369 266.391 33.9194Z" fill="#7E7979"/>
<path opacity="0.3" d="M258.948 62.7075C258.784 62.1159 258.517 61.5383 258.136 60.9988C256.29 58.384 252.533 57.6352 249.696 59.297C253.145 58.5639 256.869 59.825 258.948 62.7075Z" fill="#7E7979"/>
<path opacity="0.3" d="M278.368 50.8911C278.204 50.2995 277.937 49.7219 277.556 49.1824C275.71 46.5676 271.952 45.8187 269.116 47.4806C272.565 46.7475 276.289 48.0086 278.368 50.8911Z" fill="#7E7979"/>
</svg>
