<svg width="393" height="408" viewBox="0 0 393 408" fill="none" xmlns="http://www.w3.org/2000/svg">
<path d="M74.2883 351C59.5541 351 47.5679 338.264 47.5679 322.609V133.697L20.2026 55.3127C18.407 50.1696 18.6304 44.3663 20.8175 39.395L24.8097 30.3213C25.0094 29.2233 25.3818 28.1557 25.9223 27.1654C27.3486 24.5552 29.7972 22.7616 32.5976 22.2699L158.839 0.136397C159.359 0.0454587 159.879 0 160.391 0C164.228 0 167.76 2.47554 169.22 6.36401L174.789 21.2106H331.222C345.947 21.2106 357.926 33.9421 357.926 49.5886V322.607C357.926 331.484 354.096 339.705 347.416 345.166C347.362 345.21 347.308 345.254 347.252 345.296C346.393 345.968 345.588 346.539 344.793 347.041C340.712 349.628 336.014 351 331.222 351H74.2883Z" fill="white"/>
<path d="M348.821 49.5884V322.607C348.821 328.518 346.143 333.789 342.022 337.157C341.483 337.578 340.929 337.982 340.342 338.353C337.791 339.969 334.811 340.895 331.626 340.895H74.6923C65.2308 340.895 57.481 332.66 57.481 322.607V49.5884C57.481 39.5346 65.2308 31.3164 74.6923 31.3164H331.626C341.087 31.3164 348.821 39.5346 348.821 49.5884Z" fill="#90ACC1"/>
<path d="M241.641 258.359L154.323 25.5327L46.0862 44.5103L34.8656 32.2403L29.8353 43.675C28.7117 46.2297 28.5991 49.1566 29.5215 51.7988L127.22 331.648C128.612 335.634 132.701 337.759 136.515 336.483L252.757 297.574C254.785 296.896 256.443 295.324 257.308 293.26L262.416 281.079L241.641 258.359Z" fill="black"/>
<path d="M34.5503 32.2397L136.175 323.335L262.416 281.078L160.792 10.1045L34.5503 32.2397Z" fill="#4D7B9E"/>
<path d="M42.124 41.1809L86.127 167.222L152.571 302.63L233.903 270.811L200.642 128.955L159.974 20.5176L42.124 41.1809Z" fill="#D7E8F4"/>
<path d="M70.686 32.7436L82.9955 39.7863L129.862 30.2276L136.49 18.6582L70.686 32.7436Z" fill="#4D7B9E"/>
<path d="M35.5899 56.5115L35.5852 56.5233C35.3189 57.2525 35.3158 58.0912 35.5773 58.8305L45.6378 87.2505C46.2274 88.9143 47.8978 89.4667 49.0452 88.3738C49.8646 87.5941 50.1467 86.2064 49.7251 85.0174L39.6693 56.5856C38.8864 54.3711 36.3919 54.3239 35.5899 56.5115Z" stroke="#4D7B9E" stroke-width="0.5385" stroke-miterlimit="10" stroke-linecap="round" stroke-linejoin="round"/>
<path d="M49.6217 98.7135L49.6169 98.7253C49.3507 99.4545 49.3475 100.293 49.609 101.032L59.6695 129.452C60.2591 131.118 61.9295 131.669 63.0769 130.576C63.8963 129.796 64.1784 128.408 63.7568 127.219L53.701 98.7876C52.9181 96.5714 50.4236 96.5242 49.6217 98.7135Z" stroke="#4D7B9E" stroke-width="0.5385" stroke-miterlimit="10" stroke-linecap="round" stroke-linejoin="round"/>
<path d="M156.757 125.548C156.757 125.548 157.291 125.354 158.25 125.046C164.58 123.015 187.531 117.363 200.319 127.629L255.259 274.378L137.449 315.758L85.7437 166.578C85.7437 166.578 96.2163 155.103 106.687 147.452L156.757 125.548Z" fill="white"/>
<path d="M137.334 59.0749C139.754 63.2951 141.643 67.9044 143.321 72.2695C145.298 77.4092 147.154 82.6028 149.279 87.6835C150.631 90.9321 150.783 94.5663 149.716 97.9041C148.523 101.644 145.905 104.714 142.455 106.447L137.05 109.287L137.109 109.406L139.976 115.196L141.036 117.341L143.645 121.949L137.12 137.028L112.225 134.15L102.528 112.762C94.117 115.686 85.1421 110.641 85.4369 102.023C85.6318 96.3783 90.0282 95.1203 93.6495 95.0411C90.8206 92.5353 88.4322 89.4265 86.6778 85.7823C79.6697 71.227 85.5352 53.6253 99.7812 46.463C107.227 42.7194 116.051 42.162 123.709 45.5991C129.773 48.3189 134.044 53.339 137.334 59.0749Z" fill="#E8A19A"/>
<path d="M108.837 75.0124C108.064 75.9909 107.696 77.1309 108.119 77.8887C108.289 78.1919 108.577 78.426 108.951 78.5624C109.265 78.6769 109.647 78.7224 110.064 78.6348C110.642 78.5119 111.21 78.1498 111.727 77.7911C112.73 77.0922 113.685 76.3394 114.574 75.5412C114.987 75.1724 115.392 74.7834 115.655 74.3623C116.18 73.5237 116.044 72.6901 115.592 72.1192C115.235 71.6696 114.608 71.3311 113.787 71.5214C112.21 71.8919 109.755 73.8487 108.837 75.0124Z" fill="black"/>
<path d="M133.153 62.4471C134.377 62.3023 135.516 62.5919 135.917 63.3632C136.077 63.6714 136.117 64.047 136.031 64.4427C135.958 64.7745 135.792 65.1298 135.496 65.443C135.085 65.8775 134.483 66.1739 133.909 66.4282C132.795 66.9216 131.662 67.3443 130.527 67.6862C130.001 67.8445 129.464 67.9876 128.976 67.991C128.001 67.9961 127.384 67.4319 127.153 66.738C126.971 66.189 127.026 65.4666 127.624 64.8603C128.768 63.6933 131.7 62.6189 133.153 62.4471Z" fill="black"/>
<path d="M130.624 90.8328C129.299 91.0248 127.911 90.7839 126.735 90.1288C126.484 89.9891 126.391 89.6691 126.527 89.4131C126.663 89.1572 126.977 89.0612 127.228 89.2009C128.511 89.915 130.101 90.0396 131.473 89.5361C132.849 89.0325 133.996 87.9042 134.542 86.5199C134.648 86.2505 134.947 86.1191 135.214 86.2286C135.478 86.338 135.607 86.6446 135.499 86.9157C134.844 88.5745 133.47 89.925 131.822 90.5313C131.434 90.6728 131.031 90.7738 130.624 90.8328Z" fill="black"/>
<path d="M139.977 115.194C124.747 121.028 118.054 116.631 118.054 116.631C127.501 114.342 134.781 110.669 137.11 109.403L139.977 115.194Z" fill="black"/>
<path d="M100.992 108.096C100.975 108.104 100.956 108.113 100.937 108.118C100.72 108.19 100.485 108.067 100.416 107.845C99.4694 104.858 97.5977 102.17 95.1443 100.275C93.6863 99.1504 92.2156 98.4549 90.7718 98.209C89.1014 97.9244 87.4531 98.2645 86.255 99.1621C86.0648 99.2952 85.8112 99.2581 85.6749 99.0678C85.5402 98.8775 85.5814 98.6131 85.7669 98.4751C87.1425 97.4528 89.0174 97.0503 90.9081 97.372C92.485 97.6398 94.0778 98.3892 95.6436 99.5983C98.23 101.596 100.206 104.432 101.203 107.584C101.268 107.788 101.175 108.005 100.992 108.096Z" fill="black"/>
<path d="M118.825 82.8429C119.562 84.3737 118.945 86.2245 117.448 86.9772C115.95 87.73 114.139 87.1002 113.402 85.5694C112.665 84.0386 113.281 82.1878 114.779 81.4351C116.276 80.6823 118.088 81.3121 118.825 82.8429Z" fill="black"/>
<path d="M137.79 72.9435C138.527 74.4743 137.911 76.3251 136.413 77.0779C134.915 77.8307 133.104 77.2008 132.367 75.67C131.63 74.1392 132.246 72.2884 133.744 71.5356C135.242 70.7829 137.053 71.4127 137.79 72.9435Z" fill="black"/>
<path d="M86.0618 98.9422C86.1585 98.2215 86.7988 97.7398 87.4074 97.4013C91.1381 95.3266 95.8688 95.4427 99.5076 97.696C99.3951 95.3367 98.414 92.6826 97.3744 90.5927C99.7358 89.914 101.324 87.2667 102.612 85.0589C107.636 76.4534 110.662 65.8961 108.145 56.1286C106.963 51.5379 104.631 47.3833 102.165 43.4106C95.3759 46.7585 89.1491 50.6706 83.3914 55.7514C80.965 57.8918 78.6004 60.2394 77.1471 63.2134C74.4418 68.7472 75.342 75.5507 77.5418 81.3338C79.7399 87.1151 83.7179 93.2249 86.0618 98.9422Z" fill="black"/>
<path d="M94.5088 48.9878C101.094 41.5527 110.79 37.351 120.391 37.7721C122.564 37.868 124.746 38.1931 126.779 39.0115C130.878 40.6636 134.039 44.1664 136.908 47.6877C136.883 48.8632 135.743 49.818 134.784 50.4058C129.9 53.4 124.505 55.4529 118.942 56.433C114.541 57.2094 109.986 57.3104 105.649 56.1989C101.312 55.0874 97.3773 52.6186 94.5088 48.9878Z" fill="black"/>
<path d="M164.608 212.132C164.331 211.797 164.015 211.443 163.7 211.108L108.463 148.849L107.146 147.351L107.072 147.272L106.682 146.839L107.275 145.854L109.055 142.82L110.613 140.161L110.131 130.152L110.446 130.231L133.512 135.71L134.661 135.986H136.292L136.718 134.31L141.038 117.347L150.531 125.208L155.704 125.484L156.761 125.543L156.798 125.957L164.289 208.57L164.608 212.132Z" fill="#4D7B9E"/>
<path d="M110.86 141.11L131.231 166.408L136.303 135.981L156.511 151.28L150.538 125.201" stroke="black" stroke-width="0.9098" stroke-miterlimit="10" stroke-linecap="round" stroke-linejoin="round"/>
<path d="M90.4883 160.411L108.65 162.758L99.3237 183.883C99.3237 183.883 150.129 194.75 164.609 212.136C179.09 229.522 199.707 290.29 199.707 290.29" stroke="black" stroke-width="0.9098" stroke-miterlimit="10" stroke-linecap="round" stroke-linejoin="round"/>
<path d="M180.073 121.55L166.574 144.501L184.001 149.977C184.001 149.977 156.266 185.186 167.311 215.178" stroke="black" stroke-width="0.9098" stroke-miterlimit="10" stroke-linecap="round" stroke-linejoin="round"/>
<path d="M136.303 135.981L165.919 212.831" stroke="black" stroke-width="0.9098" stroke-miterlimit="10" stroke-linecap="round" stroke-linejoin="round"/>
<path d="M185.555 197.182L210.099 187.098C210.099 187.098 225.806 216.655 213.372 222.219C200.936 227.783 185.555 197.182 185.555 197.182Z" stroke="black" stroke-width="0.9098" stroke-miterlimit="10" stroke-linecap="round" stroke-linejoin="round"/>
<path d="M155.708 125.48C155.912 125.56 156.115 125.639 156.301 125.736C156.467 125.795 156.635 125.874 156.802 125.954C162.55 128.515 167.444 132.259 171.431 136.218C174.175 138.897 176.512 141.694 178.403 144.237C179.626 145.873 180.794 147.567 181.888 149.301C182.295 149.931 182.685 150.563 183.075 151.213C187.877 159.113 191.605 167.684 194.998 175.978V175.999C195.109 176.234 195.202 176.452 195.313 176.687C195.349 176.805 195.388 176.905 195.443 177.002C195.443 177.022 195.443 177.041 195.462 177.041C195.628 177.396 195.963 177.533 196.315 177.435C196.315 177.415 196.351 177.415 196.37 177.396C196.389 177.376 196.407 177.376 196.407 177.358C196.758 177.199 196.888 176.766 196.741 176.413C196.686 176.275 196.63 176.137 196.575 176.019C196.556 175.94 196.519 175.881 196.481 175.801C191.975 164.788 186.913 153.222 179.534 143.293C177.55 140.633 175.103 137.717 172.211 134.899C168.391 131.156 163.756 127.59 158.359 125.009L155.708 125.48Z" fill="black"/>
<path d="M234.911 240.229C234.892 240.236 234.873 240.241 234.852 240.246C223.348 243.014 210.081 237.388 201.052 225.916C192.395 214.913 188.681 200.531 191.117 187.444C191.975 182.836 193.504 179.051 195.661 176.188C195.906 175.859 196.357 175.809 196.664 176.07C196.973 176.331 197.022 176.809 196.775 177.136C194.762 179.807 193.33 183.372 192.517 187.737C190.163 200.379 193.762 214.288 202.146 224.941C210.836 235.982 223.549 241.408 234.535 238.765C234.92 238.673 235.302 238.929 235.39 239.338C235.474 239.725 235.261 240.111 234.911 240.229Z" fill="#87A2FF"/>
<path d="M214.382 250.558C214.238 250.607 214.08 250.607 213.928 250.548C213.555 250.407 213.363 249.972 213.496 249.578C219.685 231.19 218.43 209.808 210.138 192.38C206.103 183.899 201.163 178.737 195.455 177.038C195.074 176.925 194.854 176.506 194.96 176.102C195.066 175.699 195.463 175.463 195.841 175.576C201.951 177.395 207.19 182.818 211.414 191.694C219.879 209.486 221.159 231.316 214.84 250.089C214.763 250.323 214.588 250.489 214.382 250.558Z" fill="#87A2FF"/>
<path d="M216.869 248.98C217.739 251.905 216.213 255.026 213.46 255.952C210.707 256.876 207.77 255.255 206.899 252.329C206.029 249.404 207.555 246.284 210.308 245.357C213.062 244.433 215.999 246.055 216.869 248.98Z" fill="black"/>
<path d="M238.759 237.287C239.629 240.213 238.102 243.333 235.35 244.259C232.597 245.184 229.66 243.562 228.788 240.637C227.918 237.712 229.445 234.591 232.197 233.665C234.952 232.74 237.889 234.362 238.759 237.287Z" fill="black"/>
<path d="M134.959 231.954C134.903 232.033 134.829 232.112 134.754 232.171C134.699 232.191 134.624 232.23 134.569 232.23C134.514 232.25 134.458 232.268 134.403 232.268C134.143 232.289 133.902 232.151 133.753 231.913C133.216 231.007 132.677 230.061 132.158 229.134C124.649 216.112 117.196 202.083 112.392 187.168C112.356 187.068 112.337 186.971 112.3 186.873C109.964 179.544 108.37 172.293 107.554 165.24C107.424 164.352 107.33 163.467 107.277 162.581C106.795 157.36 106.739 152.276 107.147 147.35C107.128 147.311 107.128 147.291 107.147 147.252C107.183 146.779 107.221 146.326 107.277 145.853L109.056 142.818C108.871 144.06 108.722 145.321 108.611 146.601C108.555 147.35 108.5 148.098 108.462 148.847C107.739 160.629 109.483 173.397 113.654 186.4C113.784 186.814 113.914 187.227 114.061 187.641C118.827 202.102 126.076 215.718 133.399 228.405C133.919 229.311 134.456 230.217 134.975 231.125C135.127 231.383 135.108 231.718 134.959 231.954Z" fill="black"/>
<path d="M152.598 237.089C154.885 244.776 150.876 252.978 143.641 255.408C136.406 257.838 128.688 253.577 126.401 245.89C124.114 238.202 128.124 230.001 135.358 227.569C142.592 225.14 150.311 229.401 152.598 237.089Z" fill="black"/>
<path d="M149.107 238.259C147.419 232.624 141.764 229.492 136.461 231.284C135.942 231.461 135.423 231.678 134.959 231.954C134.755 232.054 134.569 232.151 134.403 232.269C130.434 234.731 128.45 239.874 129.897 244.701C131.566 250.336 137.24 253.468 142.542 251.695C147.828 249.903 150.776 243.894 149.107 238.259ZM142.118 250.238C137.557 251.774 132.699 249.094 131.252 244.248C129.824 239.421 132.346 234.258 136.907 232.741C141.449 231.203 146.289 233.884 147.734 238.711C149.181 243.559 146.66 248.721 142.118 250.238Z" fill="#FDE4F3"/>
<path d="M339.785 51.2393H205.445C203.508 51.2393 201.938 52.9082 201.938 54.9661V102.549C201.938 104.607 203.508 106.276 205.445 106.276H212.77L196.543 125.767L225.368 106.276H339.785C341.722 106.276 343.292 104.607 343.292 102.549V54.9661C343.292 52.9082 341.722 51.2393 339.785 51.2393Z" fill="white"/>
<path d="M262.634 65.2852H333.04" stroke="black" stroke-width="0.9098" stroke-miterlimit="10" stroke-linecap="round" stroke-linejoin="round"/>
<path d="M262.634 71.5908H333.04" stroke="black" stroke-width="0.9098" stroke-miterlimit="10" stroke-linecap="round" stroke-linejoin="round"/>
<path d="M262.634 77.8979H333.04" stroke="black" stroke-width="0.9098" stroke-miterlimit="10" stroke-linecap="round" stroke-linejoin="round"/>
<path d="M262.634 84.2017H333.04" stroke="black" stroke-width="0.9098" stroke-miterlimit="10" stroke-linecap="round" stroke-linejoin="round"/>
<path d="M262.634 90.5088H333.04" stroke="black" stroke-width="0.9098" stroke-miterlimit="10" stroke-linecap="round" stroke-linejoin="round"/>
<path d="M262.634 96.8164H333.04" stroke="black" stroke-width="0.9098" stroke-miterlimit="10" stroke-linecap="round" stroke-linejoin="round"/>
<path d="M236.671 61.7389L229.077 61.6001L228.5 97.2428L236.094 97.3816L236.671 61.7389Z" fill="#426E8F"/>
<path d="M249.246 83.8511L249.377 75.7803L215.834 75.1672L215.703 83.238L249.246 83.8511Z" fill="#426E8F"/>
<path d="M292.687 179.434C292.687 179.434 269.101 153.198 252.275 167.88C216.998 198.659 292.199 256.39 292.199 256.39C292.199 256.39 374.339 195.426 331.457 166.458C313.616 154.405 292.687 179.434 292.687 179.434Z" fill="#426E8F"/>
<path d="M247.88 214.654L255.203 202.216L261.582 215.612L272.922 187.544C272.922 187.544 277.41 236.343 277.646 235.386C277.882 234.43 284.261 201.577 284.261 201.577L286.624 214.336H307.886L315.21 184.354L318.518 229.325L320.408 210.508H345.45" stroke="#FDE4F3" stroke-width="0.6581" stroke-miterlimit="10" stroke-linecap="round" stroke-linejoin="round"/>
<path d="M273.694 114.725V157.737" stroke="black" stroke-width="0.7656" stroke-miterlimit="10" stroke-linecap="round" stroke-linejoin="round"/>
<path d="M285.466 123.338L260.838 150.167" stroke="black" stroke-width="0.7656" stroke-miterlimit="10" stroke-linecap="round" stroke-linejoin="round"/>
<path d="M293.932 136.23H253.454" stroke="black" stroke-width="0.7656" stroke-miterlimit="10" stroke-linecap="round" stroke-linejoin="round"/>
<path d="M286.395 149.342L260.838 123.502" stroke="black" stroke-width="0.7656" stroke-miterlimit="10" stroke-linecap="round" stroke-linejoin="round"/>
<path d="M321.171 279.26V322.272" stroke="black" stroke-width="0.7656" stroke-miterlimit="10" stroke-linecap="round" stroke-linejoin="round"/>
<path d="M332.945 287.872L308.316 314.701" stroke="black" stroke-width="0.7656" stroke-miterlimit="10" stroke-linecap="round" stroke-linejoin="round"/>
<path d="M341.412 300.766H300.932" stroke="black" stroke-width="0.7656" stroke-miterlimit="10" stroke-linecap="round" stroke-linejoin="round"/>
<path d="M333.873 313.877L308.316 288.037" stroke="black" stroke-width="0.7656" stroke-miterlimit="10" stroke-linecap="round" stroke-linejoin="round"/>
<path d="M88.0991 279.26V322.272" stroke="black" stroke-width="0.7656" stroke-miterlimit="10" stroke-linecap="round" stroke-linejoin="round"/>
<path d="M99.8715 287.872L75.2432 314.701" stroke="black" stroke-width="0.7656" stroke-miterlimit="10" stroke-linecap="round" stroke-linejoin="round"/>
<path d="M108.339 300.766H67.8608" stroke="black" stroke-width="0.7656" stroke-miterlimit="10" stroke-linecap="round" stroke-linejoin="round"/>
<path d="M100.802 313.877L75.2432 288.037" stroke="black" stroke-width="0.7656" stroke-miterlimit="10" stroke-linecap="round" stroke-linejoin="round"/>
</svg>
