<svg width="393" height="484" viewBox="0 0 393 484" fill="none" xmlns="http://www.w3.org/2000/svg">
<path d="M42.973 424.998C42.4505 424.998 41.9281 424.977 41.4039 424.952C37.5241 424.739 33.8208 423.832 30.3276 422.255C29.4804 421.87 28.7037 421.481 27.9518 421.062C18.1024 415.486 12.0303 405.084 12.0303 393.869V87.9955C12.0303 75.6262 19.3397 64.4271 30.6524 59.4624C31.8368 58.9403 32.9788 58.5177 34.1315 58.1732C36.9257 57.3174 39.9317 56.8681 42.973 56.8681H161.279C165.658 53.7838 170.691 51.8519 175.755 51.3316C177.111 48.9913 178.86 46.7984 180.966 44.8381C185.19 40.905 190.019 38.5948 193.756 37.0234C201.794 33.6425 209.157 32 216.263 32C217.977 32 219.686 32.1012 221.345 32.2983C228.977 33.2092 235.9 36.2811 241.197 40.9263C245.254 39.401 249.793 38.6143 254.686 38.6143C257.087 38.6143 259.562 38.8061 262.036 39.1843C268.223 40.129 273.254 41.9686 277.412 44.8132C281.704 47.743 285.211 51.9389 287.608 56.8681H347.035C364.087 56.8681 377.961 70.8319 377.961 87.9955V393.871C377.961 403.598 373.533 412.613 365.808 418.608C365.718 418.677 365.628 418.744 365.538 418.812C364.511 419.556 363.62 420.151 362.732 420.678C358.031 423.498 352.591 425 347.036 425L42.973 424.998Z" fill="white"/>
<path d="M367.959 86.635V392.51C367.959 399.116 364.799 405.029 359.927 408.811C359.292 409.273 358.621 409.734 357.933 410.143C354.914 411.954 351.384 412.984 347.624 412.984H325.234L201.149 375.12L59.938 412.984H43.5629C43.2099 412.984 42.8568 412.966 42.5038 412.948C39.9267 412.806 37.4909 412.185 35.2491 411.173C34.702 410.924 34.1724 410.658 33.6605 410.374C27.4472 406.858 23.2109 400.163 23.2109 392.51V86.635C23.2109 78.2716 28.2768 71.0269 35.4786 67.8662C36.2023 67.5466 36.9437 67.2625 37.7203 67.0317C39.5737 66.4635 41.533 66.1616 43.5629 66.1616H347.624C358.815 66.1616 367.959 75.3773 367.959 86.635Z" fill="#4D7B9E"/>
<path d="M352.143 306.373C349.725 292.647 350.519 278.247 351.278 264.343C352.266 246.214 353.29 227.498 347.236 210.15C338.799 185.983 316.187 167.339 290.963 163.787C282.897 162.651 274.601 162.953 266.587 163.237C257.285 163.574 247.665 163.93 238.486 161.976C223.465 158.816 210.05 149.138 201.718 136.211C207.879 133.832 213.651 130.192 218.558 124.954C224.595 118.508 227.825 110.677 227.419 103.451C226.925 94.803 220.817 87.2742 213.209 85.9425C205.708 84.6107 197.323 89.6003 193.705 97.502C189.98 105.581 191.234 114.726 192.928 120.959C194.305 126.001 196.388 130.813 199.053 135.288C185.073 139.994 169.293 138.342 157.484 134.347C127.901 124.332 104.972 96.8806 99.0231 66.1616H97.2227C103.206 97.6263 126.647 125.771 156.919 136.034C169.134 140.171 185.515 141.84 200.006 136.833C208.602 150.31 222.512 160.431 238.115 163.716C247.506 165.705 257.249 165.35 266.658 165.013C274.601 164.729 282.809 164.444 290.734 165.545C315.305 169.008 337.351 187.173 345.577 210.736C351.507 227.747 350.484 246.302 349.513 264.237C348.754 278.264 347.96 292.754 350.395 306.675C352.937 321.129 359.115 334.801 367.958 346.396V343.413C360.015 332.458 354.473 319.762 352.143 306.373ZM194.64 120.497C193.016 114.531 191.816 105.848 195.293 98.2478C198.259 91.8199 204.613 87.5051 210.738 87.5051C211.462 87.5051 212.186 87.5583 212.909 87.6826C219.617 88.8546 225.212 95.8329 225.654 103.557C226.042 110.287 222.988 117.656 217.287 123.746C212.486 128.86 206.82 132.394 200.748 134.684C198.082 130.263 195.999 125.486 194.64 120.497Z" fill="#C8E8FD"/>
<path d="M100.276 189.5C99.1466 185.966 96.3753 183.267 92.4743 181.882C87.4084 180.071 81.3011 180.763 76.8883 183.64C69.4747 188.47 65.7326 197.241 62.7848 205.995C62.0258 208.251 61.2845 210.523 60.5784 212.814C57.6659 210.222 55.2831 206.581 53.5003 201.965C46.8104 184.741 51.9999 165.812 57.0129 147.505C61.9023 129.642 66.9506 111.175 61.3904 93.7915C57.6307 82.0721 48.6638 72.5545 37.72 67.0322C36.9433 67.2631 36.2019 67.5472 35.4782 67.8668C46.6515 73.0517 55.9185 82.5338 59.6958 94.3419C65.1148 111.228 60.1195 129.429 55.3007 147.026C50.2171 165.617 44.957 184.83 51.8587 202.622C53.8709 207.789 56.6069 211.837 60.0136 214.661C51.6822 242.112 47.3223 270.541 47.0222 299.289C46.934 307.386 47.1811 315.643 47.4105 323.615C47.9754 342.615 48.5579 362.271 44.7452 381.093C42.8565 390.433 39.2027 400.821 33.6602 410.374C34.172 410.658 34.7016 410.925 35.2488 411.173C40.8443 401.46 44.551 390.931 46.475 381.449C50.323 362.413 49.7405 342.668 49.1757 323.562C48.9462 315.607 48.6991 307.368 48.7873 299.306C49.0874 270.931 53.359 242.876 61.5139 215.779C67.5683 219.899 75.8821 220.751 83.1192 217.91C90.215 215.14 96.2694 208.854 99.2878 201.13C101.018 196.727 101.353 192.802 100.276 189.5ZM97.6462 200.473C94.8043 207.753 89.1382 213.666 82.4837 216.259C75.5997 218.958 67.6743 218.052 62.0612 214.004C62.8378 211.518 63.6321 209.032 64.4617 206.564C67.3036 198.112 70.8868 189.677 77.8414 185.131C81.8129 182.539 87.3202 181.917 91.8919 183.551C95.2456 184.759 97.6285 187.049 98.5993 190.05C99.5525 192.962 99.2171 196.46 97.6462 200.473Z" fill="#C8E8FD"/>
<path d="M256.832 112.486C258.052 120.966 258.14 129.717 258.041 137.935C257.925 147.608 257.575 157.286 257.745 166.963C257.84 173.146 255.708 179.146 251.757 183.841C247.337 189.104 241.006 192.318 234.184 192.804L223.415 193.765L223.43 193.999L224.355 205.328L224.694 209.524L225.969 218.759L211.043 233.49L166.18 217.358L164.233 176.115C148.455 175.184 136.974 160.944 143.115 147.163C147.141 138.137 155.213 139.06 161.233 141.372C158.214 135.397 156.318 128.742 155.819 121.645C153.823 93.2999 175.041 68.6963 203.22 66.688C217.948 65.6386 232.856 70.685 243.221 81.4278C251.427 89.9332 255.175 100.96 256.832 112.486Z" fill="#E8A19A"/>
<path d="M224.355 205.33C195.426 204.522 187.28 192.872 187.28 192.872C204.353 195.532 218.758 194.484 223.43 194.001L224.355 205.33Z" fill="black"/>
<path d="M164.763 167.515C164.727 167.516 164.692 167.518 164.655 167.515C164.249 167.485 163.942 167.128 163.974 166.721C164.374 161.234 163.054 155.611 160.254 150.882C158.59 148.073 156.622 145.953 154.405 144.58C151.836 142.991 148.899 142.432 146.335 143.08C145.934 143.167 145.54 142.936 145.441 142.537C145.344 142.137 145.584 141.736 145.982 141.636C148.919 140.906 152.274 141.519 155.178 143.316C157.6 144.815 159.734 147.104 161.522 150.122C164.475 155.11 165.868 161.042 165.444 166.829C165.417 167.2 165.123 167.49 164.763 167.515Z" fill="black"/>
<path d="M212.046 136.453C212.251 139.358 210.076 141.88 207.187 142.086C204.299 142.292 201.792 140.104 201.588 137.197C201.383 134.292 203.557 131.771 206.445 131.565C209.335 131.361 211.841 133.548 212.046 136.453Z" fill="black"/>
<path d="M252.532 133.475C252.737 136.38 250.562 138.901 247.673 139.107C244.785 139.313 242.279 137.125 242.074 134.219C241.869 131.314 244.044 128.792 246.933 128.586C249.823 128.38 252.328 130.57 252.532 133.475Z" fill="black"/>
<path d="M231.257 154.257C231.037 154.218 230.834 154.095 230.694 153.898C230.415 153.502 230.507 152.952 230.901 152.671C232.664 151.412 233.449 149.152 233.799 147.479C234.498 144.13 234.2 140.295 232.939 136.388C231.67 132.461 229.573 128.831 227.889 126.107C227.635 125.695 227.76 125.152 228.17 124.894C228.578 124.639 229.12 124.763 229.376 125.177C231.112 127.984 233.278 131.736 234.604 135.845C235.96 140.044 236.274 144.192 235.513 147.841C234.92 150.682 233.677 152.849 231.914 154.108C231.716 154.25 231.48 154.296 231.257 154.257Z" fill="black"/>
<path d="M324.766 412.984H238.703L219.474 385.094L191.532 412.984H63.2596C62.1123 373.635 62.13 309.8 72.3501 276.56C73.4797 272.831 74.7506 269.493 76.1628 266.616C87.5655 243.337 112.171 228.528 131.694 219.987C132.417 219.668 133.124 219.366 133.83 219.064C145.921 213.95 155.7 211.322 158.541 210.612C159.089 210.47 159.389 210.399 159.389 210.399L160.518 210.825L165.973 212.903L206.165 228.173L207.524 228.688L208.336 228.138L224.628 217.2L225.546 216.596L225.652 216.507L225.775 216.436C225.775 216.436 225.969 216.507 226.34 216.649C226.87 216.845 227.77 217.164 228.97 217.626C229.623 217.892 230.347 218.176 231.177 218.514C234.107 219.686 238.061 221.337 242.668 223.45C243.268 223.716 243.886 224.001 244.503 224.302C245.209 224.64 245.933 224.977 246.674 225.332C247.345 225.652 248.016 225.972 248.704 226.309C269.498 236.483 298.269 253.991 307.501 276.294C317.705 300.922 322.647 370.741 324.766 412.984Z" fill="#C8E8FD"/>
<path d="M238.61 412.984H191.586C191.445 401.922 191.286 390.256 191.11 379.034C191.075 377.045 191.039 375.092 191.004 373.138C190.986 372.304 190.969 371.469 190.969 370.652C190.827 363.408 190.686 356.483 190.527 350.144C190.474 347.356 190.404 344.692 190.333 342.171C190.316 341.39 190.28 340.59 190.245 339.791C190.139 336.879 189.98 333.878 189.768 330.807C189.768 330.736 189.768 330.647 189.751 330.558C189.504 326.669 189.168 322.692 188.78 318.679C188.745 318.359 188.709 318.022 188.674 317.702C188.639 317.223 188.586 316.761 188.533 316.282C188.533 316.211 188.533 316.14 188.515 316.069C186.485 295.986 183.149 275.104 180.431 259.674C180.36 259.318 180.307 258.981 180.237 258.644C180.166 258.129 180.078 257.632 179.972 257.152C177.677 244.279 175.912 235.791 175.912 235.791L202.336 230.357L204.648 229.878L205.354 229.736L206.872 229.132L208.585 228.44L220.376 223.699L220.552 224.107L220.711 224.444L221.541 226.309L226.448 237.318L226.642 237.744L227.101 238.756L228.16 241.153L228.195 241.224L228.231 241.775L228.866 252.198L229.184 257.649L232.873 318.306L233.95 336.205L238.61 412.984Z" fill="white"/>
<path d="M195.739 243.042L205.354 256.944L189.73 330.691L217.071 410.18L232.094 327.518L211.062 255.737L218.273 242.135L207.756 230.348L195.739 243.042Z" fill="#4D7B9E"/>
<path d="M164.041 201.936L207.756 226.417L224.354 205.328L224.732 209.039L229.39 252.713L208.208 232.31L179.816 259.059L159.385 210.399L164.041 201.936Z" fill="white"/>
<path d="M179.816 259.949C179.769 259.949 179.719 259.945 179.67 259.936C179.372 259.887 179.119 259.686 179.003 259.405L158.571 210.745C158.382 210.294 158.592 209.772 159.041 209.582C159.491 209.396 160.006 209.602 160.197 210.056L180.086 257.427L206.648 227.641C206.823 227.447 207.093 227.355 207.337 227.346C207.598 227.356 207.841 227.481 208.002 227.689L228.211 253.826L223.473 205.418C223.426 204.932 223.781 204.495 224.266 204.447C224.755 204.415 225.184 204.756 225.23 205.244L230.266 256.706C230.304 257.101 230.079 257.472 229.713 257.619C229.35 257.759 228.931 257.649 228.689 257.339L207.254 229.617L180.468 259.656C180.304 259.844 180.064 259.949 179.816 259.949Z" fill="black"/>
<path d="M190.632 350.168C190.18 350.168 189.795 349.821 189.753 349.362C184.006 286.192 126.318 251.105 125.737 250.757C125.458 250.592 125.292 250.285 125.304 249.96C125.317 249.635 125.506 249.342 125.795 249.198L158.002 233.214L130.748 219.506C130.312 219.286 130.136 218.753 130.353 218.314C130.572 217.876 131.101 217.696 131.537 217.916L160.379 232.424C160.679 232.575 160.868 232.884 160.866 233.219C160.866 233.558 160.676 233.864 160.374 234.013L127.986 250.088C136.841 255.869 186.175 290.594 191.507 349.198C191.552 349.686 191.195 350.118 190.708 350.164C190.685 350.166 190.658 350.168 190.632 350.168Z" fill="black"/>
<path d="M233.445 344.724C232.986 344.724 232.599 344.369 232.566 343.9C228.848 292.784 251.811 259.032 255.655 253.776L231.099 234.368C230.861 234.178 230.733 233.88 230.767 233.576C230.799 233.271 230.984 233.006 231.258 232.873L247.933 224.712C248.374 224.499 248.9 224.68 249.112 225.121C249.326 225.561 249.144 226.094 248.704 226.307L233.296 233.848L257.426 252.917C257.611 253.064 257.729 253.279 257.758 253.515C257.784 253.75 257.717 253.988 257.571 254.171C257.297 254.513 230.345 289.029 234.327 343.77C234.363 344.259 233.997 344.685 233.512 344.72C233.487 344.724 233.466 344.724 233.445 344.724Z" fill="black"/>
<path d="M143.115 147.161C143.115 147.161 143.763 139.977 154.58 139.675C165.396 139.373 169.301 145.719 169.301 145.719C169.301 145.719 182.822 136.653 182.822 115.496C182.822 94.3389 179.517 81.6447 168.701 80.1336C157.884 78.6225 137.154 82.8539 137.154 104.313C137.153 125.772 143.115 147.161 143.115 147.161Z" fill="black"/>
<path d="M256.986 100.502C264.331 98.7404 271.104 94.4327 275.566 88.3049C280.028 82.1771 282.072 74.2452 280.8 66.7572C279.827 61.0325 276.828 55.5261 272.052 52.2642C268.804 50.0446 264.917 48.9491 261.035 48.356C253.474 47.2001 245.068 48.0861 239.365 53.2125C235.706 46.4898 228.253 42.4182 220.688 41.5162C213.123 40.6141 205.462 42.5336 198.433 45.4901C194.949 46.9568 191.523 48.7129 188.75 51.2947C185.978 53.8748 183.899 57.3782 183.654 61.1692C177.229 59.1396 169.988 61.796 165.173 66.5335C160.359 71.2709 157.643 77.7734 155.931 84.3256C160.183 86.6091 164.193 90.0219 167.775 93.2678C170.696 95.9171 173.619 98.5664 176.54 101.214C179.635 104.019 185.398 102.602 188.679 100.021C191.959 97.4371 194.033 93.6354 195.881 89.8817C199.069 96.9151 206.262 101.933 213.926 102.473C221.592 103.013 229.408 99.0494 233.538 92.5309C238.901 98.989 248.851 102.453 256.986 100.502Z" fill="black"/>
<path d="M195.392 122.671C195.701 123.889 196.592 125.035 197.929 125.495C199.205 125.933 200.665 125.701 202.01 125.388C205.796 124.506 211.511 122.891 213.262 119.491C214.563 116.966 213.301 114.786 210.452 113.891C204.468 112.012 193.731 116.139 195.392 122.671Z" fill="black"/>
<path d="M257.595 119.637C257.521 120.809 256.885 122.02 255.712 122.681C254.591 123.313 253.179 123.362 251.858 123.318C248.144 123.192 242.489 122.743 240.24 119.943C238.57 117.863 239.368 115.638 241.887 114.305C247.179 111.503 257.996 113.351 257.595 119.637Z" fill="black"/>
<path d="M169.301 145.718C169.301 145.718 177.713 150.252 190.332 150.252C202.951 150.252 216.17 141.185 235.7 140.882C255.229 140.58 259.135 146.624 259.135 146.624C259.135 146.624 263.942 180.173 246.216 190.147C228.489 200.121 191.234 195.286 165.696 177.755C165.696 177.755 175.009 158.111 169.301 145.718Z" fill="#C8E8FD"/>
<path d="M247.688 213.564C247.657 213.536 247.625 213.505 247.597 213.472C247.251 213.081 247.286 212.481 247.674 212.133L277.26 185.684C277.648 185.338 278.25 185.361 278.589 185.764C278.935 186.155 278.899 186.755 278.511 187.103L248.926 213.551C248.569 213.869 248.04 213.868 247.688 213.564Z" fill="black"/>
<path d="M218.024 234.845L210.477 241.467L212.339 243.615L219.886 236.993L218.024 234.845Z" fill="white"/>
<path d="M205.584 238.221C205.579 237.802 205.755 237.383 206.103 237.097C206.708 236.598 207.6 236.688 208.096 237.297L216.014 247.03C216.512 247.637 216.422 248.536 215.815 249.035C215.209 249.533 214.318 249.443 213.822 248.834L205.904 239.101C205.692 238.842 205.588 238.531 205.584 238.221Z" fill="white"/>
<path d="M212.26 231.419L250.593 199.801C251.425 199.114 252.658 199.265 253.303 200.133L259.989 209.133C260.593 209.944 260.455 211.091 259.678 211.736L221.209 243.637L212.26 231.419Z" fill="white"/>
<path d="M222.697 240.528L258.081 210.276L252.12 201.586L215.204 231.444L222.697 240.528Z" fill="#4D7B9E"/>
<path d="M258.081 210.276L252.682 201.183L253.608 200.443L255.005 199.335L256.41 198.214L262.227 206.327L259.756 208.677L259.696 208.728L258.081 210.276Z" fill="white"/>
<path d="M259.695 208.729L253.607 200.444L255.004 199.336L259.755 208.678L259.695 208.729Z" fill="black"/>
<path d="M246.136 205.38C246.134 205.231 246.196 205.082 246.318 204.977C246.535 204.79 246.859 204.817 247.043 205.035L249.587 208.042C249.772 208.26 249.745 208.587 249.528 208.771C249.311 208.958 248.986 208.931 248.803 208.713L246.259 205.707C246.178 205.612 246.138 205.497 246.136 205.38Z" fill="black"/>
<path d="M242.491 208.083C242.489 207.933 242.549 207.786 242.669 207.683C242.885 207.497 243.21 207.52 243.397 207.736L246.207 211.003C246.392 211.222 246.369 211.549 246.154 211.735C245.939 211.923 245.614 211.898 245.427 211.682L242.617 208.415C242.535 208.317 242.493 208.2 242.491 208.083Z" fill="black"/>
<path d="M239.771 210.901C239.769 210.755 239.827 210.61 239.944 210.507C240.155 210.317 240.482 210.336 240.671 210.549L243.213 213.422C243.401 213.635 243.382 213.964 243.17 214.154C242.958 214.344 242.632 214.324 242.443 214.111L239.901 211.238C239.815 211.141 239.772 211.022 239.771 210.901Z" fill="black"/>
<path d="M161.641 293.514C161.641 293.514 164.345 275.379 163.743 267.521C163.143 259.662 162.841 249.688 164.043 247.876C165.245 246.063 168.549 243.644 168.549 243.644C168.549 243.644 173.356 233.066 177.262 230.95C181.168 228.835 207.606 229.137 207.606 229.137C207.606 229.137 223.23 237.6 223.23 240.018C223.23 242.437 218.723 245.459 217.521 245.157C216.319 244.855 222.629 249.086 222.629 249.086C222.629 249.086 219.625 255.736 216.019 256.34L222.328 259.968C222.328 259.968 222.628 263.595 219.023 265.107C215.417 266.618 206.704 263.897 206.704 263.897L213.915 269.338C213.915 269.338 215.117 273.267 210.611 273.267C206.104 273.267 195.288 271.455 195.288 271.455C195.288 271.455 200.696 282.032 198.894 293.821C197.092 305.608 191.983 319.209 191.983 319.209L161.641 293.514Z" fill="#E8A19A"/>
<path d="M216.32 257.226C215.877 257.226 215.494 256.89 215.443 256.438C215.39 255.949 215.74 255.511 216.223 255.456C218.386 255.214 221.16 252.414 221.483 250.986C221.676 250.129 221.325 249.228 220.588 248.692L217.833 246.686L202.014 239.697H185.074C184.587 239.697 184.191 239.299 184.191 238.809C184.191 238.319 184.587 237.921 185.074 237.921H202.199C202.321 237.921 202.443 237.948 202.554 237.995L218.627 245.098C218.684 245.125 218.739 245.155 218.79 245.192L221.621 247.254C222.933 248.209 223.554 249.829 223.204 251.38C222.7 253.609 219.252 256.903 216.417 257.221C216.386 257.224 216.352 257.226 216.32 257.226Z" fill="black"/>
<path d="M215.882 266.273C211.049 266.273 204.522 264.242 204.19 264.139C203.724 263.991 203.464 263.494 203.611 263.025C203.756 262.557 204.252 262.292 204.716 262.443C204.809 262.475 214.133 265.382 218.189 264.249C219.116 263.991 219.859 263.576 220.397 263.017C220.849 262.544 221.045 261.898 220.932 261.243C220.815 260.563 220.395 260 219.783 259.694L200.809 250.285L182.556 251.033C182.011 251.022 181.658 250.67 181.638 250.182C181.619 249.692 181.997 249.278 182.484 249.257L200.961 248.501C201.108 248.499 201.256 248.527 201.388 248.593L220.563 258.102C221.672 258.652 222.459 259.71 222.671 260.939C222.882 262.161 222.515 263.366 221.666 264.251C220.906 265.041 219.894 265.618 218.658 265.961C217.861 266.181 216.909 266.273 215.882 266.273Z" fill="black"/>
<path d="M209.217 274.527C205.913 274.527 201.075 273.789 196.256 272.995C194.779 272.75 193.594 272.555 192.945 272.485C190.101 272.185 186.061 271.883 186.061 271.883L186.191 270.111C186.191 270.111 190.263 270.417 193.128 270.72C193.797 270.791 195.019 270.99 196.54 271.242C201.096 271.995 209.576 273.398 211.766 272.45C212.668 272.061 213.245 271.59 213.434 271.088C213.523 270.852 213.508 270.642 213.48 270.505L200.969 261.727L181.355 259.186C180.871 259.123 180.53 258.678 180.592 258.191C180.656 257.705 181.085 257.367 181.581 257.422L201.41 259.99C201.551 260.01 201.686 260.061 201.802 260.143L214.721 269.211C214.834 269.291 214.928 269.396 214.993 269.518C215.046 269.618 215.499 270.521 215.109 271.645C214.76 272.654 213.868 273.473 212.462 274.082C211.733 274.396 210.612 274.527 209.217 274.527Z" fill="black"/>
<path d="M203.554 330.681C203.554 330.681 201.207 339.363 197.129 352.184C196.988 352.645 196.847 353.107 196.688 353.587C196.67 353.604 196.67 353.604 196.67 353.622C195.029 358.771 193.105 364.542 190.969 370.651C186.203 384.128 180.343 399.221 173.777 412.982H59.7139C59.9257 373.634 61.885 308.68 71.9639 276.292L72.3522 276.558L120.629 310.136L115.227 350.639L121.546 340.198L123.435 337.091L153.672 287.159L155.313 288.597L177.872 308.272L181.225 311.202L188.674 317.7L191.887 320.506L203.554 330.681Z" fill="#C8E8FD"/>
<path d="M204.403 330.895C204.138 332.067 201.808 341.798 198.136 355.115C196.16 362.289 193.777 370.528 191.111 379.033C187.493 390.504 183.362 402.454 178.967 412.984H177.008C182.144 400.732 186.963 386.402 191.005 373.138C193.123 366.178 195.047 359.519 196.671 353.624C196.671 353.606 196.671 353.606 196.689 353.588C196.813 353.073 196.954 352.576 197.095 352.079C200.096 341.141 202.073 333.062 202.567 331.002L191.729 321.307L188.781 318.679L181.791 312.428L178.455 309.445L156.603 289.913L123.03 348.421L122.306 349.682L93.1464 400.501C92.8993 400.927 92.3698 401.069 91.9461 400.821C91.5225 400.572 91.3813 400.04 91.6284 399.613L121.283 347.942L123.154 344.657L155.314 288.599L155.614 288.084C155.756 287.853 155.985 287.693 156.232 287.658C156.515 287.605 156.779 287.693 156.974 287.871L161.828 292.204L176.231 305.077V305.095L179.867 308.327L188.516 316.069L192.011 319.176L192.153 319.3L204.138 330.025C204.385 330.238 204.491 330.576 204.403 330.895Z" fill="black"/>
<path d="M122.131 349.712C122.121 349.712 122.11 349.712 122.098 349.712C121.611 349.694 121.229 349.282 121.249 348.792L122.601 310.711C122.619 310.22 123.042 309.85 123.515 309.856C124.002 309.873 124.384 310.285 124.364 310.775L123.012 348.856C122.996 349.336 122.604 349.712 122.131 349.712Z" fill="black"/>
<path d="M276.242 312.038L283.267 412.984H281.502L274.477 312.162C274.442 311.683 274.812 311.257 275.289 311.221C275.801 311.186 276.207 311.559 276.242 312.038Z" fill="black"/>
<path d="M342.211 190.961C343.17 194.592 342.758 198.6 340.72 202.125L335.497 211.175L326.727 226.366C322.657 233.39 313.625 235.878 306.646 231.888C303.167 229.908 300.815 226.65 299.848 223.005C298.891 219.373 299.317 215.355 301.324 211.85L309.06 198.483L315.339 187.614C319.399 180.575 328.433 178.086 335.412 182.077C338.889 184.084 341.253 187.332 342.211 190.961Z" fill="#EAF1FC"/>
<path d="M334.935 211.912L326.728 226.366C322.658 233.39 313.626 235.878 306.647 231.888C303.167 229.908 300.816 226.65 299.849 223.005C298.892 219.373 299.318 215.355 301.325 211.85L308.226 199.756C311.266 200.129 315.578 201.304 320.498 203.511C326.044 206.01 331.893 209.312 334.935 211.912Z" fill="#C8E8FD"/>
<path d="M335.227 211.643L334.595 212.738C326.382 206.918 317.595 201.52 307.788 200.678L308.475 199.488C318.301 200.509 327.051 205.865 335.227 211.643Z" fill="black"/>
<path d="M50.0641 110.647C53.7108 109.843 57.6754 110.432 61.0856 112.633L69.8459 118.277L84.5477 127.754C91.3452 132.151 93.4228 141.338 89.1529 148.178C87.0348 151.589 83.6969 153.808 80.0343 154.62C76.3875 155.424 72.4142 154.82 69.0216 152.649L56.085 144.289L45.5648 137.504C38.7514 133.117 36.6756 123.929 40.9437 117.089C43.0883 113.685 46.4156 111.45 50.0641 110.647Z" fill="#EAF1FC"/>
<path d="M70.5528 118.876L84.5485 127.754C91.346 132.151 93.4236 141.338 89.1537 148.178C87.0355 151.589 83.6977 153.809 80.035 154.62C76.3882 155.424 72.415 154.821 69.0224 152.649L57.3125 145.184C57.8156 142.146 59.1712 137.863 61.5788 133.016C64.3024 127.552 67.8362 121.816 70.5528 118.876Z" fill="#C8E8FD"/>
<path d="M70.2981 118.569L71.3589 119.253C65.2198 127.252 59.4743 135.848 58.2105 145.668L57.0596 144.926C58.4999 135.092 64.2013 126.533 70.2981 118.569Z" fill="black"/>
<path d="M324.033 86.7744V132.127" stroke="black" stroke-width="0.7656" stroke-miterlimit="10" stroke-linecap="round" stroke-linejoin="round"/>
<path d="M337.144 95.8574L309.714 124.145" stroke="black" stroke-width="0.7656" stroke-miterlimit="10" stroke-linecap="round" stroke-linejoin="round"/>
<path d="M346.573 109.452H301.49" stroke="black" stroke-width="0.7656" stroke-miterlimit="10" stroke-linecap="round" stroke-linejoin="round"/>
<path d="M338.178 123.276L309.714 96.0298" stroke="black" stroke-width="0.7656" stroke-miterlimit="10" stroke-linecap="round" stroke-linejoin="round"/>
<path d="M329.438 322.521V367.873" stroke="black" stroke-width="0.7656" stroke-miterlimit="10" stroke-linecap="round" stroke-linejoin="round"/>
<path d="M342.55 331.604L315.12 359.893" stroke="black" stroke-width="0.7656" stroke-miterlimit="10" stroke-linecap="round" stroke-linejoin="round"/>
<path d="M351.981 345.198H306.897" stroke="black" stroke-width="0.7656" stroke-miterlimit="10" stroke-linecap="round" stroke-linejoin="round"/>
<path d="M343.586 359.024L315.12 331.776" stroke="black" stroke-width="0.7656" stroke-miterlimit="10" stroke-linecap="round" stroke-linejoin="round"/>
<path d="M50.9238 220.97V266.322" stroke="black" stroke-width="0.7656" stroke-miterlimit="10" stroke-linecap="round" stroke-linejoin="round"/>
<path d="M64.0356 230.049L36.6055 258.337" stroke="black" stroke-width="0.7656" stroke-miterlimit="10" stroke-linecap="round" stroke-linejoin="round"/>
<path d="M73.4661 243.646H28.3828" stroke="black" stroke-width="0.7656" stroke-miterlimit="10" stroke-linecap="round" stroke-linejoin="round"/>
<path d="M65.0718 257.471L36.6055 230.225" stroke="black" stroke-width="0.7656" stroke-miterlimit="10" stroke-linecap="round" stroke-linejoin="round"/>
</svg>
