<svg width="211" height="209" viewBox="0 0 211 209" fill="none" xmlns="http://www.w3.org/2000/svg">
<path d="M105.5 209C163.766 209 211 191.763 211 170.5C211 149.237 163.766 132 105.5 132C47.234 132 0 149.237 0 170.5C0 191.763 47.234 209 105.5 209Z" fill="#4D7B9E" fill-opacity="0.29"/>
<path d="M106.433 51.9916C109.135 49.1057 114.489 48.9515 118.008 51.0496C121.527 53.1477 123.344 56.9443 123.699 60.6686C125.681 59.5248 128.795 60.17 130.84 61.2224C132.886 62.2747 134.323 64.0665 135.28 65.9724C136.039 67.4824 136.459 69.4226 135.197 70.6462C137.546 70.4122 140.607 71.2676 142.473 72.5436C144.008 73.594 145.456 74.9842 145.62 76.6875C145.79 78.444 144.548 80.072 143.116 81.3071C145.089 83.1388 144.59 86.3816 142.533 88.1419C140.477 89.9022 137.541 90.5721 134.726 91.0716C127.204 92.4095 119.518 93.027 111.845 92.91C109.41 92.8729 106.893 92.7435 104.719 91.7796C101.363 90.2914 99.4144 87.0115 98.9142 83.7382C98.4139 80.465 99.1448 77.1508 99.9255 73.9204C101.689 66.6175 101.038 57.7569 106.433 51.9916Z" fill="#844210"/>
<path d="M112.407 56.3207C114.409 55.8126 116.756 56.9535 117.332 58.7128" stroke="#032021" stroke-miterlimit="10" stroke-linecap="round" stroke-linejoin="round"/>
<path d="M114.306 60.5073C114.682 61.9869 116.211 63.1811 117.928 63.3362" stroke="#032021" stroke-miterlimit="10" stroke-linecap="round" stroke-linejoin="round"/>
<path d="M113.108 68.4039C113.882 67.7702 115.017 67.4981 116.049 67.6988C117.081 67.8996 117.981 68.5676 118.377 69.4277" stroke="#032021" stroke-miterlimit="10" stroke-linecap="round" stroke-linejoin="round"/>
<path d="M119.951 66.6366C121.156 67.4986 122.814 67.6671 124.368 67.6528C125.018 67.6461 125.69 67.609 126.27 67.3531C126.852 67.0971 127.323 66.569 127.275 66" stroke="#032021" stroke-miterlimit="10" stroke-linecap="round" stroke-linejoin="round"/>
<path d="M126.514 72.5121C126.873 71.7299 127.797 71.1752 128.756 71.1638C129.717 71.1523 130.656 71.6852 131.04 72.4588" stroke="#032021" stroke-miterlimit="10" stroke-linecap="round" stroke-linejoin="round"/>
<path d="M119.39 74.4087C119.262 74.9206 119.838 75.3459 120.37 75.5819C121.602 76.129 122.993 76.3993 124.372 76.3612" stroke="#032021" stroke-miterlimit="10" stroke-linecap="round" stroke-linejoin="round"/>
<path d="M113.305 73.271C111.724 74.4119 111.307 76.6156 112.383 78.1447" stroke="#032021" stroke-miterlimit="10" stroke-linecap="round" stroke-linejoin="round"/>
<path d="M117.737 78.7891C118.777 78.9689 119.751 79.4256 120.501 80.0831" stroke="#032021" stroke-miterlimit="10" stroke-linecap="round" stroke-linejoin="round"/>
<path d="M129.916 78.9688C131.99 77.7242 134.992 77.8422 136.933 79.2428" stroke="#032021" stroke-miterlimit="10" stroke-linecap="round" stroke-linejoin="round"/>
<path d="M133.229 83.6231C135.12 84.3672 137.508 83.9999 138.998 82.7354" stroke="#032021" stroke-miterlimit="10" stroke-linecap="round" stroke-linejoin="round"/>
<path d="M138.739 73.8066C140.169 74.0464 141.421 74.9818 141.921 76.1835" stroke="#032021" stroke-miterlimit="10" stroke-linecap="round" stroke-linejoin="round"/>
<path d="M105.972 79.5742C106.682 80.3459 107.76 80.8464 108.885 80.9282" stroke="#032021" stroke-miterlimit="10" stroke-linecap="round" stroke-linejoin="round"/>
<path d="M60.2036 61.4309C56.6607 61.4099 53.1557 62.998 51.1189 65.5453C49.0822 68.0925 48.5711 71.5294 49.7947 74.4506C47.157 74.4487 44.7976 75.6609 43.1214 77.4498C41.4453 79.2396 40.5639 81.5308 40.2856 83.8354C40.1319 85.1067 40.1719 86.4607 40.9039 87.5654C41.7777 88.8852 43.4571 89.5969 45.0466 90.2116C42.3245 91.0632 41.3749 94.482 42.5768 96.7904C43.7787 99.0988 46.83 100.394 49.7156 100.266C60.0087 99.8106 70.3937 102.018 79.409 97.6278C82.4993 96.1225 85.3936 94.1642 87.2907 91.5447C90.0951 87.6729 90.4124 82.6441 88.7719 78.2861C87.1304 73.9291 83.6926 70.2134 79.5974 67.3636C74.556 63.8563 66.6343 61.468 60.2036 61.4309Z" fill="#844210"/>
<path d="M57.1048 66.1631C56.1693 66.812 55.6246 67.8283 55.4427 68.8635C55.2608 69.8988 55.4103 70.9588 55.6636 71.9826" stroke="#032021" stroke-miterlimit="10" stroke-linecap="round" stroke-linejoin="round"/>
<path d="M59.2139 70.6567C60.3443 71.8661 60.8738 73.4942 60.641 75.0452" stroke="#032021" stroke-miterlimit="10" stroke-linecap="round" stroke-linejoin="round"/>
<path d="M52.2005 76.8315C51.8649 78.491 52.7842 80.2922 54.4181 81.1752" stroke="#032021" stroke-miterlimit="10" stroke-linecap="round" stroke-linejoin="round"/>
<path d="M58.0781 78.6216C59.7153 79.4466 60.6985 81.1755 60.4657 82.8207" stroke="#032021" stroke-miterlimit="10" stroke-linecap="round" stroke-linejoin="round"/>
<path d="M64.2178 79.606C64.5762 81.2778 66.2957 82.6499 68.223 82.8031" stroke="#032021" stroke-miterlimit="10" stroke-linecap="round" stroke-linejoin="round"/>
<path d="M72.2793 80.7268C74.159 80.3272 76.2412 81.7716 76.2347 83.471" stroke="#032021" stroke-miterlimit="10" stroke-linecap="round" stroke-linejoin="round"/>
<path d="M63.9229 86.8994C64.5585 87.9375 65.7874 88.6759 67.1192 88.8205C68.45 88.9642 69.8479 88.5103 70.7499 87.6387" stroke="#032021" stroke-miterlimit="10" stroke-linecap="round" stroke-linejoin="round"/>
<path d="M54.1973 86.7095C54.1865 88.2015 55.3668 89.6411 56.9801 90.1055" stroke="#032021" stroke-miterlimit="10" stroke-linecap="round" stroke-linejoin="round"/>
<path d="M49.1431 92.3418C48.7273 93.1877 48.8875 94.2296 49.5437 94.948C50.1999 95.6664 51.3238 96.0299 52.3525 95.8558" stroke="#032021" stroke-miterlimit="10" stroke-linecap="round" stroke-linejoin="round"/>
<path d="M45.7451 86.0936C47.901 85.6178 50.3535 86.9214 50.8754 88.8206" stroke="#032021" stroke-miterlimit="10" stroke-linecap="round" stroke-linejoin="round"/>
<path d="M47.0251 81.5307C45.807 80.9835 45.1703 79.6038 45.6099 78.4658" stroke="#032021" stroke-miterlimit="10" stroke-linecap="round" stroke-linejoin="round"/>
<path d="M78.5085 101.084C76.5151 114.903 93.0179 119.851 105.883 119.374C110.647 118.412 117.951 116.709 118.221 111.54C117.541 103.649 112.448 95.026 105.596 89.9648C99.1574 86.1302 90.6185 85.8152 83.1559 86.4471C78.4977 89.5452 79.2015 96.3753 78.5085 101.084Z" fill="#F0F0F0"/>
<path d="M135.468 86.5826C153.802 89.3172 168.584 100.309 182.3 110.648C189.815 114.99 189.102 124.39 180.678 127.68C172.192 131.079 163.023 127.777 155.595 123.8C146.77 120.926 137.101 119.256 128.276 116.381C113.435 112.487 97.7791 103.562 99.1748 88.2496C99.098 83.3636 101.382 83.8355 106.392 83.8802C116.153 83.9668 125.904 84.8717 135.468 86.5826Z" fill="#F0F0F0"/>
<path d="M188.223 112.449C205.586 110.975 207.36 130.984 199.631 140.749C198.263 143.469 195.642 145.514 192.137 145.44C181.951 146.313 166.271 141.558 172.402 130.304C175.251 122.485 176.975 113.357 188.223 112.449Z" fill="#F0F0F0"/>
<path d="M176.788 116.754C180.33 113.728 185.441 112.18 190.352 112.644" stroke="#032021" stroke-miterlimit="10" stroke-linecap="round" stroke-linejoin="round"/>
<path d="M68.4149 90.4377C48.4526 96.3828 21.2853 110.881 30.0668 132.611C42.2038 152.537 78.0821 132.06 81.2081 115.013C83.6855 106.431 92.4269 91.8774 81.4572 85.8257C77.1173 86.7639 72.745 89.234 68.4149 90.4377Z" fill="#F0F0F0"/>
<path d="M161.307 188.677C160.398 168.246 155.716 143.046 149.609 123.285C145.221 109.093 138.772 89.8532 123.157 83.8586C119.892 82.6054 116.805 83.0593 113.348 83.8462C118.046 89.1652 122.782 96.5633 125.241 103.337C125.963 105.329 124.975 107.494 122.85 108.507C114.558 112.458 102.488 111.236 93.0067 110.035C90.313 109.693 87.4808 109.181 85.4911 107.584C83.9292 106.331 83.0901 104.568 82.2964 102.862C80.0317 97.9973 77.2461 93.2368 74.9814 88.3726C71.1693 88.0643 67.2253 89.4459 64.7534 91.956C65.4495 124.392 59.6709 156.315 57.5293 188.704C57.812 188.785 58.5702 188.597 58.8528 188.678H161.307V188.677Z" fill="#4D7B9E"/>
<path d="M128.486 122.656C129.188 123.093 128.954 124.056 128.096 124.163C123.741 124.709 107.607 119.394 111.929 115.877C118.404 110.62 124.098 119.926 128.486 122.656Z" fill="#FFBF9D"/>
<path d="M130.276 125.826C118.718 119.923 131.003 105.15 143.422 118.443L138.283 117.58L140.7 122.127L136.641 122.098L138.218 124.74L134.259 123.953L135.295 127.915L130.276 125.826Z" fill="white"/>
<path d="M101.746 79.1162C102.127 82.3733 103.647 85.7636 103.626 89.0397C103.611 91.2481 102.781 93.5251 101.016 94.9838C99.1863 96.4977 96.5569 96.9554 94.1482 96.6033C91.7394 96.2503 89.5169 95.1694 87.4828 93.9067C85.8123 92.8705 84.9798 91.6544 83.9445 90.0435C84.0564 85.5894 83.9545 81.1306 83.6396 76.686C89.5246 78.4416 95.5848 79.4959 101.746 79.1162Z" fill="#FFBF9D"/>
<path d="M103.258 85.8789C102.789 83.6143 102.008 81.3354 101.749 79.1164C96.8728 79.4171 92.0619 78.81 87.3486 77.6777C89.8971 83.2556 96.0924 86.956 103.258 85.8789Z" fill="#032021"/>
<path d="M72.7979 69.8993C77.6997 77.1604 86.2613 82.9209 95.8581 83.3205C97.3026 83.3805 98.7957 83.3129 100.111 82.7858C101.292 82.3128 102.252 81.4993 103.094 80.6325C108.509 75.0622 109.641 67.2531 109.865 59.9292C110.009 55.2335 107.193 51.0344 106.542 46.3719C105.773 40.8607 103.604 35.143 98.525 33.6805C95.5073 32.8118 91.1512 35.3133 88.0111 35.7272C81.0174 36.6493 68.4906 39.8407 66.1669 46.7554C63.9028 53.495 69.0211 64.3043 72.7979 69.8993Z" fill="#FFBF9D"/>
<path d="M106.299 56.1756C102.797 52.3448 95.7298 55.4011 95.9832 60.0607C97.7395 56.5534 102.453 56.1357 106.299 56.1756Z" fill="#032021"/>
<path d="M77.164 65.6054C76.7741 60.7031 84.3234 58.7297 87.7374 62.3007C83.7376 60.7745 79.9565 63.2808 77.164 65.6054Z" fill="#032021"/>
<path d="M98.3071 60.7221C97.8609 61.1379 97.4679 61.6185 97.3033 62.1713C96.985 63.2437 97.6303 64.4264 98.6741 65.0487C99.7179 65.671 101.076 65.789 102.311 65.5654C103.547 65.3418 104.68 64.807 105.741 64.2075C106.484 63.7879 107.227 63.3074 107.634 62.6185C108.629 60.9353 106.991 58.7658 104.962 58.5279C102.663 58.2577 99.8598 59.2768 98.3071 60.7221Z" fill="#FFC4BB"/>
<path d="M79.0482 68.7514C78.6021 69.1673 78.2091 69.6478 78.0445 70.2006C77.7262 71.273 78.3715 72.4557 79.4164 73.078C80.4602 73.7003 81.818 73.8183 83.0535 73.5947C84.289 73.3711 85.4226 72.8363 86.4838 72.2369C87.2266 71.8173 87.9694 71.3358 88.3765 70.6478C89.3716 68.9646 87.7333 66.7951 85.7042 66.5572C83.4043 66.287 80.601 67.3051 79.0482 68.7514Z" fill="#FFC4BB"/>
<path d="M104.473 50.7347C99.8677 48.3616 92.1734 55.3582 93.1035 51.7167C93.2205 51.26 93.606 51.0335 93.8442 50.9155C96.7309 49.1504 102.061 47.491 104.473 50.7347Z" fill="#844210"/>
<path d="M73.8216 62.0777C75.1318 57.5294 86.2044 57.6284 82.6009 55.653C82.1483 55.4047 81.6946 55.4875 81.4315 55.5541C77.9741 56.1202 72.8872 58.2906 73.8216 62.0777Z" fill="#844210"/>
<path d="M90.912 54.6646C90.5828 57.2803 90.9705 60.0226 92.4441 62.3129C93.9189 64.6032 96.5739 66.3759 99.5548 66.63C97.9772 68.396 95.1305 69.1972 92.6791 68.5663" stroke="#032021" stroke-miterlimit="10" stroke-linecap="round" stroke-linejoin="round"/>
<path d="M90.291 72.2906C92.606 73.7845 96.0775 73.6884 98.282 72.0708" stroke="#032021" stroke-miterlimit="10" stroke-linecap="round" stroke-linejoin="round"/>
<path d="M66.3275 62.8729C63.718 66.2689 68.1368 78.692 76.1419 72.7592C77.3005 71.9 70.2212 59.8861 66.3275 62.8729Z" fill="#FFBF9D"/>
<path d="M66.9688 67.5587C67.2059 67.1324 67.7429 66.8793 68.2811 66.8336C68.8182 66.788 69.3552 66.9231 69.8522 67.1096C71.1321 67.5901 72.2355 68.4293 72.9598 69.4741C72.5354 69.2305 72.033 69.0574 71.5284 69.1059C71.0238 69.1544 70.5322 69.4694 70.4402 69.9071C70.3481 70.3448 71.7753 71.3296 72.2788 71.2763" stroke="#032021" stroke-miterlimit="10" stroke-linecap="round" stroke-linejoin="round"/>
<path d="M73.7088 67.791C73.305 63.1371 70.6857 57.1349 69.3647 52.6142C68.8839 50.9699 67.8228 47.0221 65.576 46.4635C62.6979 45.747 60.9492 49.4409 60.4262 51.2963C59.6109 54.1899 59.6726 57.3004 60.829 60.1027C61.9865 62.9049 63.5479 68.7197 66.5516 70.1051C66.5516 70.1051 64.6968 66.731 66.7941 63.6442C68.0967 61.725 73.7088 67.791 73.7088 67.791Z" fill="#844210"/>
<path d="M69.9091 58.7937C71.817 58.7119 73.1933 57.1866 74.1418 55.7298C76.0442 52.8096 77.3349 49.582 77.9283 46.2574C77.963 46.0624 78.0539 45.8169 78.2791 45.8073C78.5043 45.7978 78.3787 46.2194 78.2488 46.0585C82.5118 47.5353 87.3258 46.1385 90.8926 43.6112C93.6732 44.7559 97.5063 44.6389 100.025 43.0946C101.112 42.4275 102.093 41.3399 101.814 40.201C101.495 38.9098 99.805 38.3265 98.34 38.0325C92.2742 36.8174 85.7688 36.9239 79.9834 38.9364C74.1981 40.9489 69.2172 44.9795 67.0885 50.1168C65.8043 53.2121 66.8557 56.885 69.9091 58.7937Z" fill="#844210"/>
<path d="M69.2637 54.9807C70.8586 54.3413 72.1028 53.0605 72.5705 51.5762" stroke="#032021" stroke-miterlimit="10" stroke-linecap="round" stroke-linejoin="round"/>
<path d="M66.2472 57.0591C65.6343 58.2637 66.075 59.8128 67.2607 60.6216" stroke="#032021" stroke-miterlimit="10" stroke-linecap="round" stroke-linejoin="round"/>
<path d="M80.6963 44.5962C82.2306 44.8179 83.8754 44.3202 84.9289 43.3154" stroke="#032021" stroke-miterlimit="10" stroke-linecap="round" stroke-linejoin="round"/>
<path d="M101.794 20.8076C102.604 17.7636 103.026 14.5104 101.859 11.5569C100.693 8.60334 97.5738 6.06562 94.0179 6.13699C92.9762 6.15792 91.9118 6.392 90.907 6.14841C90.0581 5.94288 89.3629 5.42049 88.6829 4.9276C85.3328 2.50122 81.4423 0.401207 77.1198 0.0443858C72.7973 -0.312435 68.02 1.49451 66.3558 5.018C65.8317 6.12747 65.6076 7.38348 64.724 8.30075C63.9682 9.08576 62.8324 9.50443 61.7095 9.7956C59.2061 10.4445 56.5598 10.5968 54.0661 11.2762C51.5735 11.9565 49.108 13.3343 48.2537 15.5019C47.5304 17.3374 48.0869 19.3898 47.5596 21.2757C46.2613 25.9144 39.495 27.3931 36.2249 31.2087C33.4714 34.421 33.5732 38.8056 33.7962 42.823C33.8785 44.3111 34.0312 45.9459 35.2309 46.9992C36.5097 48.121 38.6666 48.2742 39.7624 49.5369C40.6351 50.5427 40.5561 51.93 40.9015 53.1584C41.562 55.5115 43.8835 57.3156 46.4887 58.1101C49.0939 58.9056 51.9482 58.8181 54.6681 58.4184C56.2652 58.1844 57.9533 57.8523 59.4617 58.3718C60.0453 53.6142 62.5281 49.0526 66.3764 45.668C69.2717 43.1217 72.8482 41.2701 76.4008 39.4765C81.9339 36.6818 87.5352 33.9424 93.4516 31.8167C95.3551 31.1325 98.8428 30.7624 100.026 29.2095C101.209 27.6585 101.263 22.8048 101.794 20.8076Z" fill="#305E81"/>
<path d="M62.256 62.3953C63.6366 54.2046 70.2947 47.0044 78.8596 43.5532C87.4244 40.102 96.77 38.551 105.492 41.6835C106.54 37.2446 103.498 30.7657 98.9378 29.1414C93.0582 28.0158 89.6214 29.7342 84.0505 31.7343C78.4806 33.7354 73.4889 36.8031 68.8048 40.123C65.0074 42.8148 61.2599 45.8321 59.3986 49.7952C57.5383 53.7602 58.4587 59.7034 62.256 62.3953Z" fill="#305E81"/>
<path d="M59.6616 59.107C58.9589 56.4161 59.3444 53.5758 60.2615 50.9353C61.1786 48.2948 62.609 45.8171 64.0318 43.3555C60.5668 47.2072 58.7228 51.9392 57.5069 56.7301C57.4311 57.0279 57.3574 57.3448 57.4776 57.6302C57.5913 57.8995 57.8588 58.0917 58.1154 58.2706C58.9058 58.8225 58.8723 58.5561 59.6616 59.107Z" fill="#032021"/>
<path d="M82.1025 31.6241C88.9036 30.3072 95.3332 28.8713 101.86 31.0046C100.526 30.5689 100.549 29.7838 99.2139 29.1302C97.7218 28.3994 95.5432 28.3823 93.8833 28.3784C89.7048 28.3718 85.5122 29.4889 82.1025 31.6241Z" fill="#032021"/>
<path d="M97.1455 29.0405C97.9392 25.7539 98.0561 22.3427 97.4898 19.02" stroke="#032021" stroke-miterlimit="10" stroke-linecap="round" stroke-linejoin="round"/>
<path d="M92.8486 28.7408C93.0186 27.2707 92.8345 25.7702 92.3115 24.3657" stroke="#032021" stroke-miterlimit="10" stroke-linecap="round" stroke-linejoin="round"/>
<path d="M88.4326 28.7401C87.2512 25.0511 85.3693 21.5352 82.8887 18.3828" stroke="#032021" stroke-miterlimit="10" stroke-linecap="round" stroke-linejoin="round"/>
<path d="M58.9341 48.0236C56.3495 45.9246 53.9165 43.6818 51.6523 41.3145" stroke="#032021" stroke-miterlimit="10" stroke-linecap="round" stroke-linejoin="round"/>
<path d="M58.5649 51.9292C56.7761 51.4325 55.0491 50.7655 53.4238 49.9443" stroke="#032021" stroke-miterlimit="10" stroke-linecap="round" stroke-linejoin="round"/>
<path d="M55.9863 54.3063C54.8743 54.5708 53.5901 54.0894 53.04 53.1997" stroke="#032021" stroke-miterlimit="10" stroke-linecap="round" stroke-linejoin="round"/>
<path d="M64.4906 41.0407C63.1393 38.9892 61.788 36.9377 60.4355 34.8862" stroke="#032021" stroke-miterlimit="10" stroke-linecap="round" stroke-linejoin="round"/>
<path d="M180.184 136.049C181.897 137.624 183.637 139.218 185.773 140.349C186.914 140.954 188.343 141.423 189.57 140.959C190.847 140.478 191.395 139.186 191.63 138.005C189.545 138.458 187.354 137.615 185.67 136.466C183.986 135.317 182.613 133.856 180.889 132.751C180.145 132.275 179.344 131.869 178.541 131.467C176.877 130.631 175.339 130.738 176.137 132.383C176.739 133.625 179.12 135.071 180.184 136.049Z" fill="#032021"/>
<path d="M180.877 136.579C173.192 129.887 162.321 127.643 153.108 123.802C154.198 121.428 152.107 118.404 155.366 117.572C166.494 116.896 178.239 115.604 189.184 117.791C200.877 121.767 194.697 138.375 184.768 138.104C183.305 138.064 181.916 137.484 180.877 136.579Z" fill="#FFBF9D"/>
<path d="M145.197 116.699C158.147 114.755 159.92 132.838 140.875 129.638L145.333 127.433L140.179 125.319L143.219 123.08L140.096 121.947L143.62 120.34L139.925 117.903L145.197 116.699Z" fill="white"/>
<path d="M179.289 116.393C175.74 112.696 169.836 111.421 164.296 110.836C156.672 110.033 148.919 110.133 141.327 111.132C140.375 111.258 139.231 111.545 139.017 112.351C139.326 113.753 146.947 114.096 150.971 113.629C149.021 114.237 147.235 115.226 145.774 116.49C144.944 117.209 145.733 118.427 146.879 118.19C146.888 118.188 146.897 118.186 146.906 118.184C149.96 117.55 153.014 116.917 156.067 116.283C154.244 116.768 152.256 117.388 150.859 118.429C150.035 119.043 150.711 120.196 151.788 120.044C154.84 119.612 157.933 119.384 161.004 119.654C164.925 119.999 168.838 121.219 171.687 123.559C173.066 123.7 174.407 123.587 175.718 123.191C177.028 122.796 178.21 121.968 178.684 120.847C178.99 120.122 178.987 119.332 178.98 118.562C178.971 117.72 179.297 117.239 179.289 116.393Z" fill="#FFBF9D"/>
<path d="M161.677 116.18C158.119 115.876 154.457 116.527 151.334 118.019C150.831 118.259 150.305 118.562 150.14 119.035C149.936 119.622 150.91 119.785 151.621 119.842C154.287 120.055 156.959 119.635 159.632 119.497C162.304 119.358 165.139 119.541 167.375 120.806" stroke="#032021" stroke-miterlimit="10" stroke-linecap="round" stroke-linejoin="round"/>
<path d="M145.491 116.79C149.593 113.716 155.381 112.381 160.724 113.275" stroke="#032021" stroke-miterlimit="10" stroke-linecap="round" stroke-linejoin="round"/>
<path d="M139.111 112.599C141.482 113.531 144.105 113.771 146.699 113.995C147.311 114.047 151.897 113.805 153.86 113.3" stroke="#032021" stroke-miterlimit="10" stroke-linecap="round" stroke-linejoin="round"/>
<path d="M198.362 131.471C195.286 135.195 194.988 140.464 197.629 144.428" stroke="#032021" stroke-miterlimit="10" stroke-linecap="round" stroke-linejoin="round"/>
<path d="M112.912 153.529C47.5773 153.529 39.8289 161.107 38.9111 162.915C39.5667 170.627 68.673 176.887 105.215 177.287C162.372 177.283 175.672 167.589 178.524 164.345C178.831 163.788 179.005 163.224 179.005 162.65C179.005 161.936 178.749 161.233 178.276 160.546C174.688 157.656 161.128 153.529 112.912 153.529Z" fill="#8CC2F2"/>
<path opacity="0.52" d="M112.912 153.529C47.5773 153.529 39.8289 161.107 38.9111 162.915C39.5667 170.627 68.673 176.887 105.215 177.287C162.372 177.283 175.672 167.589 178.524 164.345C178.831 163.788 179.005 163.224 179.005 162.65C179.005 161.936 178.749 161.233 178.276 160.546C174.688 157.656 161.128 153.529 112.912 153.529Z" fill="#46647B"/>
<path d="M38.913 167.231C37.8742 167.231 36.87 166.875 36.357 166.252C36.1597 166.012 34.4999 163.837 37.0558 161.17C43.071 154.89 67.2629 151.707 108.959 151.707C150.326 151.707 174.11 154.863 179.653 161.088C181.661 163.345 180.748 165.459 179.89 166.354C179.065 167.214 177.294 167.489 175.933 166.967C174.573 166.445 174.137 165.324 174.963 164.464C175.015 164.393 175.463 163.729 174.538 162.776C172.374 160.544 161.649 155.352 108.959 155.352C55.1749 155.352 44.2049 160.742 41.9847 163.061C41.1389 163.944 41.4617 164.56 41.466 164.566C42.2022 165.458 41.6562 166.559 40.2457 167.025C39.8192 167.165 39.3625 167.231 38.913 167.231Z" fill="#46647B"/>
<path opacity="0.37" d="M125.771 171.901C117.167 167 117.999 164.48 121.489 157.938C124.203 149.441 116.589 141.352 116.043 132.969C115.474 135.878 116.518 138.54 115.949 141.45C114.909 137.794 112.911 133.898 110.142 130.715C108.843 137.603 123.264 151.271 109.644 155.004C101.487 150.069 108.325 133.902 100.856 127.617C98.6831 127.178 98.7004 129.836 100.533 129.926C101.493 133.775 107.388 155.908 100.934 156.229C94.574 149.956 106.576 136.149 95.5423 132.081C101.112 141.443 96.6171 152.847 93.9344 162.512C92.969 165.59 87.9595 172.756 91.6594 175.398C99.1643 177.52 119.504 175.362 125.771 171.901Z" fill="white"/>
<path d="M78.7037 197.542L76.5498 202.931C76.5498 202.931 107.352 210.841 140.298 202.931L138.071 197.542H78.7037Z" fill="#46647B"/>
<path d="M38.7842 163.302C38.7842 163.302 90.2872 185.481 179.247 163.302C179.247 163.302 183.907 167.024 172.872 168.11C166.741 213.975 46.5744 209.523 42.8961 169.351C42.8961 169.351 32.9563 167.179 38.7842 163.302Z" fill="#46647B"/>
<path opacity="0.37" d="M132.773 185.608C127.822 190.997 125.824 196.948 140.897 192.485C161.075 182.44 147.397 167.419 140.168 177.034C137.957 179.974 135.359 182.793 132.773 185.608Z" fill="white"/>
<path d="M52.3979 112.3C45.3598 111.463 39.765 115.366 33.4123 116.98C22.7305 116.561 20.9201 129.009 25.0304 135.903C27.7428 153.78 51.7396 145.435 63.3298 139.162C55.6095 138.39 50.9058 130.312 54.714 124.359C57.0788 120.447 62.2318 118.06 63.7727 113.842C64.6985 111.308 61.9417 112.242 60.3229 112.296C57.6906 112.382 55.0334 112.299 52.3979 112.3Z" fill="#F0F0F0"/>
<path d="M68.2573 106.559C60.7048 104.418 60.21 113.312 55.2714 116.13C45.4201 120.901 46.7877 133.681 56.6779 137.756C50.8904 126.927 62.0388 120.766 71.5143 116.522C78.7961 112.703 75.4189 107.607 68.2573 106.559Z" fill="#F0F0F0"/>
<path d="M83.9381 123.231C78.587 131.146 67.798 133.962 57.8396 133.003C51.8583 134.375 56.1959 140.893 60.4047 141.828C72.8536 145.251 85.7561 134.286 83.9381 123.231Z" fill="#F0F0F0"/>
<path d="M75.6593 110.984L109.868 108.489C120.228 106.285 127.085 104.886 135.227 111.31C135.906 111.845 135.417 112.851 134.507 112.793C133.711 112.742 132.922 112.619 132.156 112.422C134.365 112.736 137.501 114.363 139.258 116.243C140.093 117.137 139.391 118.792 138.114 118.516C134.508 117.737 127.25 114.862 124.557 114.656C125.83 115.748 131.481 118.013 132.574 119.246C133.119 119.861 132.198 120.777 131.376 120.484C113.333 114.054 106.147 120.286 87.1661 124.055C83.7531 124.794 81.2194 127.908 78.3792 129.73C72.5776 133.237 64.3722 135.829 57.4878 133.664C54.2774 131.543 54.6314 126.551 56.2881 123.635C58.5273 120.313 61.5992 119.705 64.7436 117.009C68.2995 115.2 71.3887 111.366 75.6593 110.984Z" fill="#FFBF9D"/>
<path d="M132.572 119.249C133.229 121.161 130.106 120.669 129.565 120.187C124.17 118.039 115.745 116.086 110.714 118.071" stroke="#032021" stroke-miterlimit="10" stroke-linecap="round" stroke-linejoin="round"/>
<path d="M134.506 112.794C132.007 111.869 127.708 110.301 123.613 110.301" stroke="#032021" stroke-miterlimit="10" stroke-linecap="round" stroke-linejoin="round"/>
<path d="M121.616 113.755C127.214 114.214 132.803 116.962 137.513 118.331" stroke="#032021" stroke-miterlimit="10" stroke-linecap="round" stroke-linejoin="round"/>
<path d="M45.8294 113.099C43.0174 114.07 40.2054 115.04 37.3945 116.011C35.9955 116.493 34.5695 116.982 33.0698 117.066C32.1018 117.12 31.1273 117.004 30.1636 117.094C27.8247 117.311 25.7133 118.845 25.0322 120.825" stroke="#032021" stroke-miterlimit="10" stroke-linecap="round" stroke-linejoin="round"/>
<path d="M65.4399 106.135C57.4229 108.197 50.558 113.477 47.1699 120.187" stroke="#032021" stroke-miterlimit="10" stroke-linecap="round" stroke-linejoin="round"/>
<path d="M57.0442 133.182C55.8575 134.444 55.3756 136.197 55.7741 137.797C56.1736 139.397 57.4448 140.811 59.1253 141.522C60.9856 142.309 63.1522 142.23 65.2095 142.082" stroke="#032021" stroke-miterlimit="10" stroke-linecap="round" stroke-linejoin="round"/>
<path d="M57.2295 133.28C59.8141 133.905 62.4864 134.332 65.1663 134.244C67.8463 134.155 70.5446 133.526 72.7481 132.185" stroke="#032021" stroke-miterlimit="10" stroke-linecap="round" stroke-linejoin="round"/>
<path d="M59.1145 141.17C57.1374 140.339 55.4428 138.56 55.2825 136.639C48.1134 136.445 44.3301 129.482 45.1509 123.802C40.9507 130.161 51.2459 148.893 59.1145 141.17Z" fill="#032021"/>
</svg>
