<svg width="392" height="336" viewBox="0 0 392 336" fill="none" xmlns="http://www.w3.org/2000/svg">
<path d="M54.4366 327C38.7193 327 25.9336 314.071 25.9336 298.179V28.8361C25.9336 12.9351 38.7193 0 54.4366 0H340.555C356.271 0 369.058 12.9351 369.058 28.8361V298.179C369.058 314.071 356.273 327 340.555 327H54.4366Z" fill="white"/>
<path d="M358.782 29.1648V298.508C358.782 309.242 350.089 318.022 339.479 318.022H53.3602C42.7348 318.022 34.0566 309.242 34.0566 298.508V29.1648C34.0566 18.4308 42.7348 9.63574 53.3602 9.63574H339.479C350.089 9.63574 358.782 18.4308 358.782 29.1648Z" fill="#90ACC1"/>
<path d="M356.253 106.21C343.634 105.264 329.713 106.892 312.448 111.313C311.16 111.655 309.872 111.98 308.6 112.322C300.857 114.369 292.869 116.479 284.834 116.448C271.051 116.37 257.313 109.716 248.159 98.6093C243.33 92.7769 239.803 85.8277 237.795 78.3821C237.059 75.6831 236.507 72.9221 236.169 70.13C238.607 69.8663 241.014 69.4475 243.36 68.8425C246.963 67.9428 250.428 66.6554 253.71 64.9491C259.183 62.0795 262.986 58.7444 265.286 54.7269C268.199 49.6702 268.321 43.6362 265.623 39.355C263.783 36.4698 260.732 34.5309 256.991 33.8949C252.406 33.1193 247.362 34.4223 243.805 37.2609C237.948 41.9764 235.587 49.3755 234.697 55.6422C234.529 56.759 234.421 57.8293 234.345 58.853C234.084 62.1415 234.13 65.43 234.421 68.6719C228.028 69.1528 221.404 68.5013 214.919 66.795C209.246 65.2904 203.665 62.9791 198.421 59.9233C192.533 56.4798 187.059 52.1055 182.322 46.8471C182.168 46.6764 182.015 46.5058 181.862 46.3352C180.605 44.9081 179.393 43.4345 178.274 41.9454C176.633 39.8203 175.131 37.6332 173.751 35.3995C168.661 27.2094 165.119 18.3988 162.712 9.63477H161.056C163.432 18.3988 166.913 27.2094 171.926 35.446C173.276 37.6797 174.748 39.8824 176.327 42.023C177.691 43.8534 179.148 45.6372 180.681 47.39C181.065 47.8243 181.463 48.2741 181.862 48.693C181.862 48.7085 181.862 48.7085 181.862 48.7085C186.508 53.6877 191.767 57.8603 197.424 61.1798C203.143 64.5458 209.261 67.0432 215.471 68.5788C221.833 70.161 228.319 70.7505 234.605 70.2696C234.973 73.3564 235.571 76.4122 236.43 79.3749C238.515 86.836 242.072 93.7852 246.933 99.633C256.393 111.096 270.575 117.968 284.819 118.045C293.083 118.061 301.164 115.951 308.983 113.873C310.271 113.547 311.559 113.206 312.847 112.864C329.927 108.49 343.68 106.877 356.146 107.823C357.035 107.885 357.909 107.963 358.783 108.056V106.443C357.94 106.35 357.112 106.272 356.253 106.21ZM235.924 58.9772C235.985 58.1395 236.077 57.2709 236.2 56.3712C236.997 50.2907 239.19 43.0312 244.801 38.5174C247.393 36.4388 250.858 35.2599 254.292 35.2599C255.12 35.2599 255.917 35.3375 256.715 35.4771C260.011 36.0355 262.71 37.7263 264.274 40.2236C266.635 43.9464 266.497 49.453 263.921 53.9204C261.805 57.6121 258.11 60.854 252.974 63.5065C249.923 65.0887 246.687 66.3297 243.345 67.1828C240.953 67.8188 238.5 68.2686 236.016 68.5323C235.709 65.3679 235.694 62.1725 235.924 58.9772Z" fill="#D0E7F7"/>
<path d="M104.571 257.881C104.08 256.796 103.589 255.725 103.068 254.639C98.5909 245.177 93.3165 235.979 88.1035 226.92C87.9962 226.75 87.9042 226.563 87.7968 226.393C77.3554 208.213 66.6381 189.382 62.667 168.907C62.6056 168.705 62.5903 168.504 62.5443 168.317C62.8049 168.286 63.0503 168.271 63.3263 168.255C69.6126 167.588 75.6229 162.95 78.6127 156.42C81.8019 149.44 81.2959 141.886 80.2839 136.767C79.87 134.642 79.2107 132.237 77.3708 130.733C75.9755 129.585 74.2583 129.182 72.403 129.569C68.8612 130.283 65.7028 133.54 64.1389 136.457C59.8611 144.492 58.6959 154.636 60.6431 166.689C54.8934 166.239 49.0824 162.423 45.6173 156.591C42.4435 151.255 40.9102 144.305 40.9715 135.386C41.0175 124.714 43.0261 113.732 44.9427 103.122C48.2852 84.6634 51.7503 65.5686 44.912 48.0095C42.3668 41.4325 38.595 36.1431 34.0566 32.6064V34.6695C37.9511 38.02 41.1709 42.782 43.4401 48.5834C50.0944 65.7392 46.8285 83.7482 43.3787 102.843C41.4469 113.515 39.4383 124.559 39.3923 135.371C39.331 144.6 40.9256 151.813 44.2527 157.413C48.0705 163.835 54.5408 167.976 60.9344 168.302C60.9804 168.612 61.0417 168.907 61.103 169.217C65.1815 190.142 76.1288 209.237 86.7389 227.727C86.8922 228.006 87.0455 228.27 87.2142 228.549C92.7645 238.213 98.3762 248.016 102.976 258.161V258.207C103.482 259.339 103.988 260.472 104.463 261.604V261.635C108.45 271.004 111.47 280.621 112.681 290.673L114.215 290.052C112.79 278.869 109.216 268.212 104.571 257.881ZM65.551 137.201C67.1762 134.176 70.1201 131.663 72.7266 131.136C74.1219 130.857 75.3484 131.136 76.3604 131.974C77.817 133.168 78.3842 135.216 78.7369 137.077C79.6875 141.963 80.1935 149.161 77.173 155.738C74.4132 161.772 68.9088 166.068 63.1591 166.658L62.2699 166.72C60.2904 154.915 61.3944 145.003 65.551 137.201Z" fill="#D0E7F7"/>
<path d="M228.238 258.669L327.819 173.895L352.512 220.991L258.193 303.306L228.238 258.669Z" fill="#4D7B9E"/>
<path d="M239.572 251.4L327.476 176.567L349.274 218.14L266.016 290.804L239.572 251.4Z" fill="#D0E7F7"/>
<path d="M225.944 216.894L300.158 215.802L307.984 220.716L302.047 226.995L227.294 227.542L225.944 216.894Z" fill="black"/>
<path d="M330.652 186.794L341.581 208.295C341.581 208.295 351.431 200.514 346.034 189.865C341.147 180.222 330.652 186.794 330.652 186.794Z" fill="black"/>
<path d="M232.15 274.774C232.15 274.774 250.232 255.389 250.772 252.659C251.311 249.929 254.819 227.268 256.169 223.992C257.518 220.716 276.679 202.15 279.917 202.696C283.155 203.242 287.473 208.156 286.663 217.986C286.663 217.986 293.41 219.351 292.87 227.541C292.87 227.541 298.537 228.087 297.457 235.458C297.457 235.458 302.315 238.188 301.505 244.741C300.696 251.293 260.755 297.706 260.755 297.706L232.15 274.774Z" fill="#E8A19A"/>
<path d="M292.333 228.208C292.261 228.208 292.187 228.199 292.115 228.177C291.693 228.056 291.45 227.611 291.571 227.186C293.115 221.721 287.552 219.205 286.543 218.799L273.491 219.606C273.058 219.646 272.678 219.297 272.652 218.853C272.624 218.411 272.957 218.031 273.396 218.005L286.618 217.187C286.724 217.18 286.833 217.197 286.933 217.232C289.789 218.264 294.752 221.763 293.096 227.627C292.995 227.979 292.678 228.208 292.333 228.208Z" fill="black"/>
<path d="M297.459 236.262C297.379 236.262 297.299 236.249 297.221 236.224C296.802 236.091 296.571 235.641 296.704 235.219C297.96 231.191 293.98 229.145 293.132 228.762L278.469 229.435C278.042 229.488 277.661 229.114 277.641 228.67C277.622 228.228 277.96 227.853 278.397 227.834L293.241 227.152C293.363 227.139 293.465 227.164 293.569 227.206C295.812 228.104 299.673 231.036 298.216 235.702C298.109 236.043 297.796 236.262 297.459 236.262Z" fill="black"/>
<path d="M286.529 238.308C286.127 238.308 285.782 237.999 285.74 237.585C285.696 237.144 286.013 236.752 286.45 236.709L298.459 235.48C298.908 235.44 299.284 235.758 299.327 236.197C299.371 236.637 299.054 237.03 298.618 237.073L286.61 238.302C286.582 238.306 286.555 238.308 286.529 238.308Z" fill="black"/>
<path d="M210.922 32.6564C215.152 32.4237 219.434 33.2178 223.309 34.9505C224.879 35.6532 226.42 36.5389 227.5 37.8884C229.158 39.9561 229.497 42.8552 229.009 45.4705C228.522 48.0857 227.301 50.4931 226.096 52.8587C228.324 54.1989 231.024 54.399 233.494 55.1947C237.128 56.3643 240.346 58.9516 242.057 62.3983C243.768 65.845 243.863 70.1292 242.074 73.5356C239.851 77.7656 235.305 80.0629 231.347 82.6968C230.956 82.9573 230.549 83.2459 230.361 83.6802C230.115 84.2495 230.309 84.9072 230.513 85.4935C231.6 88.6113 232.95 91.768 232.776 95.0688C232.599 98.4504 230.814 101.565 228.56 104.069C224.466 108.615 218.658 111.542 212.605 112.108C206.552 112.674 200.311 110.874 195.463 107.163C188.291 101.672 184.629 92.663 182.648 83.7872C180.192 72.7879 179.772 61.1822 181.615 50.0495C182.822 42.759 185.638 38.7493 192.803 36.6847C198.626 35.0079 204.853 32.9899 210.922 32.6564Z" fill="black"/>
<path d="M217.207 82.6057C217.22 89.1702 216.35 95.8185 215.397 102.04C214.274 109.365 212.976 116.668 212.066 124.026C211.476 128.726 209.227 133.045 205.746 136.175C201.85 139.685 196.731 141.435 191.533 141.061L183.307 140.618L183.295 140.797L182.782 149.492L182.588 152.71L181.685 170.209L182.09 176.761L137.618 152.281L140.562 120.786C128.761 118.361 121.627 106.311 127.733 96.5258C131.737 90.118 137.724 91.6986 142.016 94.1076C140.378 89.2462 139.661 83.9925 140.044 78.5557C141.571 56.8394 160.206 40.4886 181.673 42.032C192.893 42.8386 203.597 48.291 210.265 57.5669C215.544 64.9132 217.191 73.6835 217.207 82.6057Z" fill="#E8A19A"/>
<path d="M189.373 115.766C187.65 115.194 186.103 114.06 185.057 112.558C184.833 112.237 184.91 111.797 185.226 111.572C185.542 111.345 185.979 111.421 186.201 111.742C187.343 113.382 189.201 114.496 191.164 114.722C193.133 114.95 195.189 114.289 196.665 112.955C196.954 112.696 197.395 112.72 197.654 113.011C197.912 113.303 197.887 113.751 197.599 114.012C195.83 115.611 193.366 116.404 191.006 116.131C190.451 116.066 189.904 115.941 189.373 115.766Z" fill="black"/>
<path d="M182.78 149.49C161.048 145.727 156.15 136.004 156.15 136.004C168.741 139.881 179.718 140.655 183.293 140.796L182.78 149.49Z" fill="black"/>
<path d="M141.88 114.32C141.854 114.319 141.826 114.314 141.799 114.308C141.495 114.241 141.303 113.937 141.369 113.631C142.259 109.515 141.865 105.105 140.259 101.213C139.306 98.9001 138.047 97.079 136.521 95.7962C134.755 94.3118 132.599 93.5672 130.595 93.7797C130.282 93.8014 130.011 93.5843 129.98 93.2709C129.95 92.9576 130.174 92.6784 130.483 92.6474C132.775 92.4131 135.241 93.243 137.24 94.9214C138.907 96.3221 140.271 98.2905 141.297 100.774C142.99 104.878 143.407 109.53 142.467 113.873C142.409 114.154 142.154 114.34 141.88 114.32Z" fill="black"/>
<path d="M179.645 97.368C179.484 99.6513 177.525 101.37 175.269 101.207C173.012 101.044 171.313 99.0618 171.474 96.7785C171.635 94.4952 173.595 92.7765 175.852 92.9394C178.107 93.1023 179.806 95.0847 179.645 97.368Z" fill="black"/>
<path d="M210.073 99.5574C209.912 101.841 207.952 103.559 205.697 103.397C203.44 103.234 201.741 101.251 201.902 98.968C202.063 96.6847 204.023 94.966 206.278 95.1288C208.533 95.2917 210.232 97.2741 210.073 99.5574Z" fill="black"/>
<path d="M126.563 99.3567C127.915 95.9255 130.897 92.7534 134.369 92.1856C137.838 91.6179 140.791 93.1365 143.533 95.4198C146.274 97.7031 148.836 100.677 149.847 104.215C150.865 104.544 152.005 103.957 152.832 103.238C154.728 101.587 156.09 99.2605 156.637 96.7367C156.962 95.2414 157.039 93.6081 157.912 92.3765C160.066 89.33 164.636 89.7519 168.209 89.406C171.78 89.0601 175.731 88.1107 177.732 84.9495C180.098 81.2143 178.738 75.9512 180.806 72.0252C182.187 69.4037 184.858 67.8464 187.503 66.759C190.148 65.6701 192.949 64.8821 195.289 63.1774C198.786 60.6273 200.819 56.2825 201.609 51.8834C202.399 47.4828 202.087 42.9674 201.773 38.5124C188.495 35.5838 174.487 34.2498 161.052 36.53C156.174 37.3583 151.296 38.545 146.843 40.833C141.673 43.4901 137.222 47.5712 133.564 52.2634C131.38 55.0633 129.45 58.1129 128.145 61.4634C126.578 65.4871 125.954 69.8334 125.502 74.1472C124.64 82.311 125.246 91.2798 126.563 99.3567Z" fill="black"/>
<path d="M171.642 84.6271C171.935 85.9176 173.146 86.7723 174.347 87.2966C175.175 87.6596 176.042 87.9264 176.919 88.1405C178.43 88.5096 180.027 88.7222 181.528 88.3142C184.282 87.5665 186.298 83.6778 183.81 81.455C181.807 79.6649 177.697 79.9054 175.286 80.4204C173.388 80.8252 171.122 82.3376 171.642 84.6271Z" fill="black"/>
<path d="M215.112 88.8981C214.557 90.0972 213.195 90.6741 211.912 90.9316C211.027 91.11 210.123 91.186 209.221 91.2078C207.668 91.2465 206.061 91.1147 204.68 90.3965C202.144 89.078 200.981 84.848 203.878 83.2038C206.208 81.8806 210.176 82.9913 212.425 84.0088C214.196 84.8092 216.096 86.7699 215.112 88.8981Z" fill="black"/>
<path d="M193.076 109.192C192.544 109.192 192.011 109.154 191.499 109.107C191.063 109.068 190.741 108.677 190.779 108.238C190.818 107.796 191.193 107.481 191.64 107.509C193.147 107.644 194.695 107.708 195.646 106.859C196.621 105.991 196.725 104.356 196.701 102.874C196.632 98.8368 196.155 94.7914 195.284 90.853C195.188 90.4202 195.457 89.9921 195.884 89.8944C196.316 89.8044 196.736 90.0712 196.83 90.5024C197.725 94.5479 198.216 98.7003 198.286 102.847C198.318 104.694 198.154 106.76 196.695 108.063C195.684 108.964 194.381 109.192 193.076 109.192Z" fill="black"/>
<path d="M137.158 132.532L182.899 157.514L192.615 183.314L128.251 149.322L137.158 132.532Z" fill="#4D7B9E"/>
<path d="M268.306 300.024L257.477 317.844H69.2188C72.1994 296.992 88.8627 188.513 117.734 160.797L119.811 158.214L120.667 157.139L130.274 145.222L130.384 145.285L137.868 149.52L181.944 174.463L191.267 179.74L191.806 180.045L215.683 236.618L220.932 249.016L225.435 259.683C225.435 259.683 225.435 259.683 225.435 259.699L228.051 265.874L228.448 266.805L228.638 267.27L231.746 263.902L234.299 261.16L234.711 260.712L234.774 260.792L235.82 262.012L239.673 266.519L263.55 294.46L265.595 296.851L268.306 300.024Z" fill="#D0E7F7"/>
<path d="M228.237 266.842C227.888 266.842 227.569 266.608 227.474 266.25C214.751 218.791 162.783 187.594 162.26 187.283C162.053 187.161 161.912 186.95 161.875 186.71C161.84 186.468 161.914 186.226 162.078 186.047L170.969 176.303L120.303 158.683C119.889 158.539 119.668 158.083 119.811 157.666C119.952 157.245 120.403 157.022 120.818 157.168L172.633 175.187C172.886 175.276 173.077 175.487 173.143 175.751C173.209 176.013 173.139 176.29 172.956 176.49L163.898 186.418C170.724 190.694 217.011 221.102 229.001 265.833C229.116 266.261 228.866 266.701 228.444 266.816C228.375 266.833 228.306 266.842 228.237 266.842Z" fill="black"/>
<path d="M176.424 306.156H176.42C175.981 306.154 175.628 305.793 175.632 305.349C175.635 304.521 175.776 222.131 153.525 191.984C131.574 162.244 106.697 179.693 106.448 179.871C106.094 180.129 105.598 180.046 105.343 179.685C105.088 179.325 105.171 178.824 105.527 178.565C105.788 178.377 131.925 160.038 154.795 191.026C177.361 221.6 177.22 304.524 177.215 305.358C177.215 305.797 176.86 306.156 176.424 306.156Z" fill="black"/>
<path d="M104.764 250.912L102.878 317.847H101.293L103.18 250.864C103.18 250.415 103.561 250.125 103.988 250.077C104.432 250.093 104.764 250.462 104.764 250.912Z" fill="black"/>
<path d="M236.136 261.769L235.819 262.01L232.268 264.688L161.873 317.845H159.226L175.651 305.447L177.204 304.26L227.495 266.294L228.05 265.877L228.843 265.267L231.38 263.359L234.298 261.161L234.773 260.792L235.186 260.486C235.535 260.213 236.026 260.294 236.296 260.646C236.549 261 236.484 261.496 236.136 261.769Z" fill="black"/>
<path d="M309.602 42.8364V78.0726" stroke="black" stroke-width="0.6809" stroke-miterlimit="10" stroke-linecap="round" stroke-linejoin="round"/>
<path d="M319.732 49.8926L298.539 71.8709" stroke="black" stroke-width="0.6809" stroke-miterlimit="10" stroke-linecap="round" stroke-linejoin="round"/>
<path d="M327.018 60.4546H292.188" stroke="black" stroke-width="0.6809" stroke-miterlimit="10" stroke-linecap="round" stroke-linejoin="round"/>
<path d="M320.53 71.1951L298.539 50.0249" stroke="black" stroke-width="0.6809" stroke-miterlimit="10" stroke-linecap="round" stroke-linejoin="round"/>
<path d="M323.096 265.074V300.312" stroke="black" stroke-width="0.6809" stroke-miterlimit="10" stroke-linecap="round" stroke-linejoin="round"/>
<path d="M333.225 272.132L312.034 294.109" stroke="black" stroke-width="0.6809" stroke-miterlimit="10" stroke-linecap="round" stroke-linejoin="round"/>
<path d="M340.511 282.694H305.682" stroke="black" stroke-width="0.6809" stroke-miterlimit="10" stroke-linecap="round" stroke-linejoin="round"/>
<path d="M334.026 293.436L312.034 272.266" stroke="black" stroke-width="0.6809" stroke-miterlimit="10" stroke-linecap="round" stroke-linejoin="round"/>
<path d="M84.2637 81.3315V116.569" stroke="black" stroke-width="0.6809" stroke-miterlimit="10" stroke-linecap="round" stroke-linejoin="round"/>
<path d="M94.3927 88.3877L73.2002 110.366" stroke="black" stroke-width="0.6809" stroke-miterlimit="10" stroke-linecap="round" stroke-linejoin="round"/>
<path d="M101.679 98.9502H66.8486" stroke="black" stroke-width="0.6809" stroke-miterlimit="10" stroke-linecap="round" stroke-linejoin="round"/>
<path d="M95.1915 109.691L73.2002 88.5225" stroke="black" stroke-width="0.6809" stroke-miterlimit="10" stroke-linecap="round" stroke-linejoin="round"/>
<path d="M262.925 154.348C269.26 153.02 275.459 157.138 276.771 163.548C278.084 169.957 274.013 176.229 267.678 177.556C261.342 178.884 255.143 174.766 253.831 168.356C252.518 161.949 256.589 155.676 262.925 154.348Z" fill="black"/>
<path d="M274.776 174.136C278.358 168.686 276.895 161.33 271.508 157.706C266.12 154.082 258.849 155.563 255.267 161.013C251.685 166.463 253.148 173.819 258.535 177.443C263.923 181.067 271.194 179.586 274.776 174.136Z" fill="#4D7B9E"/>
<path d="M274.888 173.589L254.882 161.98" stroke="black" stroke-width="0.5281" stroke-miterlimit="10" stroke-linecap="round" stroke-linejoin="round"/>
<path d="M290.255 139.364C296.59 138.036 302.789 142.154 304.101 148.564C305.414 154.973 301.343 161.244 295.008 162.572C288.672 163.9 282.473 159.782 281.161 153.372C279.849 146.963 283.919 140.691 290.255 139.364Z" fill="black"/>
<path d="M289.995 141.019C296.33 139.691 302.529 143.809 303.842 150.219C305.154 156.628 301.083 162.9 294.748 164.227C288.413 165.555 282.214 161.437 280.901 155.027C279.589 148.62 283.66 142.348 289.995 141.019Z" fill="#D0E7F7"/>
<path d="M302.218 158.605L282.212 146.994" stroke="black" stroke-width="0.5281" stroke-miterlimit="10" stroke-linecap="round" stroke-linejoin="round"/>
<path d="M47.3051 250.819C50.4022 245.073 57.518 242.956 63.1971 246.089C68.8763 249.223 70.9707 256.422 67.872 262.167C64.7749 267.913 57.6591 270.032 51.9799 266.897C46.3008 263.763 44.2079 256.564 47.3051 250.819Z" fill="black"/>
<path d="M48.3871 252.091C51.4843 246.346 58.6 244.227 64.2792 247.362C69.9583 250.495 72.0527 257.694 68.954 263.439C65.8568 269.185 58.7411 271.302 53.0619 268.169C47.3828 265.035 45.29 257.837 48.3871 252.091Z" fill="#4D7B9E"/>
<path d="M69.5474 254.039L47.8535 261.959" stroke="black" stroke-width="0.5281" stroke-miterlimit="10" stroke-linecap="round" stroke-linejoin="round"/>
<path d="M53.6947 220.042C56.7919 214.297 63.9077 212.18 69.5868 215.313C75.266 218.446 77.3603 225.645 74.2617 231.391C71.1645 237.136 64.0487 239.255 58.3696 236.12C52.6905 232.988 50.5976 225.79 53.6947 220.042Z" fill="black"/>
<path d="M54.7758 221.314C57.8729 215.568 64.9887 213.449 70.6678 216.584C76.347 219.718 78.4414 226.917 75.3427 232.662C72.2456 238.408 65.1297 240.525 59.4506 237.391C53.7715 234.258 51.6786 227.059 54.7758 221.314Z" fill="#D0E7F7"/>
<path d="M75.936 223.262L54.2422 231.183" stroke="black" stroke-width="0.5281" stroke-miterlimit="10" stroke-linecap="round" stroke-linejoin="round"/>
<path d="M83.7982 24.7156C89.8223 27.1012 92.7938 33.976 90.4356 40.0705C88.0775 46.165 81.2822 49.1712 75.258 46.7855C69.2339 44.3998 66.2625 37.525 68.6207 31.4305C70.9788 25.336 77.7741 22.3299 83.7982 24.7156Z" fill="black"/>
<path d="M82.6888 25.9602C88.713 28.3459 91.6844 35.2206 89.3263 41.3151C86.9681 47.4096 80.1728 50.4158 74.1487 48.0301C68.1245 45.6444 65.1531 38.7697 67.5113 32.6752C69.8694 26.5807 76.6647 23.5745 82.6888 25.9602Z" fill="#4D7B9E"/>
<path d="M83.44 47.4447L72.9434 26.6685" stroke="black" stroke-width="0.5281" stroke-miterlimit="10" stroke-linecap="round" stroke-linejoin="round"/>
<path d="M114.784 27.2527C120.808 29.6384 123.779 36.5131 121.421 42.6076C119.063 48.7021 112.268 51.7082 106.243 49.3226C100.219 46.9369 97.2479 40.0621 99.606 33.9676C101.964 27.8731 108.759 24.867 114.784 27.2527Z" fill="black"/>
<path d="M113.672 28.4963C119.696 30.882 122.668 37.7567 120.31 43.8512C117.952 49.9457 111.156 52.9519 105.132 50.5662C99.1079 48.1805 96.1365 41.3058 98.4947 35.2113C100.853 29.1168 107.648 26.1106 113.672 28.4963Z" fill="#D0E7F7"/>
<path d="M114.425 49.9823L103.929 29.2061" stroke="black" stroke-width="0.5281" stroke-miterlimit="10" stroke-linecap="round" stroke-linejoin="round"/>
</svg>
