<svg width="363" height="243" viewBox="0 0 363 243" fill="none" xmlns="http://www.w3.org/2000/svg">
<g clip-path="url(#clip0_846_22671)">
<path d="M105.448 78.8269C105.448 76.9766 103.688 73.7487 103.688 73.7487C103.688 73.7487 99.8961 68.553 98.24 59.6399C96.8637 52.2317 102.367 36.7802 97.7743 28.9664C92.4354 19.8784 85.4365 21.8588 85.4365 21.8588C68.9449 13.817 59.4027 24.8266 56.8426 29.3608C52.6289 36.8333 52.2295 43.1018 51.7573 52.8023C51.3007 62.1755 50.247 71.0858 49.0371 78.8241H105.448V78.8269Z" fill="#58412F"/>
<path d="M126.107 134.119C126.107 134.119 125.48 153.992 127.767 174.591L142.679 240.024H133.5C133.5 240.024 112.407 193.199 109.275 175.24C107.757 166.541 106.336 132.324 106.336 132.324L126.107 134.119Z" fill="#E8A19A"/>
<path d="M121.113 176.42C123.096 175.974 125.08 175.526 127.062 175.08C127.653 174.947 127.403 173.974 126.812 174.107C124.83 174.553 122.847 175 120.863 175.447C120.271 175.579 120.522 176.553 121.113 176.42Z" fill="#B46871"/>
<path d="M101.915 91.8374C101.915 91.8374 114.996 98.3464 119.221 108.946C123.446 119.546 132.524 141.87 132.524 141.87L109.403 144.674L101.915 91.8374Z" fill="#D07786"/>
<path d="M122.955 223.201C125.077 232.391 23.1424 237.985 32.426 215.869C35.152 209.379 43.5768 174.934 41.6164 156.836C39.6518 138.736 27.9523 111.273 38.7217 100.373C46.4729 92.5289 58.9174 88.7779 63.9618 85.0253C66.1898 83.367 67.4973 82.2189 67.4973 82.2189C67.4973 82.2189 78.5918 77.0901 89.7097 84.2208C90.7592 84.8958 91.773 85.5369 92.7429 86.1564C106.36 94.8082 112.42 98.4823 113.361 111.665C114.368 125.789 122.687 132.331 123.925 142.344C125.162 152.356 114.021 164.323 114.021 164.323C114.084 178.746 120.092 210.812 122.955 223.201Z" fill="#D07786"/>
<path d="M104.712 177.129C93.9296 187.468 79.9644 193.565 65.5308 194.239C64.9285 194.267 64.9259 195.277 65.5308 195.249C80.222 194.562 94.4018 188.366 105.375 177.843C105.828 177.41 105.162 176.698 104.712 177.129Z" fill="#8F3D4E"/>
<path d="M110.985 105.273C110.284 111.695 113.094 117.587 115.932 123.019C119.093 129.068 121.905 135.644 120.536 142.742C120.414 143.376 121.319 143.647 121.441 143.011C122.66 136.688 120.768 130.575 118.03 125.014C114.984 118.822 111.123 112.615 111.924 105.273C111.994 104.63 111.054 104.635 110.985 105.273Z" fill="#8F3D4E"/>
<path d="M47.7173 141.408C52.5748 163.919 50.3594 187.915 41.456 208.952C41.2075 209.539 42.0167 210.053 42.2665 209.461C51.2792 188.165 53.5414 163.933 48.6227 141.139C48.4861 140.507 47.5807 140.774 47.7173 141.408Z" fill="#8F3D4E"/>
<path d="M108.3 121.583H96.7821L95.5293 115.736H107.048L108.3 121.583Z" fill="white"/>
<path d="M62.012 86.4929C68.8808 94.2858 76.8697 100.777 84.1261 108.126C84.5658 108.571 85.2306 107.859 84.7896 107.413C77.5331 100.063 69.543 93.5725 62.6755 85.7797C62.2592 85.3069 61.5957 86.0216 62.012 86.4929Z" fill="white"/>
<path d="M93.5295 87.0584C90.981 94.1701 86.9924 100.59 84.0537 107.514C83.8052 108.1 84.6144 108.615 84.8642 108.023C87.838 101.016 91.8552 94.5226 94.4349 87.3255C94.6522 86.7199 93.7442 86.4584 93.5295 87.0584Z" fill="white"/>
<path d="M92.155 85.6291L84.0517 101.711L64.8633 84.6026C66.976 83.0977 68.2157 82.0558 68.2157 82.0558C68.2157 82.0558 78.7362 77.4013 89.2787 83.8725C90.2739 84.4851 91.2353 85.0683 92.155 85.6291Z" fill="#E8A19A"/>
<path d="M67.8613 86.0243C67.8613 86.0243 79.4589 96.4814 89.8831 86.8313L88.4586 79.8748L86.904 72.2847L85.8164 66.9701L70.333 58.271L67.8613 86.0243Z" fill="#E8A19A"/>
<path d="M73.9639 66.8984C80.8691 79.8464 87.2565 84.2603 89.2768 83.8729L86.8715 72.1305L73.9639 66.8984Z" fill="#2C2D40"/>
<path d="M65.1181 54.8335C67.0395 59.9732 68.598 61.5676 72.7128 66.3214C76.3853 70.5632 82.1652 72.2877 85.0337 72.2261C95.4527 72.001 99.8393 66.9829 97.162 52.0489C95.4969 42.7764 97.417 37.2954 94.8685 33.9192H94.8647C94.7007 33.7696 94.5355 33.6227 94.3716 33.4814C90.409 30.0647 85.3199 28.5277 80.2607 29.0186C55.1206 31.4535 62.3615 47.4574 65.1181 54.8335Z" fill="#E8A19A"/>
<path d="M94.7009 29.6954C94.7009 29.6954 98.7038 37.7023 96.7875 40.4644C94.8726 43.2252 85.2862 36.0547 83.3127 32.4996C83.3127 32.4996 84.6371 41.698 73.9657 42.4826C73.9657 42.4826 74.6669 46.5804 72.9978 48.7943C71.3288 51.0083 72.4762 55.6921 72.4762 55.6921L62.3447 54.8026L60.1631 39.6784C60.1631 39.6784 60.3725 20.7208 94.7009 29.6954Z" fill="#58412F"/>
<path d="M93.5612 47.3789C92.3813 47.6292 91.3809 48.397 90.7448 49.4893C90.4234 50.0418 91.2352 50.5495 91.5552 49.9984C92.0691 49.1159 92.8639 48.5523 93.8097 48.3523C94.4029 48.2264 94.1531 47.253 93.5612 47.3789Z" fill="#2C2D40"/>
<path d="M82.6003 49.3163C83.5656 49.2463 84.4567 49.5554 85.1748 50.2617C85.6198 50.6995 86.2858 49.9876 85.8383 49.5484C84.9472 48.6729 83.8089 48.2212 82.599 48.3079C82.0006 48.3499 81.9954 49.3596 82.6003 49.3163Z" fill="#2C2D40"/>
<path d="M91.0293 64.7155C90.0458 65.2232 88.9543 65.3757 88.0294 64.654C87.5598 64.2876 88.1114 63.5239 88.5784 63.889C89.2393 64.405 90.0029 64.1743 90.682 63.8232C91.2049 63.5547 91.5497 64.447 91.0293 64.7155Z" fill="#B46871"/>
<path d="M78.127 54.8872C78.222 55.6886 79.4592 56.1781 80.8889 55.9809C82.3186 55.7837 83.4009 54.9753 83.306 54.174C83.211 53.3726 81.9738 52.8831 80.5441 53.0803C79.1131 53.2775 78.0308 54.0872 78.127 54.8872Z" fill="#B46871"/>
<path d="M93.04 53.6668C93.1362 54.471 94.3734 54.9591 95.8005 54.7619C96.4744 54.6696 97.0702 54.4402 97.5008 54.1423C97.4019 53.4668 97.2901 52.7689 97.1626 52.0515C97.1587 52.0207 97.1521 51.9913 97.1482 51.9647C96.676 51.8221 96.0828 51.7759 95.4558 51.8626C94.0274 52.0598 92.945 52.8668 93.04 53.6668Z" fill="#B46871"/>
<path d="M83.9648 45.0112C82.9046 44.7343 81.5777 45.1078 81.2837 46.3874C81.0092 47.5818 79.2256 47.3245 79.504 46.1147C80.0231 43.8602 82.1097 42.5484 84.2185 43.098C85.3308 43.3889 85.0914 45.3049 83.9648 45.0112Z" fill="#58412F"/>
<path d="M94.2888 45.2632C93.4953 44.4479 92.4793 43.2535 91.276 43.7528C90.1962 44.2003 89.5015 42.4185 90.5813 41.9696C92.4975 41.1752 94.0482 42.3584 95.3868 43.7346C96.2168 44.5849 95.1253 46.122 94.2888 45.2632Z" fill="#58412F"/>
<path d="M89.7401 55.3893C89.3577 55.5348 88.8984 55.6509 88.3625 55.6942C88.1192 55.7138 87.9072 55.518 87.8889 55.2565C87.8707 54.9949 88.0541 54.767 88.2961 54.7474C89.143 54.6789 89.7479 54.3978 90.1148 54.1656C88.7436 52.9209 88.0932 51.0328 88.0633 50.9447C87.98 50.6985 88.0984 50.4258 88.3274 50.3363C88.5446 50.2496 88.81 50.3727 88.8932 50.6188C88.9011 50.6398 89.6334 52.7558 91.0944 53.7656C91.2062 53.8425 91.2804 53.9698 91.2947 54.1124C91.309 54.2551 91.2635 54.3964 91.1711 54.4984C91.1412 54.5292 90.6638 55.0411 89.7401 55.3893Z" fill="#2C2D40"/>
<path d="M93.6118 57.166C93.6118 57.166 90.2906 58.2723 84.0527 57.401C84.0527 57.401 85.2639 63.3659 89.8157 62.71C93.6768 62.1533 93.6118 57.166 93.6118 57.166Z" fill="white"/>
<path d="M75.4154 57.739C75.7966 55.7152 75.2099 53.6244 73.9623 52.0524C72.3479 50.016 69.4443 46.9378 67.0883 47.6203C63.6253 48.6217 63.6006 52.0482 64.3486 55.4327C65.0966 58.8173 67.7193 63.0284 72.0344 61.7081C74.1926 61.048 75.1032 59.3963 75.4154 57.739Z" fill="#E8A19A"/>
<path d="M70.5555 57.9287C70.592 56.5035 70.5386 55.0225 69.922 53.7246C69.3717 52.5652 67.9498 50.9526 66.5591 51.6183C66.0921 51.8407 65.6888 51.0981 66.1585 50.8729C67.4984 50.2323 68.9021 50.9652 69.8361 52.0771C71.1826 53.6798 71.4089 55.87 71.3556 57.9413C71.3413 58.4923 70.5412 58.4839 70.5555 57.9287Z" fill="#2C2D40"/>
<path d="M111.819 156.342C98.7974 159.075 85.4761 159.753 72.2706 158.377C71.6696 158.314 71.6735 159.324 72.2706 159.387C85.5607 160.771 98.9652 160.066 112.069 157.315C112.662 157.191 112.411 156.218 111.819 156.342Z" fill="#8F3D4E"/>
<path d="M38.2542 153.85C38.2542 153.85 34.7613 155.869 31.1097 149.924C27.458 143.978 38.8305 139.155 39.1441 139.155C39.4576 139.155 42.9986 146.783 38.2542 153.85Z" fill="#2C2D40"/>
<path d="M26.1016 116.226C26.1016 116.226 5.67865 141.356 0.46071 158.652C-4.75593 175.948 36.0496 215.205 36.0496 215.205L41.1466 208.977C41.1466 208.977 29.1366 176.527 24.0136 165.715L41.5433 142.091C46.5011 125.513 38.909 118.816 26.1016 116.226Z" fill="#E8A19A"/>
<path d="M23.7214 165.083C21.7909 164.863 19.8603 164.644 17.9298 164.423C17.3301 164.354 17.334 165.364 17.9298 165.433C19.8603 165.652 21.7909 165.872 23.7214 166.093C24.3224 166.161 24.3172 165.151 23.7214 165.083Z" fill="#B46871"/>
<path d="M30.4761 207.302C31.6104 204.474 33.0467 204.01 35.7708 203.059C38.4727 202.116 40.8781 201.329 44.8641 202.404C47.0834 203.003 59.2365 210.098 60.2668 212.703C61.2984 215.309 49.8426 211.021 49.8426 211.021C49.8426 211.021 59.5123 217.87 58.0319 219.414C56.5514 220.959 45.8242 215.024 45.8242 215.024C45.8242 215.024 51.8942 220.597 52.1531 222.356C52.5785 225.239 41.8121 218.197 41.8121 218.197C41.8121 218.197 45.2192 225.004 44.3151 226.207C43.411 227.409 35.5509 225.741 35.9138 224.113C36.334 222.228 38.8539 223.477 39.2064 223.212C39.5863 222.928 34.8757 219.31 32.8203 217.73C28.7146 214.572 29.3534 210.102 30.4761 207.302Z" fill="white"/>
<path d="M31.2138 214.206L19.6318 201.637L36.1182 191.938L41.3348 206.011C41.3348 206.011 37.4751 214.323 31.2138 214.206Z" fill="white"/>
<path d="M44.2222 95.8135C44.2222 95.8135 34.135 103.482 17.4404 126.702C17.4404 126.702 23.4155 125.553 30.2817 131.792C43.0735 143.415 38.2536 153.849 38.2536 153.849L52.8824 137.022C52.8824 137.022 63.2831 106.093 44.2222 95.8135Z" fill="#D07786"/>
<path d="M52.2735 93.0706C57.3796 94.3433 61.3213 98.8118 62.2567 104.352C62.3647 104.989 63.2701 104.719 63.1621 104.083C62.1734 98.2202 57.9194 93.4412 52.5233 92.0958C51.9353 91.9504 51.6842 92.9238 52.2735 93.0706Z" fill="#8F3D4E"/>
<path d="M24.133 118.703C34.9318 122.146 43.2758 132.573 44.7628 144.591C44.8408 145.226 45.7814 145.234 45.702 144.591C44.1565 132.113 35.6213 121.314 24.3828 117.73C23.8025 117.545 23.5541 118.519 24.133 118.703Z" fill="white"/>
<path d="M63.5432 123.582C57.7815 130.407 52.0198 137.232 46.2581 144.059C45.8535 144.538 46.5156 145.254 46.9215 144.772C52.6832 137.947 58.4449 131.12 64.2067 124.295C64.6125 123.816 63.9504 123.1 63.5432 123.582Z" fill="#8F3D4E"/>
<g opacity="0.5">
<path d="M71.6909 45.4806C77.4318 45.0051 92.5822 43.9394 100.094 45.2009C100.094 45.2009 100.883 54.7 100.126 57.8594C99.369 61.0188 92.5327 59.3041 91.6351 57.5685C89.7058 53.8371 88.6807 58.6077 86.5915 59.1895C84.5035 59.7713 76.3741 60.7517 75.016 56.9713C73.6592 53.1924 72.8318 48.1421 72.8318 48.1421L69.4897 47.9897C68.9538 47.6484 67.7882 47.3435 66.8086 47.7058L67.5774 47.0666C68.7912 46.152 70.2105 45.6037 71.6909 45.4806Z" fill="white"/>
</g>
<path d="M69.5373 47.6811C69.4957 47.6922 69.1497 47.7929 69.1094 47.8083C69.6115 48.0363 70.1943 48.358 70.6887 48.73C70.7017 48.7398 70.8084 48.8181 70.8201 48.8307C75.3928 48.4195 79.3514 57.9816 79.393 58.0851L80.5404 57.5466C80.3401 57.0515 75.7141 46.0167 69.5373 47.6811Z" fill="white"/>
<path d="M80.6081 70.9291L79.9758 72.0899C79.6467 71.8815 71.8751 66.9585 67.8371 63.2733C65.6489 61.2845 64.4131 58.465 64.3975 55.6343C64.8424 57.4846 65.8402 59.5447 67.3583 60.7936C67.7278 61.3153 68.1597 61.8062 68.6449 62.2467C72.6036 65.8578 80.5287 70.8787 80.6081 70.9291Z" fill="white"/>
<path d="M90.0408 51.8169C90.0408 51.8169 79.9054 54.8434 78.1024 58.8433C76.3006 62.8433 76.2174 71.1718 80.7172 72.8542C85.2171 74.5367 94.8359 75.2934 97.3064 70.0781C99.7768 64.8614 99.3371 57.4448 95.8012 54.7595C92.2654 52.0742 90.0408 51.8169 90.0408 51.8169Z" fill="#4D7B9E"/>
<path d="M88.1067 57.8893C89.6262 58.1257 91.0897 58.0865 92.5285 57.7578C93.0072 57.6488 92.7067 56.8474 92.2293 56.9565C90.9297 57.253 89.5936 57.3019 88.2212 57.0879C87.7229 57.0096 87.6032 57.811 88.1067 57.8893Z" fill="#2B4B6B"/>
<path d="M84.7579 61.1218C88.4447 61.9092 91.9493 61.6575 95.264 60.3596C95.7141 60.1834 95.4189 59.3806 94.9648 59.5582C91.7737 60.8085 88.4252 61.0799 84.8724 60.3218C84.3716 60.2127 84.2545 61.0141 84.7579 61.1218Z" fill="#2B4B6B"/>
<path d="M84.4463 64.9612C88.2423 65.7766 91.8498 65.515 95.2607 64.171C95.7109 63.9934 95.4155 63.1906 94.9615 63.3696C91.6741 64.6661 88.2241 64.9458 84.5621 64.1598C84.0599 64.0521 83.9428 64.8535 84.4463 64.9612Z" fill="#2B4B6B"/>
<path d="M84.6005 69.0217C88.4902 70.0664 92.1132 69.6762 95.4748 67.9937C95.908 67.7769 95.4293 67.0609 94.9987 67.2763C91.831 68.8622 88.3835 69.2063 84.7163 68.2217C84.2141 68.086 84.0996 68.8874 84.6005 69.0217Z" fill="#2B4B6B"/>
<path d="M143.276 75.3052C143.276 75.3052 113.123 125.694 106.6 141.536C100.077 157.378 128.74 172.38 128.74 172.38L153.33 151.202L143.276 75.3052Z" fill="white"/>
<path d="M109.195 135.812C111.207 141.412 110.604 147.767 107.326 152.85C107.037 153.297 107.788 153.705 108.076 153.258C111.466 148.001 112.114 141.392 110.032 135.597C109.856 135.107 109.017 135.317 109.195 135.812Z" fill="#4D7B9E"/>
<path d="M126.62 134.89C129.871 138.427 133.121 141.964 136.371 145.502C136.735 145.899 137.347 145.324 136.985 144.93C133.734 141.394 130.485 137.856 127.234 134.318C126.871 133.922 126.258 134.495 126.62 134.89Z" fill="#4D7B9E"/>
<path d="M131.241 138.69C131.28 137.297 131.317 135.903 131.356 134.51C131.37 133.989 130.501 133.99 130.487 134.51C130.448 135.903 130.411 137.297 130.372 138.69C130.359 139.211 131.228 139.211 131.241 138.69Z" fill="#4D7B9E"/>
<path d="M145.334 27.3599C145.334 27.3599 144.173 31.3727 147.602 36.7729C151.031 42.1731 144.575 41.4817 145.684 46.0706C146.793 50.6594 151.991 49.8436 151.548 53.7388C151.106 57.634 145.217 60.3246 149.175 63.4881C153.133 66.6515 146.793 67.864 148.798 73.0591C150.803 78.2531 154.369 80.9471 160.524 76.9084C166.679 72.8698 182.997 64.6266 189.808 67.2275C196.619 69.8273 202.938 64.5145 200.271 61.425C197.603 58.3355 191.05 55.4455 192.009 53.6906C192.968 51.9358 194.062 49.6666 191.48 45.8543C188.897 42.042 188.326 41.9647 189.528 37.3892C190.729 32.8138 191.528 32.0036 188.164 27.8283C184.799 23.6518 187.464 24.3488 184.157 19.4305C180.749 14.3597 168.783 11.1089 159.496 17.6935C159.496 17.6935 147.597 15.115 145.334 27.3599Z" fill="#2C2D40"/>
<path d="M200.57 123.665C200.57 123.665 198.381 135.143 202.566 144.904C202.566 144.904 176.397 165.911 143.528 144.651C146.277 139.448 148.649 134.079 149.708 128.131L200.57 123.665Z" fill="#E8A19A"/>
<path d="M207.285 102.296C203.575 112.182 199.895 122.563 199.919 129.771C199.929 132.78 193.367 134.359 184.958 134.911C169.793 135.906 148.616 133.559 149.184 130.236C150.138 124.666 150.499 119.584 150.483 114.938C150.414 95.587 143.809 83.8633 146.477 76.26C147.725 72.7077 153.982 68.836 159.434 66.0423C164.012 63.698 168.015 62.1135 168.015 62.1135L182.997 60.0908C182.997 60.0908 206.652 69.4882 213.413 74.0322C217.289 76.6343 212.266 89.0203 207.285 102.296Z" fill="#E8A19A"/>
<path d="M147.258 84.3301C147.258 84.3301 148.519 89.2921 142.867 96.6096C136.039 105.448 148.243 113.455 150.953 115.836C153.664 118.217 147.258 84.3301 147.258 84.3301Z" fill="#E8A19A"/>
<path d="M156.039 67.8794C154.931 71.8452 153 75.616 150.356 78.9341C149.071 80.5444 147.625 82.0461 146.034 83.3997C145.992 83.0423 145.956 82.6938 145.93 82.3509C147.578 80.8907 149.056 79.2636 150.339 77.5166C152.362 74.7644 153.913 71.7219 154.92 68.5383C155.286 68.3153 155.661 68.0968 156.039 67.8794Z" fill="#B46871"/>
<path d="M205.54 107.01C205.45 107.261 205.36 107.512 205.267 107.761C202.102 107.605 198.945 106.821 195.989 105.679C185.386 101.59 177.654 92.8347 166.655 89.4572C160.645 87.6127 154.174 87.3505 148.032 88.5563C147.67 88.6258 147.31 88.702 146.95 88.7826C146.95 88.7793 146.95 88.7793 146.95 88.777C146.894 88.498 146.839 88.2212 146.785 87.9511C146.908 87.9231 147.031 87.8951 147.153 87.8705C147.397 87.8178 147.638 87.7696 147.882 87.7225C148.958 87.513 150.049 87.346 151.145 87.2261C156.259 86.6625 161.526 87.0782 166.444 88.5182C171.837 90.0982 176.57 92.9871 181.126 96.0374C188.188 100.761 196.594 106.703 205.54 107.01Z" fill="#B46871"/>
<path d="M160.009 121.276C158.684 123.484 157.198 125.603 155.57 127.617C154.287 129.205 152.914 130.729 151.46 132.184C150.237 133.409 148.954 134.588 147.617 135.706C147.818 135.167 148.007 134.629 148.186 134.084C149.017 133.35 149.823 132.594 150.602 131.815C151.923 130.509 153.173 129.141 154.348 127.724C156.06 125.666 157.616 123.498 159.001 121.232C161.818 116.63 165.763 108.957 159.361 105.265C156.797 103.788 153.662 103.423 150.521 103.629C150.251 103.646 149.984 103.668 149.715 103.693C147.193 103.932 144.7 104.511 142.536 105.147C142.191 105.248 141.846 105.353 141.508 105.465C141.4 105.205 141.307 104.941 141.223 104.673C142.556 104.237 143.917 103.875 145.303 103.587C146.64 103.31 148.106 103.065 149.614 102.921C149.877 102.896 150.141 102.873 150.408 102.857C154.428 102.575 158.639 103.096 161.442 105.734C166.106 110.126 162.687 116.813 160.009 121.276Z" fill="#B46871"/>
<path d="M203.565 112.683C203.474 112.955 203.385 113.225 203.297 113.493C200.028 112.404 196.533 111.912 192.932 112.092C185.675 112.455 178.846 115.357 173.573 119.974C171.295 121.97 169.365 124.177 167.758 126.544C166.065 129.034 164.73 131.697 163.718 134.474C161.622 140.226 160.918 146.462 161.341 152.613C161.031 152.532 160.72 152.45 160.408 152.364C159.992 146.288 160.633 140.154 162.746 134.373C162.879 134.004 163.02 133.639 163.166 133.273C164.096 130.959 165.274 128.729 166.67 126.639C172.833 117.424 183.267 110.867 195.401 111.233C198.246 111.319 200.981 111.822 203.565 112.683Z" fill="#B46871"/>
<path d="M200.509 124.009C200.479 124.204 200.436 124.475 200.392 124.818C200.384 124.816 200.377 124.812 200.368 124.81C199.406 124.475 198.425 124.182 197.436 123.941C197.433 123.941 197.432 123.941 197.432 123.941C194.225 123.17 190.901 122.996 187.655 123.953C186.704 124.232 185.827 124.595 185.029 125.03C181.247 127.087 179.205 130.779 179.328 135.127C179.328 135.163 179.331 135.2 179.331 135.236C179.54 140.894 183.252 147.168 183.881 153.091C183.572 153.158 183.258 153.219 182.942 153.28C182.801 151.398 182.351 149.512 181.792 147.753C180.571 143.921 178.701 139.405 178.468 135.137C178.279 131.685 179.16 128.403 182.322 125.781C182.572 125.575 182.823 125.383 183.078 125.199H183.082C187.922 121.716 194.074 122.036 199.676 123.742C199.954 123.827 200.232 123.917 200.509 124.009Z" fill="#B46871"/>
<path d="M195.722 142.734C196.133 144.649 197.074 146.276 198.351 147.641C198.108 147.778 197.853 147.918 197.589 148.06C195.956 146.291 194.862 144.134 194.643 141.574C194.334 137.932 196.648 134.36 200.044 133.012C200.059 133.31 200.074 133.617 200.098 133.924C199.22 134.3 198.407 134.839 197.715 135.506C195.713 137.426 195.171 140.166 195.722 142.734Z" fill="#B46871"/>
<path d="M186.568 88.1125C182.528 91.2378 177.945 87.0961 175.168 84.4727C169.275 78.8989 164.772 72.1394 161.977 64.7871C162.25 64.656 162.519 64.5271 162.779 64.4072C163.873 67.3152 165.24 70.1346 166.871 72.8274C169.192 76.6599 172.023 80.2212 175.297 83.3947C176.913 84.9602 178.645 86.7016 180.74 87.7046C183.561 89.0549 186.411 88.0732 187.62 85.3401C188.623 83.0597 188.241 80.3949 187.925 78.0136C187.568 75.3421 186.99 72.7019 186.28 70.0954C185.36 66.7123 184.215 63.3908 183.004 60.0918C183.058 60.1108 183.451 60.27 184.116 60.5356C185.783 65.1188 187.303 69.7514 188.247 74.5128C189.063 78.6479 190.627 84.9748 186.568 88.1125Z" fill="#B46871"/>
<path d="M184.264 62.2877C184.264 62.2877 175.592 71.248 164.794 65.738L164.837 60.2168L164.884 54.1925L164.917 49.9745L176.965 40.6948L184.264 62.2877Z" fill="#AE5C5A"/>
<path d="M175.278 47.8677C171.475 58.8821 166.648 63.3365 164.812 63.3925L164.884 54.1924L175.278 47.8677Z" fill="#2C2D40"/>
<path d="M180.663 37.1776C180.16 41.4617 179.171 43.0081 176.684 47.4973C174.465 51.5045 169.854 54.101 167.359 54.7016C158.297 56.8845 153.371 54.1167 152.319 42.3246C151.668 35.0025 148.771 31.3292 150.214 28.2251H150.218C150.326 28.075 150.436 27.9282 150.545 27.7847C153.201 24.3311 157.258 22.0305 161.744 21.2561C184.038 17.4069 181.384 31.0289 180.663 37.1776Z" fill="#AE5C5A"/>
<path d="M161.208 50.3636C162.189 50.5194 163.181 50.3804 163.824 49.6173C164.15 49.2307 163.489 48.7791 163.164 49.1657C162.706 49.7114 161.982 49.7148 161.305 49.6072C160.785 49.5231 160.691 50.2807 161.208 50.3636Z" fill="#763C37"/>
<path d="M156.252 35.7193C155.301 34.9473 153.88 35.0604 153.127 36.0342C152.641 36.664 151.497 36.0768 151.987 35.4426C153.238 33.821 155.524 33.5185 157.159 34.8453C157.793 35.3596 156.882 36.2315 156.252 35.7193Z" fill="#2C2D40"/>
<path d="M162.669 34.8593C163.493 33.9684 164.916 33.8911 165.809 34.7551C166.387 35.3132 167.429 34.5803 166.848 34.0178C165.359 32.5789 163.052 32.5834 161.637 34.1152C161.087 34.708 162.122 35.4499 162.669 34.8593Z" fill="#2C2D40"/>
<path d="M175.604 37.6863C171.945 38.0561 171.606 32.9372 171.698 30.0729C170.534 30.3273 168.611 30.64 167.1 30.3318L160.704 25.8146C161.142 27.9841 164.772 31.0075 164.772 31.0075C161.441 33.1691 149.815 33.7283 149.815 33.7283C142.175 18.8557 162.245 18.6293 171.831 18.4433C181.418 18.2595 182.029 23.9331 182.928 28.6767C183.83 33.4213 180.661 37.1753 175.604 37.6863Z" fill="#2C2D40"/>
<path d="M169.422 40.1517C169.519 40.7737 168.56 41.4191 167.28 41.5951C165.999 41.771 164.88 41.4079 164.782 40.7871C164.685 40.1652 165.643 39.5197 166.924 39.3438C168.206 39.1678 169.324 39.5298 169.422 40.1517Z" fill="#763C37"/>
<path d="M156.248 42.6037C156.347 43.2279 155.386 43.8722 154.107 44.047C153.504 44.1299 152.936 44.093 152.497 43.9675C152.429 43.4385 152.369 42.8917 152.319 42.3247C152.315 42.3011 152.314 42.2776 152.312 42.2563C152.688 42.0423 153.19 41.8742 153.753 41.798C155.031 41.622 156.15 41.9829 156.248 42.6037Z" fill="#763C37"/>
<path d="M164.684 37.1872C164.776 37.7721 164.47 38.2977 163.998 38.3627C163.527 38.4277 163.07 38.0052 162.979 37.4214C162.888 36.8364 163.194 36.3109 163.665 36.2459C164.136 36.1809 164.592 36.6022 164.684 37.1872Z" fill="#2C2D40"/>
<path d="M157.09 38.5553C157.183 39.1403 156.876 39.6659 156.404 39.7309C155.933 39.7958 155.476 39.3734 155.385 38.7895C155.292 38.2046 155.599 37.679 156.071 37.614C156.541 37.549 156.997 37.9704 157.09 38.5553Z" fill="#2C2D40"/>
<path d="M172.413 41.6792C171.627 40.2493 171.663 38.5504 172.387 37.0914C173.324 35.201 175.142 32.2403 177.333 32.219C180.555 32.1877 181.348 34.7482 181.465 37.4534C181.581 40.1574 180.261 43.9047 176.232 43.889C174.218 43.8823 173.057 42.8502 172.413 41.6792Z" fill="#AE5C5A"/>
<path d="M179.765 41.4616C179.765 42.0096 179.288 42.4545 178.699 42.4545C178.111 42.4545 177.633 42.0107 177.633 41.4616C177.633 40.9136 178.109 40.4688 178.699 40.4688C179.289 40.4688 179.765 40.9136 179.765 41.4616Z" fill="white"/>
<path d="M176.494 40.5965C176.141 39.5375 175.853 38.4147 176.094 37.3042C176.308 36.3113 177.175 34.7828 178.528 34.9677C178.981 35.0293 179.163 34.3816 178.706 34.32C177.402 34.1429 176.353 35.008 175.797 36.0513C174.994 37.5563 175.291 39.2484 175.805 40.787C175.941 41.196 176.631 41.0089 176.494 40.5965Z" fill="#2C2D40"/>
<path d="M161.115 42.1666C160.197 41.2668 159.653 40.042 159.583 38.7197C159.513 37.3974 159.926 36.1288 160.744 35.1494C161.577 34.1532 162.729 33.5716 163.988 33.5145C166.563 33.3957 168.775 35.5394 168.921 38.2916C168.991 39.6139 168.578 40.8824 167.759 41.8618C166.927 42.8581 165.775 43.4385 164.516 43.4968C164.399 43.5024 164.284 43.5035 164.168 43.499C163.036 43.4632 161.962 42.997 161.115 42.1666ZM168.114 38.3286C167.99 35.9899 166.16 34.17 164.026 34.2642C163.006 34.3112 162.066 34.7886 161.38 35.61C160.679 36.4482 160.327 37.5386 160.388 38.6827C160.448 39.8257 160.915 40.8802 161.7 41.6489C162.47 42.4031 163.457 42.7931 164.476 42.746C165.497 42.6989 166.437 42.2216 167.123 41.4002C167.822 40.5619 168.175 39.4716 168.114 38.3286Z" fill="white"/>
<path d="M157.941 40.8797C158.049 40.7923 158.193 40.771 158.332 40.7945C158.344 40.5951 158.347 40.3934 158.338 40.1905C158.192 37.4383 155.979 35.2946 153.405 35.4134C152.146 35.4705 150.994 36.0521 150.161 37.0484C149.343 38.0278 148.93 39.2963 149 40.6186C149.07 41.9409 149.615 43.1657 150.533 44.0656C151.38 44.8971 152.454 45.3621 153.586 45.398C153.702 45.4013 153.817 45.4013 153.934 45.3957C155.193 45.3386 156.345 44.757 157.178 43.7608C157.435 43.4537 157.646 43.1153 157.822 42.7589C157.197 42.2502 157.359 41.3515 157.941 40.8797ZM156.539 43.3002C155.853 44.1216 154.911 44.599 153.892 44.646C152.874 44.6931 151.886 44.3031 151.116 43.549C150.33 42.7791 149.864 41.7257 149.804 40.5827C149.744 39.4397 150.095 38.3483 150.795 37.51C151.481 36.6886 152.421 36.2113 153.442 36.1642C155.575 36.0701 157.406 37.8899 157.53 40.2286C157.592 41.3716 157.239 42.462 156.539 43.3002Z" fill="white"/>
<path d="M159.112 43.3984C159.11 43.3984 159.107 43.3984 159.105 43.3984C158.489 43.4096 157.283 43.1384 157.126 42.0301C156.978 40.9846 157.889 40.422 158.538 40.2181L158.898 38.7837C158.941 38.6089 159.129 38.5013 159.316 38.5417C159.502 38.582 159.619 38.7557 159.575 38.9305L159.17 40.5498C159.14 40.6697 159.039 40.7638 158.909 40.7918C158.861 40.8031 157.692 41.0709 157.817 41.9449C157.932 42.7551 159.047 42.7518 159.094 42.7507C159.285 42.7484 159.443 42.8907 159.447 43.0689C159.448 43.246 159.301 43.3905 159.112 43.3984Z" fill="#2C2D40"/>
<path d="M157.663 38.7198C158.188 38.1091 159.011 37.8447 159.826 38.0598C160.2 38.1584 160.021 38.6963 159.645 38.5977C159.112 38.4576 158.525 38.6123 158.175 39.0202C157.935 39.3014 157.42 39.0034 157.663 38.7198Z" fill="white"/>
<path d="M168.085 36.4001C169.691 34.4368 171.938 33.1425 174.552 32.7145C174.935 32.6517 175.077 33.1997 174.693 33.2624C172.241 33.6647 170.107 34.8548 168.597 36.7004C168.363 36.9873 167.848 36.6904 168.085 36.4001Z" fill="white"/>
<path d="M145.504 134.021C145.504 134.021 153.728 166.847 202.564 142.773C202.564 142.773 207.72 187.861 206.364 218.527C205.007 249.193 129.569 252.846 131.701 204.696C133.7 159.539 145.504 134.021 145.504 134.021Z" fill="#2C2D40"/>
<path d="M161.496 159.1C161.613 161.793 160.653 164.172 159.352 164.413C158.049 164.655 156.899 162.669 156.782 159.979C156.665 157.286 157.626 154.907 158.927 154.666C160.229 154.422 161.379 156.408 161.496 159.1Z" fill="#59647A"/>
<path d="M148.238 140.664C145.805 145.494 144.214 151.596 143.567 158.434C143.451 159.654 144.368 159.992 144.484 158.778C145.102 152.24 146.632 146.507 148.954 141.898C149.386 141.039 148.666 139.812 148.238 140.664Z" fill="#59647A"/>
<path d="M173.587 152.42C173.929 159.002 173.739 165.51 173.021 171.96C172.887 173.172 173.804 173.508 173.938 172.304C174.674 165.689 174.865 158.995 174.515 152.249C174.451 151.014 173.523 151.183 173.587 152.42Z" fill="#59647A"/>
<path d="M191.631 148.61C192.087 154.974 191.901 161.262 191.074 167.461C190.915 168.658 191.832 168.991 191.991 167.804C192.838 161.446 193.026 154.961 192.559 148.436C192.471 147.217 191.543 147.381 191.631 148.61Z" fill="#59647A"/>
<path d="M139.062 154.888C153.814 174.381 172.816 175.294 189.616 170.016C194.583 168.456 199.496 166.253 204.339 163.496C204.916 163.167 204.587 161.366 204.012 161.692C187.579 171.044 169.268 175.063 152.656 165.295C148.081 162.608 143.671 158.71 139.658 153.41C139.161 152.75 138.558 154.221 139.062 154.888Z" fill="#59647A"/>
<path d="M151.043 118.03C160.836 120.514 171.241 120.161 180.821 117.046C181.376 116.866 181.057 116.068 180.5 116.249C171.063 119.318 160.848 119.638 151.205 117.193C150.637 117.048 150.48 117.888 151.043 118.03Z" fill="#B46871"/>
<path d="M202.9 98.0905C197.701 107.861 194.93 118.599 194.767 129.501C194.758 130.048 195.669 129.967 195.678 129.425C195.839 118.676 198.602 108.084 203.728 98.4536C203.989 97.9605 203.161 97.5997 202.9 98.0905Z" fill="#B46871"/>
<path d="M181.929 55.3848C181.929 55.3848 214.369 68.516 216.299 73.3704C218.23 78.2238 212.631 95.6603 209.157 104.649C205.682 113.637 226.339 241.086 226.339 241.086C209.417 247.333 185.89 248.388 170.158 245.474C170.158 245.474 182.487 143.383 178.699 122.502C174.912 101.621 178.411 99.6855 179.766 84.3299C181.121 68.9743 181.929 55.3848 181.929 55.3848Z" fill="white"/>
<path d="M180.612 111.469C183.115 145.016 181.107 178.706 177.339 212.103C176.269 221.59 175.053 231.063 173.749 240.524C173.678 241.039 174.548 241.034 174.618 240.524C179.218 207.108 182.767 173.47 182.585 139.747C182.535 130.313 182.182 120.882 181.479 111.47C181.441 110.952 180.572 110.949 180.612 111.469Z" fill="#4D7B9E"/>
<path d="M171.247 241.096C189.157 244.484 207.937 242.94 224.92 236.642C225.432 236.451 225.208 235.669 224.689 235.862C207.852 242.105 189.24 243.676 171.478 240.316C170.933 240.213 170.699 240.993 171.247 241.096Z" fill="#4D7B9E"/>
<path d="M181.931 55.3846C181.931 55.3846 180.792 78.237 178.445 91.1665C175.606 106.806 177.7 116.224 177.7 116.224L186.185 103.75L188.264 81.5495L185.606 76.7635L189.237 73.9093L189.479 58.5626C189.479 58.5626 185.98 54.8366 181.931 55.3846Z" fill="#4D7B9E"/>
<path d="M200.751 202.285C199.728 202.285 198.649 202.136 197.519 201.837C189.621 199.751 190.477 183.834 190.517 183.158C190.534 182.885 190.768 182.666 191.061 182.649L212.12 181.49C212.281 181.482 212.435 181.533 212.551 181.635C212.667 181.737 212.733 181.88 212.733 182.027C212.733 182.594 212.656 195.962 205.961 200.674C204.439 201.747 202.694 202.285 200.751 202.285ZM191.656 183.697C191.576 186.35 191.525 199.132 197.836 200.8C200.745 201.568 203.243 201.236 205.264 199.815C210.759 195.948 211.471 185.204 211.563 182.601L191.656 183.697Z" fill="#4D7B9E"/>
<path d="M164.835 60.2168C164.835 60.2168 149.113 71.211 144.674 73.6383C140.234 76.0655 145.543 86.1318 144.674 88.828C143.805 91.5242 131.657 97.8556 139.848 110.299C145.077 118.243 146.894 120.017 145.06 124.51C143.226 129.004 117.598 200.177 105 231.378C108.649 236.096 118.04 240.648 131.657 241.354H148.873C148.873 241.354 160.491 143.275 161.974 115.953C163.457 88.633 163.208 71.1214 164.835 60.2168Z" fill="white"/>
<path d="M106.293 229.167C110.315 233.484 116.12 235.863 121.996 237.145C130.678 239.039 139.798 238.871 148.62 238.109C149.172 238.061 149.177 237.252 148.62 237.3C139.996 238.045 131.086 238.232 122.587 236.443C116.718 235.207 110.922 232.905 106.908 228.595C106.54 228.201 105.928 228.774 106.293 229.167Z" fill="#4D7B9E"/>
<path d="M159.176 110.331C156.878 127.082 155.74 143.945 154.034 160.75C153.188 169.08 152.033 177.367 151.008 185.677C150.012 193.751 149.195 201.842 148.368 209.932C147.41 219.304 146.394 228.669 145.112 238.008C145.041 238.523 145.911 238.518 145.98 238.008C148.224 221.681 149.555 205.266 151.488 188.908C152.471 180.585 153.687 172.289 154.571 163.956C155.471 155.473 156.205 146.976 156.987 138.483C157.851 129.085 158.762 119.689 160.046 110.333C160.116 109.816 159.246 109.821 159.176 110.331Z" fill="#4D7B9E"/>
<path d="M143.138 81.6563C143.654 83.2509 144.163 84.8937 144.156 86.5735C144.149 88.297 143.359 89.6708 142.371 91.0738C140.731 93.4024 138.918 95.5394 138.292 98.3286C137.736 100.805 137.976 103.425 139.022 105.764C140.092 108.157 142.068 110.004 143.52 112.183C145.563 115.245 145.293 118.507 144.203 121.837C143.248 124.75 142.062 127.603 141.047 130.5C138.998 136.352 137.129 142.258 135.24 148.157C133.038 155.037 130.816 161.914 128.322 168.708C128.141 169.202 128.981 169.414 129.16 168.923C133.63 156.743 137.195 144.302 141.421 132.051C142.411 129.183 143.485 126.345 144.534 123.496C145.554 120.725 146.463 117.699 145.69 114.77C145.002 112.162 142.987 110.174 141.385 108.027C139.44 105.42 138.485 102.358 139.004 99.1825C139.574 95.6963 142.071 93.296 143.875 90.3499C145.64 87.47 144.954 84.4656 143.975 81.44C143.814 80.9447 142.975 81.1565 143.138 81.6563Z" fill="#4D7B9E"/>
<path d="M132.727 160.383C132.727 160.383 140.018 164.706 140.095 166.783C140.172 168.86 132.143 165.473 132.143 165.473C132.143 165.473 136.378 168.129 136.724 169.747C137.069 171.365 130.785 169.398 130.785 169.398C130.785 169.398 133.537 171.281 132.551 172.762C131.565 174.245 130.12 174.051 128.313 173.37C126.507 172.688 125.427 171.105 125.254 170.134C125.081 169.164 126.715 168.066 126.715 168.066C126.715 168.066 125.016 165.088 125.643 164.087C126.269 163.084 127.478 162.938 127.478 162.938C127.478 162.938 126.375 161.919 126.793 160.496C127.212 159.073 128.324 158.783 128.324 158.783C128.324 158.783 128.881 155.982 129.486 154.538C130.09 153.093 133.15 153.676 135.142 153.85C137.134 154.025 137.597 158.391 139.545 160.417C139.545 160.417 140.206 161.877 138.307 161.854C136.408 161.831 134.655 158.789 134.03 158.443C133.404 158.098 132.727 160.383 132.727 160.383Z" fill="#AE5C5A"/>
<path d="M164.835 60.2168C164.835 60.2168 160.276 60.693 157.108 65.5475L156.039 82.1313H160.436L156.022 86.1755L154.617 107.759L161.839 117.945C161.703 118.135 164.835 68.1092 164.835 60.2168Z" fill="#4D7B9E"/>
<path d="M135.624 198.896C133.075 198.896 131.02 198.039 129.518 196.348C124.825 191.062 127.149 179.429 127.25 178.936C127.31 178.645 127.612 178.455 127.921 178.506L143.763 181.165C144.062 181.215 144.269 181.47 144.236 181.752C144.231 181.794 143.744 186.01 142.504 190.17C140.78 195.96 138.465 198.896 135.624 198.896ZM128.293 179.664C127.9 181.985 126.6 191.369 130.413 195.661C131.702 197.112 133.406 197.817 135.624 197.817C140.076 197.817 142.408 186.94 143.025 182.135L128.293 179.664Z" fill="#4D7B9E"/>
<path d="M172.246 54.792C172.017 55.1147 171.662 55.4329 171.201 55.7277C169.413 56.8808 166.026 57.7145 162.191 57.3391C156.17 56.7497 155.076 53.1312 154.426 52.0678C153.893 51.1937 152.991 48.3619 152.92 46.4648C152.886 45.5201 153.058 44.8063 153.59 44.6853C156.872 43.9423 156.603 40.3732 159.383 42.0059C160.99 42.9528 164.447 43.484 165.973 43.7395C166.254 43.7854 166.511 43.8795 166.741 44.0062C166.756 43.9389 166.77 43.8717 166.784 43.8022C169.634 39.3019 172.133 34.6749 173.487 35.1613L171.833 37.9897C171.833 37.9897 168.514 42.5606 168.537 46.1398C168.558 49.8411 171.307 52.1709 171.307 52.1709C172.795 52.7289 174.557 50.6805 177.058 45.8899C177.058 45.8899 177.377 46.0445 177.377 46.8547C177.375 49.1587 172.246 54.792 172.246 54.792Z" fill="white"/>
<path d="M154.425 52.066C155.075 53.1294 156.169 56.749 162.19 57.3373C166.025 57.7127 169.412 56.879 171.2 55.7259C171.11 55.6329 170.997 55.5376 170.868 55.4435C167.092 52.6834 165.995 44.8986 165.995 44.8986C164.522 45.3401 160.076 43.5382 158.63 42.877C157.183 42.2159 156.627 43.2782 156.068 44.0447C155.527 44.7888 153.984 45.2606 152.918 46.463C152.989 48.359 153.892 51.1919 154.425 52.066Z" fill="#B0D4D8"/>
<path d="M160.013 46.2018C158.807 46.5816 157.583 46.7587 156.309 46.7262C155.887 46.715 155.946 46.1054 156.368 46.1155C157.518 46.1446 158.638 45.9922 159.726 45.6493C160.124 45.5238 160.413 46.0751 160.013 46.2018Z" fill="#70B0C5"/>
<path d="M163.557 48.0267C160.681 49.1002 157.712 49.4118 154.654 48.9523C154.239 48.8896 154.294 48.2788 154.713 48.3416C157.658 48.7831 160.502 48.5074 163.272 47.4731C163.663 47.3286 163.95 47.881 163.557 48.0267Z" fill="#70B0C5"/>
<path d="M164.863 50.475C161.902 51.5833 158.846 51.9026 155.697 51.4253C155.282 51.3625 155.337 50.7518 155.756 50.8145C158.791 51.2751 161.722 50.9916 164.578 49.9225C164.97 49.7757 165.256 50.3282 164.863 50.475Z" fill="#70B0C5"/>
<path d="M166.089 53.2457C163.106 54.53 160.005 54.7586 156.817 54.0347C156.407 53.9416 156.634 53.3668 157.044 53.4587C160.047 54.1411 162.991 53.9035 165.804 52.6933C166.189 52.5274 166.473 53.0799 166.089 53.2457Z" fill="#70B0C5"/>
<path d="M172.816 146.651L205.543 144.779C206.578 144.719 207.341 143.855 207.204 142.898L200.806 98.461C200.682 97.597 199.861 96.9695 198.926 97.0221L166.2 98.8946C165.165 98.954 164.402 99.818 164.539 100.775L170.937 145.213C171.06 146.078 171.881 146.705 172.816 146.651Z" fill="#2C2D40"/>
<path d="M169.599 146.835L202.326 144.963C203.361 144.903 204.124 144.039 203.987 143.082L197.589 98.6447C197.465 97.7807 196.645 97.1521 195.709 97.2058L162.983 99.0784C161.947 99.1378 161.184 100.002 161.323 100.959L167.721 145.396C167.845 146.261 168.665 146.889 169.599 146.835Z" fill="#2C2D40"/>
<path d="M203.29 139.016C203.086 138.993 202.918 138.846 202.889 138.649L197.264 99.5805C197.23 99.3474 197.406 99.1334 197.657 99.102C197.908 99.0706 198.139 99.2342 198.173 99.4673L203.798 138.536C203.831 138.769 203.656 138.983 203.404 139.014C203.364 139.019 203.326 139.02 203.29 139.016Z" fill="#59647A"/>
<path d="M190.49 125.323L202.651 132.282L199.512 138.468L186.757 134.741C186.757 134.741 185.498 125.429 190.49 125.323Z" fill="#AE5C5A"/>
<path d="M191.777 127.499C191.777 127.499 191.201 123.343 188.328 120.889C185.455 118.435 184.406 118.799 181.379 118.658C175.852 118.4 175.495 118.791 176.723 119.879C178.252 121.236 183.107 121.426 181.698 121.669C180.289 121.912 167.729 117.712 165.85 118.272C163.97 118.833 165.877 120.095 165.877 120.095C165.877 120.095 163.057 119.173 162.273 120.169C161.491 121.167 163.161 122.235 163.161 122.235C163.161 122.235 161.255 121.677 161.203 122.965C161.152 124.254 171.57 129.111 171.257 129.792C170.945 130.472 166.034 126.1 164.808 127.12C163.581 128.141 167.263 130.012 170.006 131.81C172.747 133.608 176.116 134.748 179.223 134.577C182.33 134.406 187.891 135.716 189.535 132.847C191.178 129.979 191.777 127.499 191.777 127.499Z" fill="#AE5C5A"/>
<path d="M165.864 120.529C168.864 121.909 171.908 123.124 175.05 124.197C175.323 124.29 175.523 123.909 175.249 123.815C172.106 122.742 169.064 121.527 166.062 120.146C165.798 120.025 165.6 120.408 165.864 120.529Z" fill="#763C37"/>
<path d="M163.095 122.498C166.304 124.59 169.721 126.341 173.342 127.736C173.612 127.841 173.811 127.458 173.54 127.354C169.957 125.973 166.568 124.247 163.391 122.175C163.152 122.019 162.854 122.341 163.095 122.498Z" fill="#763C37"/>
<path d="M216.298 73.3687C216.298 73.3687 247.537 127.172 243.772 151.202C240.928 169.355 191.93 140.914 191.93 140.914L196.578 123.843L209.154 126.307L205.539 107.01L216.298 73.3687Z" fill="white"/>
<path d="M202.675 125.43C201.059 131.503 199.442 137.575 197.827 143.648C197.692 144.153 198.53 144.368 198.665 143.863C200.281 137.79 201.897 131.718 203.512 125.645C203.647 125.14 202.81 124.924 202.675 125.43Z" fill="#4D7B9E"/>
<path d="M199.887 145.753C203.934 147.508 207.914 149.386 211.826 151.386C212.316 151.637 212.755 150.938 212.264 150.688C208.352 148.688 204.372 146.809 200.325 145.055C199.822 144.836 199.381 145.533 199.887 145.753Z" fill="#4D7B9E"/>
<path d="M243.972 144.457C237.536 145.699 232.345 150.605 231.113 156.618C231.008 157.127 231.846 157.345 231.95 156.834C233.13 151.075 238.036 146.427 244.202 145.236C244.751 145.131 244.518 144.351 243.972 144.457Z" fill="#4D7B9E"/>
<path d="M199.003 92.919C203.53 104.643 208.707 116.138 213.234 127.862C213.421 128.348 214.262 128.138 214.071 127.646C209.545 115.923 204.367 104.428 199.841 92.7038C199.653 92.2175 198.813 92.427 199.003 92.919Z" fill="#4D7B9E"/>
<path d="M204.573 125.821C210.188 127.25 215.78 128.75 221.37 130.263C221.908 130.409 222.138 129.629 221.601 129.483C216.011 127.972 210.419 126.471 204.804 125.041C204.264 124.903 204.034 125.683 204.573 125.821Z" fill="#4D7B9E"/>
<path d="M213.871 128.103C215.308 127.208 216.878 126.689 218.492 126.143C219.013 125.967 218.788 125.185 218.261 125.363C216.575 125.934 214.934 126.47 213.432 127.405C212.969 127.693 213.404 128.394 213.871 128.103Z" fill="#4D7B9E"/>
<path d="M269.756 151.92C269.756 151.92 292.918 196.712 309.775 196.336C326.632 195.96 342.499 136.071 342.499 136.071L331.316 131.465L311.111 161.565L291.306 128.344L269.756 151.92Z" fill="#E8A19A"/>
<path d="M310.775 161.103C308.648 164.807 307.509 168.915 307.45 173.197C307.442 173.768 308.322 173.824 308.33 173.249C308.388 169.124 309.457 165.168 311.508 161.595C311.791 161.103 311.059 160.606 310.775 161.103Z" fill="#B46871"/>
<path d="M310.158 162.591C307.778 164.065 306.003 166.079 304.825 168.632C304.586 169.149 305.424 169.426 305.661 168.911C306.73 166.596 308.389 164.725 310.545 163.39C311.026 163.093 310.642 162.291 310.158 162.591Z" fill="#B46871"/>
<path d="M342.846 119.908C342.846 119.908 337.772 117.128 341.326 112.502C343.794 109.289 343.697 100.037 344.655 98.913C346.344 96.9315 348.76 100.674 347.62 107.471C347.62 107.471 358.16 105.793 360.19 107.706C362.221 109.62 360.281 111.926 360.281 111.926C360.281 111.926 362.879 113.199 362.995 115.296C363.111 117.394 360.976 118.409 360.976 118.409C360.976 118.409 362.923 119.039 362.708 120.866C362.495 122.693 359.681 123.332 359.681 123.332C359.681 123.332 361.951 123.495 361.439 125.375C360.927 127.256 358.527 128.735 350.686 127.617C342.846 126.502 342.846 119.908 342.846 119.908Z" fill="#2B4B6B"/>
<path d="M354.937 123.295C355.978 123.257 357.019 123.219 358.061 123.18C358.586 123.161 358.622 122.331 358.091 122.351C357.05 122.389 356.009 122.426 354.969 122.465C354.442 122.484 354.406 123.314 354.937 123.295Z" fill="#1C2F3C"/>
<path d="M350.905 108.53C349.262 110.637 350.645 113.193 353.161 113.534C353.135 113.261 353.11 112.988 353.085 112.715C351.525 113.06 350.456 114.461 350.757 116.1C351.078 117.84 352.693 118.787 354.352 118.676C354.294 118.415 354.236 118.154 354.177 117.893C351.589 119.057 351.622 123.094 354.796 123.262C354.71 123.021 354.623 122.78 354.536 122.539C353.449 123.321 352.592 124.524 352.862 125.939C353.088 127.13 354.113 127.896 355.293 127.806C355.815 127.766 355.852 126.935 355.323 126.977C354.117 127.069 353.425 126.038 353.699 124.904C353.889 124.122 354.471 123.6 355.089 123.155C355.397 122.933 355.156 122.449 354.828 122.432C352.408 122.305 352.793 119.424 354.556 118.631C354.918 118.468 354.794 117.82 354.382 117.848C353.343 117.917 352.273 117.568 351.772 116.567C351.122 115.268 351.905 113.828 353.265 113.526C353.745 113.42 353.633 112.766 353.19 112.706C351.261 112.444 350.38 110.541 351.595 108.984C351.924 108.562 351.229 108.113 350.905 108.53Z" fill="#1C2F3C"/>
<path d="M352.688 113.716C354.273 113.263 355.879 112.909 357.507 112.656C358.03 112.574 357.847 111.764 357.325 111.846C355.697 112.099 354.091 112.453 352.506 112.906C351.998 113.052 352.177 113.864 352.688 113.716Z" fill="#1C2F3C"/>
<path d="M354.202 118.755C355.599 118.472 356.997 118.189 358.394 117.906C358.914 117.801 358.733 116.99 358.212 117.096C356.815 117.379 355.417 117.662 354.02 117.945C353.5 118.05 353.681 118.861 354.202 118.755Z" fill="#1C2F3C"/>
<path d="M347.989 125.099L340.152 149.506C333.141 148.775 328.879 144.86 324.413 139.346L340.139 114.952L347.989 125.099Z" fill="#2B4B6B"/>
<path d="M340.766 146.091C335.4 144.66 330.737 141.305 327.676 136.63C327.43 136.254 327.992 135.843 328.238 136.22C331.192 140.734 335.689 144.017 340.877 145.4C341.305 145.513 341.198 146.205 340.766 146.091Z" fill="white"/>
<path d="M347.424 120.745C348.418 120.955 349.249 121.444 349.908 122.226C350.253 122.634 350.861 122.076 350.518 121.669C349.775 120.789 348.794 120.191 347.671 119.953C347.158 119.845 346.905 120.635 347.424 120.745Z" fill="#1C2F3C"/>
<path d="M349.811 115.199C348.817 118.595 346.19 121.205 342.798 122.129C342.288 122.267 342.466 123.079 342.98 122.939C346.649 121.94 349.518 119.132 350.595 115.45C350.745 114.937 349.961 114.686 349.811 115.199Z" fill="#1C2F3C"/>
<path d="M287.134 105.574L303.22 143.505C303.22 143.505 291.184 163.229 275.024 166.38L287.134 105.574Z" fill="#70B0C5"/>
<path d="M301.122 139.22C295.228 147.37 288.255 154.941 279.663 160.229C279.185 160.523 279.621 161.282 280.101 160.986C288.826 155.617 295.889 147.938 301.873 139.663C302.204 139.207 301.449 138.768 301.122 139.22Z" fill="white"/>
<path d="M263.096 80.6277C263.096 80.6277 279.423 91.2577 284.725 99.68C289.619 107.454 286.876 109.558 281.833 144.664C276.789 179.772 281.212 200.092 284.48 218.851C288.143 239.877 296.323 235.418 262.074 238.051C244.856 239.376 199.643 234.478 192.766 230.92C185.889 227.362 198.658 152.486 199.576 135.393C200.493 118.302 197.192 99.326 207.278 90.0875C217.364 80.8491 242.45 77.3921 242.45 77.3921L263.096 80.6277Z" fill="#70B0C5"/>
<path d="M285.561 117.229C282.797 132.822 280.808 148.521 279.335 164.287C279.282 164.849 280.154 164.846 280.206 164.287C281.671 148.598 283.651 132.978 286.401 117.463C286.498 116.909 285.659 116.672 285.561 117.229Z" fill="#2B4B6B"/>
<path d="M221.252 187.273C231.2 199.23 245.294 207.461 260.483 210.38C264.805 211.211 269.195 211.601 273.593 211.556C274.153 211.55 274.154 210.672 273.593 210.678C253.879 210.879 234.542 201.887 221.868 186.652C221.506 186.219 220.894 186.843 221.252 187.273Z" fill="#2B4B6B"/>
<path d="M269.754 191.122C258.007 192.229 246.163 190.662 235.096 186.539C234.571 186.343 234.343 187.191 234.865 187.386C245.997 191.535 257.939 193.114 269.754 192.001C270.307 191.948 270.312 191.069 269.754 191.122Z" fill="#2B4B6B"/>
<path d="M276.685 124.085L266.163 122.284L266.613 117.382L277.135 119.181L276.685 124.085Z" fill="white"/>
<path d="M207.762 125.759C203.291 152.718 200.785 180.001 200.315 207.331C200.182 215.087 200.215 222.845 200.404 230.599C200.417 231.164 201.288 231.165 201.274 230.599C200.613 203.408 201.93 176.177 205.246 149.184C206.198 141.43 207.322 133.698 208.601 125.992C208.694 125.439 207.855 125.202 207.762 125.759Z" fill="white"/>
<path d="M265.96 83.5922C266.075 86.1977 264.788 89.2922 262.548 90.6436C259.546 92.456 255.606 92.7771 252.228 92.1203C245.418 90.7956 240.222 85.1358 239.243 78.2474C239.163 77.6878 238.281 77.7097 238.361 78.2766C239.443 85.8899 245.312 92.0838 252.942 93.1384C256.473 93.6262 260.635 93.1566 263.601 91.0085C265.74 89.4576 266.958 86.1782 266.841 83.5642C266.817 82.9925 265.934 83.0193 265.96 83.5922Z" fill="white"/>
<path d="M240.997 78.774C240.997 81.7614 256.204 94.4934 264.21 83.9826L262.817 74.7441L262.077 68.5685L261.56 64.2442L245.433 58.6987C245 66.4994 243.431 73.0947 240.997 78.774Z" fill="#E8A19A"/>
<path d="M248.354 65.5161C254.358 75.5756 260.793 77.6666 263.097 77.1168L262.077 68.5729L248.354 65.5161Z" fill="#2C2D40"/>
<path d="M244.348 53.8438C244.298 54.5274 244.287 55.1624 244.318 55.7669C244.387 57.1658 244.67 58.4053 245.173 59.6971C245.839 61.3976 246.887 63.1954 248.345 65.5698C250.634 69.2992 254.803 71.0144 258.949 71.4012C269.96 72.4314 271.635 64.9592 271.75 53.4521C271.82 46.3071 274.159 42.5545 272.647 39.6376H272.643C272.537 39.499 272.428 39.3639 272.317 39.2326C269.696 36.059 265.898 34.0945 261.821 33.6372C261.035 33.5496 260.283 33.4912 259.558 33.4608C259.394 33.4486 259.228 33.4426 259.068 33.4413C259.001 33.4365 258.933 33.434 258.868 33.4365C258.685 33.4292 258.504 33.4255 258.322 33.428C258.193 33.4255 258.064 33.4255 257.937 33.4292C257.643 33.4304 257.358 33.4389 257.079 33.4511C248.165 33.8622 245.492 39.0659 244.705 44.3694C244.169 47.9735 244.509 51.6239 244.348 53.8438Z" fill="#E8A19A"/>
<path d="M263.78 62.9617C267.173 63.0286 267.503 59.2286 267.503 59.2286L260.201 58.7031C260.201 58.7031 259.766 62.8826 263.78 62.9617Z" fill="white"/>
<path d="M261.356 50.1637C261.245 50.7573 260.796 51.1697 260.354 51.0858C259.913 51.0018 259.646 50.452 259.756 49.8596C259.869 49.266 260.316 48.8537 260.758 48.9376C261.201 49.0203 261.467 49.5701 261.356 50.1637Z" fill="#2C2D40"/>
<path d="M268.539 50.9665C268.428 51.5601 267.979 51.9724 267.537 51.8885C267.096 51.8045 266.828 51.2547 266.939 50.6624C267.051 50.0688 267.498 49.6564 267.941 49.7403C268.382 49.8243 268.65 50.3729 268.539 50.9665Z" fill="#2C2D40"/>
<path d="M255.996 53.8683C255.951 54.4777 256.856 55.0409 258.017 55.1273C259.178 55.2124 260.154 54.7879 260.199 54.1785C260.244 53.5691 259.338 53.0059 258.178 52.9196C257.017 52.8344 256.04 53.2589 255.996 53.8683Z" fill="#B46871"/>
<path d="M271.682 56.3391C271.277 56.5702 270.667 56.6907 269.996 56.6408C268.837 56.5556 267.932 55.9924 267.976 55.3818C268.02 54.7736 268.997 54.3491 270.157 54.4355C270.796 54.4829 271.356 54.6751 271.726 54.9391L271.682 56.3391Z" fill="#B46871"/>
<path d="M261.096 46.8774C260.384 46.7132 259.411 46.8945 259.216 47.7362C259.098 48.2471 258.687 48.6521 258.132 48.5779C257.655 48.5135 257.178 48.0038 257.297 47.4856C257.722 45.6537 259.498 44.5176 261.345 44.9434C261.852 45.0601 262.255 45.4774 262.18 46.0357C262.116 46.5198 261.61 46.9966 261.096 46.8774Z" fill="#2C2D40"/>
<path d="M270.117 49.2006C269.902 48.3601 269.469 47.8298 268.598 47.6558C267.375 47.4126 267.719 45.4943 268.942 45.7376C270.446 46.0368 271.558 47.0525 271.943 48.5547C272.25 49.7626 270.428 50.4182 270.117 49.2006Z" fill="#2C2D40"/>
<path d="M248.076 57.2581C246.517 57.1657 245.272 56.6086 244.317 55.7632C244.387 57.162 244.669 58.4015 245.173 59.6933C246.309 59.2287 247.307 58.4514 248.076 57.2581Z" fill="#2C2D40"/>
<path d="M247.186 44.4723C251.484 46.0013 251.373 53.5769 253.719 52.4469C256.065 51.3169 252.779 38.6957 258.543 39.4474C264.307 40.1979 263.511 41.2501 266.143 41.6369C270.621 42.2925 270.787 40.0252 272.644 39.6371C272.538 39.4985 272.428 39.3635 272.317 39.2321C269.697 36.0585 265.899 34.0941 261.822 33.6367C261.036 33.5491 260.284 33.4907 259.558 33.4603C259.394 33.4482 259.229 33.4421 259.069 33.4409C259.001 33.436 258.934 33.4336 258.869 33.436C258.685 33.4287 258.505 33.425 258.323 33.4275C258.194 33.425 258.065 33.425 257.938 33.4287C257.648 33.4263 257.359 33.4348 257.08 33.4506C248.166 33.8617 245.492 39.0654 244.705 44.3689C245.413 44.1293 246.243 44.1353 247.186 44.4723Z" fill="#2C2D40"/>
<path d="M253.716 52.4515C251.372 53.5803 251.485 46.0059 247.184 44.4769C246.242 44.1399 245.411 44.1326 244.706 44.3723C244.17 47.9764 244.509 51.628 244.348 53.8479C244.3 54.5133 244.288 55.1336 244.317 55.7236C242.963 50.9991 241.468 45.433 241.244 43.1133C241.198 42.645 241.191 42.2059 241.218 41.7947C241.33 41.6889 241.44 41.5867 241.557 41.4894C242.059 41.0588 242.609 40.7036 243.193 40.4068C244.116 39.9446 245.133 39.6381 246.189 39.4556C249.614 38.8535 253.483 39.5262 256.203 40.228C253.79 42.9248 255.635 51.5258 253.716 52.4515Z" fill="#2C2D40"/>
<path d="M241.683 48.58C241.683 48.58 237.599 42.2037 239.393 36.9355C241.185 31.6674 246.196 30.9837 246.196 30.9837C246.196 30.9837 250.468 26.3116 260.557 26.0087C268.564 25.7679 271.157 30.5945 271.157 30.5945C271.157 30.5945 276.474 34.6925 275.605 39.7661C274.734 44.8396 272.548 46.2494 272.548 46.2494C272.548 46.2494 273.206 39.2953 264.209 39.2126C255.211 39.1311 246.197 45.7106 246.197 45.7106L241.683 48.58Z" fill="#4D7B9E"/>
<path d="M274.925 42.0779C271.821 36.6808 265.44 34.6227 259.554 35.4961C252.297 36.5738 246.401 41.3068 240.883 45.8354C240.449 46.1918 241.068 46.8097 241.498 46.4557C246.521 42.3334 251.803 38.0687 258.272 36.6224C264.19 35.299 270.968 36.9448 274.174 42.5195C274.455 43.0097 275.207 42.5682 274.925 42.0779Z" fill="#2B4B6B"/>
<path d="M263.925 65.2932C263.07 65.5109 262.184 65.4465 261.559 64.7616C261.244 64.4138 261.793 63.9369 262.109 64.2836C262.555 64.7726 263.193 64.7264 263.784 64.5755C264.237 64.46 264.375 65.1776 263.925 65.2932Z" fill="#B46871"/>
<path d="M251.774 54.7665C252.497 53.0271 252.31 51.0407 251.401 49.3913C250.224 47.2541 248.005 43.937 245.636 44.0927C242.155 44.3214 241.522 47.3867 241.632 50.5639C241.741 53.7411 243.493 58.0203 247.842 57.6712C250.018 57.4961 251.182 56.1921 251.774 54.7665Z" fill="#E8A19A"/>
<path d="M247.711 53.912C247.976 52.6056 248.162 51.2311 247.765 49.9283C247.411 48.7642 246.274 47.0309 244.8 47.4019C244.306 47.526 244.028 46.7706 244.526 46.6465C245.946 46.2901 247.208 47.2097 247.946 48.3969C249.01 50.1083 248.881 52.1653 248.494 54.0628C248.393 54.5688 247.607 54.4217 247.711 53.912Z" fill="#2C2D40"/>
<path d="M267.741 54.522C267.157 53.4735 266.572 52.4237 265.987 51.3752C265.954 51.3789 265.919 51.3813 265.884 51.3776C265.881 51.3776 265.879 51.3776 265.877 51.3764C265.576 51.346 265.373 51.683 265.521 51.9469C266.006 52.8166 266.49 53.6864 266.975 54.5549C266.379 54.938 265.831 55.3625 265.314 55.8625C264.997 56.169 265.437 56.6993 265.757 56.3904C266.321 55.8454 266.906 55.3869 267.579 54.9818C267.729 54.8918 267.84 54.6984 267.741 54.522Z" fill="#2C2D40"/>
<path d="M193.462 102.828C193.462 102.828 189.077 113.924 198.323 122.301C224.705 146.208 212.367 110.262 212.367 110.262C212.367 110.262 213.265 95.3932 193.462 102.828Z" fill="#2C2D40"/>
<path d="M203.699 93.0222C203.699 93.0222 168.387 129.228 166.341 136.036C161.234 153.035 215.128 210.963 215.128 210.963L221.91 202.507L195.239 146.619L220.844 115.681C221.473 100.154 213.187 92.3982 203.699 93.0222Z" fill="#E8A19A"/>
<path d="M222.612 203.825L212.942 211.107L198.219 194.627L197.741 194.091L196.004 192.147C198.244 184.687 212.703 180.044 212.703 180.044L214.054 183.291L214.344 183.982L222.612 203.825Z" fill="#2B4B6B"/>
<path d="M208.244 191.693C204.803 194.124 204.174 198.969 206.466 202.522C207.675 204.397 208.831 206.564 209.244 208.493C210.232 213.122 210.126 218.867 211.281 221.062C212.984 224.302 214.271 220.566 214.367 220.081C214.981 216.973 215.098 212.535 215.098 212.535C215.098 212.535 216.839 220.387 216.261 223.502C215.684 226.618 217.519 228.791 219.704 226.193C221.89 223.596 221.756 214.544 221.047 212.045C221.047 212.045 223.359 216.609 222.715 220.854C222.073 225.1 222.407 226.706 223.029 228.329C223.652 229.95 226.738 228.369 227.485 222.42C228.232 216.47 227.039 214.001 226.019 211.264C226.019 211.264 227.606 213.014 229.537 216.388C231.468 219.761 230.337 224.607 232.251 225.911C234.209 227.243 235.268 221.602 234.473 218.228C233.677 214.854 233.383 212.332 230.819 208.732C228.255 205.131 225.682 201.78 223.634 199.997C221.586 198.214 215.13 190.906 211.238 190.637C210.244 190.566 209.219 191.004 208.244 191.693Z" fill="#2B4B6B"/>
<path d="M218.075 194.92C218.075 194.92 225.786 197.914 227.538 200.105C229.29 202.294 233.089 204.658 231.732 205.968C230.375 207.278 225.781 204.243 225.781 204.243L218.075 194.92Z" fill="#2B4B6B"/>
<path d="M214.342 183.981C207.921 185.355 202.177 189.141 198.326 194.528C198.295 194.571 198.256 194.607 198.219 194.627L197.74 194.092C197.749 194.077 197.758 194.06 197.769 194.046C201.69 188.564 207.535 184.736 214.052 183.293L214.342 183.981Z" fill="white"/>
<path d="M195.001 145.858C190.972 144.612 186.836 143.908 182.627 143.731C182.027 143.706 182.076 144.646 182.671 144.671C186.799 144.844 190.853 145.555 194.803 146.777C195.378 146.955 195.571 146.034 195.001 145.858Z" fill="#B46871"/>
<path d="M193.805 145.475C192.728 143.658 191.212 142.225 189.353 141.245C188.821 140.964 188.399 141.803 188.931 142.083C190.658 142.991 192.029 144.308 193.027 145.994C193.336 146.514 194.114 145.995 193.805 145.475Z" fill="#B46871"/>
<path d="M207.281 90.0889L193.632 102.796C193.632 102.796 214.772 116.843 214.665 131.962L229.285 116.863C229.285 116.863 222.263 91.8453 207.281 90.0889Z" fill="#70B0C5"/>
<path d="M197.317 100.235C207.63 105.784 215.466 115.407 218.84 126.701C219.001 127.241 219.841 127.011 219.678 126.467C216.242 114.964 208.264 105.131 197.756 99.4768C197.261 99.2104 196.822 99.9682 197.317 100.235Z" fill="white"/>
<path d="M235.904 114.077C229.528 119.319 223.268 124.727 216.5 129.46C216.043 129.78 216.477 130.542 216.938 130.218C223.767 125.444 230.085 119.987 236.519 114.697C236.954 114.34 236.335 113.723 235.904 114.077Z" fill="#2B4B6B"/>
<path d="M222.553 83.5459C228.199 87.5453 231.807 93.9995 232.283 100.944C232.321 101.505 233.192 101.508 233.153 100.944C232.653 93.6699 228.905 86.9773 222.991 82.7881C222.533 82.4621 222.098 83.2223 222.553 83.5459Z" fill="#2B4B6B"/>
<path d="M250.181 47.4121C254.937 48.6419 257.188 56.951 257.293 57.3609L256.17 57.6565C256.15 57.5714 254.401 51.0065 251.193 49.0165L250.181 47.4121Z" fill="white"/>
<path d="M255.559 68.8702L254.825 69.7752C254.553 69.5478 250.123 66.4958 246.921 62.7421C245.185 60.7144 242.586 57.5736 242.952 55.1396C243.343 55.7624 243.605 56.0836 244.408 56.7514C244.675 57.2537 245.39 59.2194 245.775 59.6683C248.914 63.3466 255.494 68.8155 255.559 68.8702Z" fill="white"/>
<path d="M267.501 53.8223C267.501 53.8223 256.905 54.4049 255.036 58.6866C253.492 62.2239 251.508 68.4384 255.4 70.5391C259.294 72.6398 265.539 74.3756 269.756 69.7752C273.181 66.0372 272.79 60.9016 271.496 58.4008C269.64 54.81 267.501 53.8223 267.501 53.8223Z" fill="#4D7B9E"/>
<path d="M264.172 58.7584C265.531 59.1829 266.876 59.363 268.237 59.29C268.689 59.2656 268.523 58.5334 268.071 58.5577C266.841 58.6234 265.613 58.4701 264.386 58.087C263.94 57.9471 263.721 58.6173 264.172 58.7584Z" fill="#2B4B6B"/>
<path d="M260.674 61.0474C263.943 62.2614 267.185 62.5558 270.393 61.922C270.829 61.8357 270.667 61.1034 270.227 61.1898C267.138 61.7992 264.037 61.5449 260.888 60.3748C260.443 60.2106 260.227 60.882 260.674 61.0474Z" fill="#2B4B6B"/>
<path d="M259.875 64.3028C263.24 65.5557 266.577 65.8573 269.879 65.1993C270.314 65.1129 270.152 64.3794 269.712 64.467C266.529 65.1019 263.333 64.8392 260.087 63.6313C259.642 63.4647 259.428 64.1361 259.875 64.3028Z" fill="#2B4B6B"/>
<path d="M259.469 67.8133C262.889 69.2766 266.258 69.4688 269.56 68.5139C269.985 68.3911 269.643 67.7062 269.221 67.8279C266.109 68.7292 262.908 68.5224 259.683 67.1418C259.242 66.9521 259.028 67.6235 259.469 67.8133Z" fill="#2B4B6B"/>
</g>
<defs>
<clipPath id="clip0_846_22671">
<rect width="363" height="243" fill="white"/>
</clipPath>
</defs>
</svg>
