<svg width="16" height="17" viewBox="0 0 16 17" fill="none" xmlns="http://www.w3.org/2000/svg">
<path d="M12.1466 0.645917C12.1931 0.599354 12.2483 0.562411 12.309 0.537205C12.3697 0.511998 12.4349 0.499023 12.5006 0.499023C12.5664 0.499023 12.6315 0.511998 12.6923 0.537205C12.753 0.562411 12.8082 0.599354 12.8546 0.645917L15.8546 3.64592C15.9485 3.7398 16.0013 3.86714 16.0013 3.99992C16.0013 4.13269 15.9485 4.26003 15.8546 4.35392C15.7607 4.4478 15.6334 4.50055 15.5006 4.50055C15.3679 4.50055 15.2405 4.4478 15.1466 4.35392L14.7506 3.95692L12.9576 5.74992L14.8546 7.64592C14.9485 7.7398 15.0013 7.86714 15.0013 7.99992C15.0013 8.13269 14.9485 8.26003 14.8546 8.35392C14.7607 8.4478 14.6334 8.50055 14.5006 8.50055C14.3679 8.50055 14.2405 8.4478 14.1466 8.35392L13.0006 7.20692L7.44063 12.7669C7.2084 12.9993 6.93263 13.1837 6.62909 13.3095C6.32555 13.4353 6.0002 13.5 5.67163 13.4999H3.70763L0.854632 16.3539C0.760745 16.4478 0.633407 16.5005 0.500632 16.5005C0.367856 16.5005 0.240518 16.4478 0.146631 16.3539C0.0527448 16.26 1.97851e-09 16.1327 0 15.9999C-1.97851e-09 15.8671 0.0527448 15.7398 0.146631 15.6459L3.00063 12.7929V10.8279C3.00077 10.1652 3.26406 9.52961 3.73263 9.06092L9.29263 3.49992L8.14663 2.35392C8.05274 2.26003 8 2.13269 8 1.99992C8 1.86714 8.05274 1.7398 8.14663 1.64592C8.24052 1.55203 8.36786 1.49929 8.50063 1.49929C8.63341 1.49929 8.76075 1.55203 8.85463 1.64592L10.7506 3.54292L12.5436 1.74992L12.1466 1.35392C12.1001 1.30747 12.0631 1.2523 12.0379 1.19155C12.0127 1.13081 11.9997 1.06568 11.9997 0.999917C11.9997 0.93415 12.0127 0.869029 12.0379 0.808284C12.0631 0.747538 12.1001 0.692363 12.1466 0.645917ZM8.00063 6.20692L7.20763 6.99992L7.85463 7.64592C7.94852 7.7398 8.00126 7.86714 8.00126 7.99992C8.00126 8.13269 7.94852 8.26003 7.85463 8.35392C7.76074 8.4478 7.63341 8.50055 7.50063 8.50055C7.36786 8.50055 7.24052 8.4478 7.14663 8.35392L6.50063 7.70692L5.70763 8.49992L6.35463 9.14592C6.44852 9.2398 6.50126 9.36714 6.50126 9.49992C6.50126 9.63269 6.44852 9.76003 6.35463 9.85392C6.26074 9.9478 6.13341 10.0005 6.00063 10.0005C5.86786 10.0005 5.74052 9.9478 5.64663 9.85392L5.00063 9.20692L4.44063 9.76692C4.30107 9.90631 4.19036 10.0719 4.11486 10.2541C4.03936 10.4363 4.00054 10.6317 4.00063 10.8289V12.4999H5.67263C6.07032 12.4996 6.4516 12.3413 6.73263 12.0599L12.2926 6.49992L10.0006 4.20692L8.70763 5.49992L9.35463 6.14592C9.44852 6.2398 9.50126 6.36714 9.50126 6.49992C9.50126 6.63269 9.44852 6.76003 9.35463 6.85392C9.26075 6.9478 9.13341 7.00055 9.00063 7.00055C8.86786 7.00055 8.74052 6.9478 8.64663 6.85392L8.00063 6.20692ZM14.0436 3.24992L13.2506 2.45692L11.4576 4.24992L12.2506 5.04292L14.0436 3.24992Z" fill="#4D7B9E"/>
</svg>
