<svg width="125" height="127" viewBox="0 0 125 127" fill="none" xmlns="http://www.w3.org/2000/svg">
<path opacity="0.47" d="M117.664 74.7124C121.715 48.2092 105.231 23.1545 80.8447 18.7512C56.4585 14.3479 33.4052 32.2634 29.3536 58.7666C25.302 85.2698 41.7865 110.324 66.1726 114.728C90.5587 119.131 113.612 101.216 117.664 74.7124Z" fill="#0E5E92"/>
<path d="M53.1011 75.178C50.7725 70.564 54.3256 67.6241 57.6132 64.4544C60.3558 61.8097 61.5319 57.9929 61.0099 54.2071C60.26 48.7682 63.3973 43.4077 64.9316 38.1605C66.1065 34.1415 69.6603 31.5317 73.5353 31.7478C79.8546 32.1003 86.234 33.0774 90.5243 38.1981C92.6097 41.0206 93.0129 44.9145 95.4099 47.4742C97.5226 49.7301 101.302 50.6631 104.237 52.2924C106.923 53.7841 108.374 57.058 107.816 60.2791C107.071 64.5808 107.926 65.3247 110.183 69.1942C111.078 70.7287 111.416 72.6078 110.977 74.361C108.202 85.4443 82.288 75.5147 74.1203 75.9989C67.3475 75.3941 59.0439 79.485 53.1011 75.178Z" fill="#032021"/>
<path d="M65.2212 72.1496C64.4653 73.4812 63.7329 75.1138 64.3192 76.5429C64.9145 77.993 66.5574 78.4806 68.0002 78.729C73.9025 79.745 79.9684 79.6231 85.8319 78.3712C87.0286 78.1156 88.2501 77.798 89.2498 77.0377C91.2201 75.5388 91.8554 72.7525 92.8278 70.3615C93.7856 68.0054 95.1915 65.866 96.9314 64.1174C96.45 64.6406 92.6962 63.985 91.9342 63.9606C90.2683 63.9086 88.6024 63.8565 86.937 63.8045C83.5919 63.6997 80.2248 63.7043 76.8863 63.448C71.4751 63.0323 67.8826 67.4631 65.2212 72.1496Z" fill="#B5D8E3"/>
<path d="M76.0389 63.0572C73.5279 63.8123 71.0321 64.626 68.5532 65.497C64.7818 66.8226 61.0044 68.3064 57.7205 70.7198C53.575 73.7657 50.4172 78.1452 47.657 82.6814C45.1897 86.736 42.9811 90.9758 41.0527 95.3619C39.9021 97.9788 38.338 100.921 38.7103 103.793C39.1552 107.23 42.4786 111.96 45.2509 110.237C52.8245 105.531 60.734 96.0543 66.7691 87.3514C68.2137 85.2674 69.6596 83.1716 70.8132 80.8834C73.5534 75.4478 74.5464 69.1365 77.2593 63.6845C76.9101 63.4815 76.2038 62.6665 76.0389 63.0572Z" fill="#B5D8E3"/>
<path d="M111.597 113.868C111.67 97.2925 113.886 64.7487 98.6886 64.2256C85.8316 78.3707 93.9557 123.121 93.9557 123.121C101.405 120.093 107.339 118.565 111.597 113.868Z" fill="#B5D8E3"/>
<path d="M72.3129 64.2251C72.3129 64.2251 64.1234 71.0285 65.1552 76.7481L89.2492 77.0366C89.2492 77.0366 89.3013 69.3089 96.2148 64.2251H98.6882C98.6882 64.2251 95.9378 66.881 94.8472 73.2436C93.1497 83.1476 93.0733 109.583 95.2776 122.592C95.2776 122.592 70.4173 132.148 50.502 123.121C50.502 123.121 51.3671 95.8452 56.9389 78.5145C58.6242 73.2719 62.0258 68.8233 66.5713 66.2867C68.2366 65.3583 70.1554 64.5993 72.3129 64.2251Z" fill="#4D7B9E"/>
<path d="M18.8652 55.1527C21.1949 52.6313 22.1637 61.7657 22.3474 63.3404C22.3201 65.1061 20.3323 65.5074 19.4314 64.1455C18.0886 61.5951 17.6673 57.8633 18.8652 55.1527Z" fill="#FFB47E"/>
<path d="M31.0377 70.6624C29.259 65.7875 24.3297 65.9615 24.5522 71.8201C24.6322 78.2077 25.0196 84.6824 25.9356 91.3329C26.1163 92.6447 28.2648 92.0497 29.3766 91.5035C36.8096 87.8554 33.8124 76.6021 31.0377 70.6624Z" fill="#FFB47E"/>
<path d="M38.6054 92.7809C36.3696 88.8171 34.7667 84.4331 33.8901 79.8823C33.0923 84.4944 30.2188 88.6267 26.3547 90.7193C25.9097 89.6447 25.5999 88.5035 25.4368 87.338C24.7276 89.5505 25.0683 91.9777 25.4175 94.2903C26.0152 98.2527 26.6129 102.216 27.2107 106.178C27.6836 109.313 28.2255 112.615 30.1139 115.039C31.4179 116.713 33.53 117.852 35.4669 117.237C36.1835 117.009 36.8219 116.564 37.4493 116.124C39.2983 114.828 41.1479 113.532 42.9969 112.235C46.4767 109.795 46.6119 107.278 44.4743 103.861C43.4625 102.243 42.9497 100.267 42.0294 98.567C40.9594 96.5897 39.7081 94.7364 38.6054 92.7809Z" fill="#B5D8E3"/>
<path d="M51.8274 55.0625C53.3151 55.0578 54.4791 53.296 55.9607 53.4417C57.1041 53.5537 57.8643 54.7416 58.4348 55.8248C56.6609 57.4258 54.1887 57.7117 51.8832 57.6814C51.0478 57.6702 49.4146 57.5826 49.4298 56.3347C49.4474 54.9122 51.006 55.0651 51.8274 55.0625Z" fill="#FFB47E"/>
<path d="M1.26022 58.7356C11.3703 57.7736 48.0958 57.6017 57.6476 55.1053C58.4145 54.905 59.0947 55.7252 58.8073 56.5238C57.9628 58.8687 55.1627 62.1195 45.8861 58.9075L1.46937 61.7433C0.750381 61.7894 0.118687 61.23 0.0150211 60.4559C-0.100769 59.598 0.466058 58.8107 1.26022 58.7356Z" fill="#844210"/>
<path d="M25.0402 74.2215C22.7402 73.7583 20.6008 72.4031 19.0961 70.4561C17.5915 68.5098 16.7324 65.9858 16.7094 63.4432C16.7052 62.9636 16.7306 62.4773 16.8701 62.022C17.0034 61.5859 17.2368 61.1939 17.4829 60.819C18.7391 58.903 20.5323 57.2163 22.6826 56.9475C23.3961 56.8579 24.2709 57.0378 24.5383 57.7625C24.7256 58.2705 24.5237 58.8635 24.1951 59.2779C23.8666 59.6923 23.4264 59.9796 23.03 60.3169C21.8569 61.3151 21.0494 62.8061 20.8142 64.4051C22.0242 63.3035 23.1379 61.7664 24.0842 60.3933C24.4498 59.8623 24.8869 59.2575 25.4967 59.2482C25.9253 59.2416 26.3072 59.546 26.5928 59.8933C26.9117 60.2813 27.1663 60.8229 26.9984 61.3098C28.0138 61.3414 29.0498 62.2988 29.0492 63.4023C29.8822 64.0164 30.215 65.4112 29.5954 66.2737C29.1965 66.8284 28.5576 67.1216 28.1265 67.6467C27.5931 68.2964 27.4439 69.2148 27.3985 70.0839C27.353 70.9536 27.3857 71.8457 27.1311 72.6712C26.8753 73.4981 25.8283 74.3803 25.0402 74.2215Z" fill="#FFB47E"/>
<path d="M23.7693 59.6475C22.1458 60.8176 20.9976 62.7388 20.6738 64.8268" stroke="#032021" stroke-miterlimit="10" stroke-linecap="round" stroke-linejoin="round"/>
<path d="M27.2693 61.4395C25.6276 62.5121 24.1878 64.4775 22.7959 66.7525" stroke="#032021" stroke-miterlimit="10" stroke-linecap="round" stroke-linejoin="round"/>
<path d="M28.9862 63.3999C27.5549 64.4995 25.6223 66.708 25.0215 68.4975" stroke="#032021" stroke-miterlimit="10" stroke-linecap="round" stroke-linejoin="round"/>
<path d="M29.5941 66.2744C28.1252 67.6475 27.7724 68.4974 27.5518 70.4371" stroke="#032021" stroke-miterlimit="10" stroke-linecap="round" stroke-linejoin="round"/>
<path d="M21.335 72.5532C23.0585 73.529 24.9645 74.1226 26.902 74.288" stroke="#032021" stroke-miterlimit="10" stroke-linecap="round" stroke-linejoin="round"/>
<path d="M25.5977 87.413C25.8644 88.4744 26.0602 89.5576 26.1833 90.65C27.791 89.4377 29.3684 88.2966 30.707 86.7456" stroke="#032021" stroke-miterlimit="10" stroke-linecap="round" stroke-linejoin="round"/>
<path d="M25.8359 95.2525C27.1709 95.1754 28.4233 94.4737 29.4478 93.5401C30.4724 92.6065 31.2981 91.4476 32.1128 90.2959" stroke="#032021" stroke-miterlimit="10" stroke-linecap="round" stroke-linejoin="round"/>
<path d="M40.5801 95.9404C42.1908 98.1041 43.2057 100.785 43.4615 103.554" stroke="#032021" stroke-miterlimit="10" stroke-linecap="round" stroke-linejoin="round"/>
<path d="M88.2321 64.7887C86.0424 61.1815 85.4829 56.6637 85.0925 52.3633C82.3705 53.4649 79.717 54.7675 77.1569 56.2591C76.5889 56.5905 75.477 57.2415 74.8399 57.3522C75.4558 59.6562 75.2915 62.1968 74.3852 64.3849C73.7875 65.8278 72.264 66.5822 72.4113 68.1562C72.5089 69.2018 73.1988 70.1038 74.0439 70.6144C74.889 71.125 75.8729 71.2943 76.838 71.3497C81.4545 71.6152 85.381 68.7426 88.2321 64.7887Z" fill="#FFB47E"/>
<path d="M79.7792 60.73C81.1529 59.4129 82.3344 57.8594 83.2674 56.1457C80.3072 54.7522 77.5131 55.9856 74.8408 57.3514C75.2337 58.8206 75.3064 60.3854 75.0742 61.8942C76.6456 62.7731 78.5728 62.0563 79.7792 60.73Z" fill="#032021"/>
<path d="M87.7362 48.9393C85.7186 52.4767 83.6108 56.1183 80.5135 58.419C79.6412 59.0673 78.6603 59.6096 77.6206 59.6188C76.4239 59.6293 75.3084 58.9342 74.3488 58.1173C70.7368 55.0417 68.6193 50.1002 67.7063 45.0586C66.7927 40.017 66.9594 34.812 67.1304 29.6676C69.3613 26.5848 73.3249 25.5722 76.8149 25.8686C81.6417 26.2791 86.7486 29.0608 88.4333 34.248C88.9462 35.8267 89.1105 37.5213 89.2705 39.1954C89.5743 42.3711 89.2627 46.2643 87.7362 48.9393Z" fill="#FFB47E"/>
<path d="M84.4477 29.2997C84.7696 30.0639 84.5277 31.0575 83.9009 31.549C83.2741 32.0405 81.4414 32.5702 80.8758 31.997C79.8979 33.7041 79.0607 34.2846 77.2208 34.4961C76.7613 34.5488 76.269 34.5363 75.8774 34.2701C75.4864 34.0033 75.2548 33.4096 75.4882 32.9774C74.9099 34.2938 74.0775 35.4771 73.0615 36.4299C72.7184 36.7514 72.3164 37.061 71.8636 37.0492C71.2779 37.034 70.8075 36.4608 70.6602 35.8448C70.5129 35.2288 70.6147 34.5791 70.7172 33.9525C70.174 34.9626 69.5866 36.0121 68.8742 36.8911C67.9394 38.0447 66.1977 37.2956 66.1826 35.7591C66.1626 33.6541 66.4651 31.5451 67.0816 29.5487C68.6087 24.6079 75.4337 24.2106 80.0998 25.4163C82.0404 25.9171 83.6178 27.329 84.4477 29.2997Z" fill="#032021"/>
<path d="M68.4375 41.6547C69.7985 39.3381 73.1455 40.6618 73.291 43.2656C72.3059 41.4089 70.1647 41.4274 68.4375 41.6547Z" fill="#032021"/>
<path d="M71.8265 44.3028C73.5633 44.847 72.8698 47.3474 71.3239 47.6057C69.4331 48.2744 66.5995 46.8572 68.6292 44.6704C69.4973 44.03 70.8656 43.9213 71.8265 44.3028Z" fill="#DD795A"/>
<path d="M68.4375 38.9755C70.144 37.1202 74.4198 39.9519 73.5396 38.0972C73.4292 37.864 73.231 37.7896 73.1115 37.756C71.6196 37.1577 69.0716 36.9205 68.4375 38.9755Z" fill="#032021"/>
<path d="M85.0136 41.6547C83.6527 39.3381 80.3057 40.6618 80.1602 43.2656C81.1453 41.4089 83.2871 41.4274 85.0136 41.6547Z" fill="#032021"/>
<path d="M81.1758 44.2388C79.2814 44.8687 80.0828 47.595 81.7802 47.848C83.8626 48.5444 86.9441 46.9362 84.6847 44.5801C83.7232 43.8949 82.2222 43.8026 81.1758 44.2388Z" fill="#DD795A"/>
<path d="M85.014 38.9755C83.3075 37.1202 79.0317 39.9519 79.912 38.0972C80.0223 37.864 80.2206 37.7896 80.34 37.756C81.8319 37.1577 84.3805 36.9205 85.014 38.9755Z" fill="#032021"/>
<path d="M75.4425 37.8633C75.7838 39.7008 76.11 41.5878 75.8426 43.4399C75.5753 45.2919 74.5962 47.1328 73 47.8444C74.1979 48.7365 75.9045 48.7286 77.0951 47.8246" stroke="#032021" stroke-miterlimit="10" stroke-linecap="round" stroke-linejoin="round"/>
<path d="M79.6985 51.439C79.1711 52.0082 78.5327 52.4688 77.8204 52.7007C77.1081 52.9326 76.3199 52.924 75.6367 52.6058" stroke="#032021" stroke-miterlimit="10" stroke-linecap="round" stroke-linejoin="round"/>
<path d="M86.3159 38.9463C86.7197 39.4807 87.1932 39.9636 87.7545 40.2871C87.9994 40.4281 88.2747 40.5408 88.5493 40.4986C89.1634 40.4057 89.4623 39.6368 89.569 38.9727C89.9067 36.8722 89.472 34.6367 88.382 32.8644C87.9061 32.0909 87.2993 31.3938 86.5457 30.9524C85.9922 30.6282 84.5421 30.0767 84.0074 30.7303C83.5588 31.2785 84.0299 32.6845 84.1462 33.3025C84.5245 35.3127 85.0998 37.3367 86.3159 38.9463Z" fill="#032021"/>
<path d="M58.9718 24.1563C57.4841 22.5289 56.0134 20.4304 56.3911 18.1738C56.5814 17.0347 57.2252 16.0516 57.6017 14.9685C58.171 13.3292 58.1116 11.5207 58.408 9.79905C58.7051 8.07679 59.541 6.2524 61.0809 5.73387C61.7538 5.50723 62.4746 5.56125 63.1784 5.58102C65.5833 5.64756 68.0913 5.24105 70.0791 3.76849C70.9576 3.11754 71.7069 2.27947 72.5768 1.61533C75.4637 -0.589216 79.6497 -0.531236 82.4839 1.75238C83.2477 2.36775 83.9194 3.12544 84.7475 3.63342C85.5981 4.15524 86.5705 4.38716 87.5332 4.56506C91.0554 5.21469 94.76 5.25093 97.9809 6.93168C98.7078 7.31119 99.4347 7.8106 99.7984 8.59267C100.311 9.69824 99.9651 11.0331 100.139 12.2566C100.45 14.4427 102.315 15.9087 104.05 17.0656C105.785 18.2226 107.699 19.5324 108.23 21.6678C108.732 23.6812 107.814 25.7916 106.669 27.4657C105.525 29.1399 104.109 30.6434 103.375 32.5706C102.24 35.5539 102.819 39.3364 100.821 41.7255C98.7794 44.1659 94.9055 43.708 92.5915 41.5733C89.9266 39.1144 88.8523 35.098 86.274 32.5311C83.6193 29.8884 79.8207 29.1972 76.2421 28.7716C74.2033 28.5292 72.3349 28.4949 70.3713 29.1841C69.1856 29.6005 67.9695 30.2725 66.6867 30.1414C63.8028 29.8469 60.8808 26.2442 58.9718 24.1563Z" fill="#4D7B9E"/>
<path d="M66.4776 32.0817C66.4776 32.0817 84.8846 24.1964 89.2694 40.2832C90.4031 40.2766 91.6459 40.3992 92.7795 40.3926C93.5379 37.9087 93.975 35.3094 94.0738 32.6951C94.1326 31.1448 94.0684 29.5648 93.6167 28.0929C92.2824 23.7451 87.9291 21.362 83.7836 20.5233C78.2269 19.3993 72.3453 20.2637 67.2633 22.9519C66.8243 23.1838 66.3684 23.4519 66.1223 23.9098C65.958 24.2149 65.9817 24.5957 65.8628 24.9251C64.7595 27.9829 66.0574 29.947 66.4776 32.0817Z" fill="#4D7B9E"/>
<path d="M94.1426 32.7832C94.8731 36.123 95.2762 39.5477 95.3429 42.9797C94.7452 43.0759 94.1371 42.7715 93.7037 42.3136C92.3942 40.9313 92.8519 39.943 93.2933 38.2794C93.7673 36.4906 94.0535 34.6425 94.1426 32.7832Z" fill="#032021"/>
<path d="M65.7723 29.5569C64.7048 25.0114 69.5255 21.9266 72.9374 20.7861C69.3576 21.2394 65.1267 22.9287 63.582 26.625C63.6681 27.8485 65.1043 28.6602 65.7723 29.5569Z" fill="#032021"/>
<path d="M64.332 25.8269C62.5781 25.2049 61.0268 23.928 60.0004 22.2618C59.2529 21.0482 58.788 19.6593 58.1963 18.3481" stroke="#032021" stroke-miterlimit="10" stroke-linecap="round" stroke-linejoin="round"/>
<path d="M65.7445 24.077C64.7054 23.1025 63.7882 21.9739 63.0273 20.7319" stroke="#032021" stroke-miterlimit="10" stroke-linecap="round" stroke-linejoin="round"/>
<path d="M68.1227 22.6167C67.1194 20.903 66.3877 19.0022 65.9688 17.0229" stroke="#032021" stroke-miterlimit="10" stroke-linecap="round" stroke-linejoin="round"/>
<path d="M70.689 21.2264C69.4153 17.8768 68.9649 14.6569 69.0771 11.0352" stroke="#032021" stroke-miterlimit="10" stroke-linecap="round" stroke-linejoin="round"/>
<path d="M72.8955 20.4326C72.8955 19.6064 72.8955 18.7801 72.8955 17.9546" stroke="#032021" stroke-miterlimit="10" stroke-linecap="round" stroke-linejoin="round"/>
<path d="M77.2764 20.0205C77.5158 17.2533 78.0202 14.5138 78.7786 11.8599" stroke="#032021" stroke-miterlimit="10" stroke-linecap="round" stroke-linejoin="round"/>
<path d="M79.9288 20.0194C79.8354 18.9995 80.0003 17.9532 80.401 17.0249" stroke="#032021" stroke-miterlimit="10" stroke-linecap="round" stroke-linejoin="round"/>
<path d="M83.4502 20.847C83.9418 17.8544 85.5854 15.105 87.9024 13.4019" stroke="#032021" stroke-miterlimit="10" stroke-linecap="round" stroke-linejoin="round"/>
<path d="M92.4785 26.0157C93.4151 24.4753 94.9028 23.3427 96.5542 22.9111" stroke="#032021" stroke-miterlimit="10" stroke-linecap="round" stroke-linejoin="round"/>
<path d="M93.7021 29.1041C94.3878 28.4703 95.2074 28.0091 96.0792 27.7646" stroke="#032021" stroke-miterlimit="10" stroke-linecap="round" stroke-linejoin="round"/>
<path d="M94.2646 33.0557C95.4407 33.5439 96.729 33.7079 97.9772 33.5287" stroke="#032021" stroke-miterlimit="10" stroke-linecap="round" stroke-linejoin="round"/>
<path d="M94.8418 37.1675C95.8609 37.4646 96.9278 37.5661 97.9784 37.4653" stroke="#032021" stroke-miterlimit="10" stroke-linecap="round" stroke-linejoin="round"/>
<path d="M90.0918 24.0771C90.0918 24.0771 91.8984 19.2443 95.7934 17.9536" stroke="#032021" stroke-miterlimit="10" stroke-linecap="round" stroke-linejoin="round"/>
<path d="M87.291 21.5688C87.616 20.456 88.1173 19.4038 88.7666 18.4741" stroke="#032021" stroke-miterlimit="10" stroke-linecap="round" stroke-linejoin="round"/>
<path d="M93.1119 44.4317C92.4427 46.6883 90.6658 48.0851 89.1429 47.5515C87.6201 47.0178 86.9278 44.7566 87.597 42.5C88.2663 40.2434 90.0432 38.8466 91.566 39.3803C93.0889 39.9139 93.7806 42.1751 93.1119 44.4317Z" fill="#FFB47E"/>
<path d="M91.6336 41.4695C91.3129 41.0004 90.6824 40.8587 90.1762 41.0577C89.6706 41.2567 89.2911 41.7416 89.0886 42.2832C88.8861 42.8248 88.8425 43.4211 88.8485 44.0055C88.9031 43.4019 89.4554 42.9058 90.0107 42.9612C90.5963 43.0191 91.0564 43.6372 91.0819 44.2756C91.1074 44.914 90.7588 45.5261 90.2744 45.8885C90.0289 46.0717 89.7403 46.2028 89.442 46.1975C89.1444 46.1922 88.8395 46.0341 88.6934 45.7521" stroke="#032021" stroke-miterlimit="10" stroke-linecap="round" stroke-linejoin="round"/>
</svg>
