<svg width="393" height="438" viewBox="0 0 393 438" fill="none" xmlns="http://www.w3.org/2000/svg">
<g clip-path="url(#clip0_846_24330)">
<path d="M50.2836 415.007C33.514 415.007 19.8701 399.442 19.8701 380.311V46.6708C19.8701 27.5504 33.514 11.9927 50.2836 11.9927H342.734C359.493 11.9927 373.13 27.5504 373.13 46.6708V380.311C373.13 391.16 368.77 401.206 361.167 407.879C361.103 407.935 361.04 407.989 360.975 408.043C359.993 408.865 359.079 409.56 358.18 410.169C353.535 413.33 348.188 415.007 342.734 415.007H50.2836Z" fill="white"/>
<path d="M363.227 46.6709V380.31C363.227 387.534 360.179 393.975 355.489 398.091C354.875 398.606 354.244 399.099 353.576 399.552C350.672 401.528 347.281 402.66 343.655 402.66H336.513L216.764 366.399L62.4722 402.66H51.2051C40.4359 402.66 31.6143 392.596 31.6143 380.31V46.6709C31.6143 34.3848 40.4352 24.3413 51.2051 24.3413H343.654C354.424 24.3413 363.227 34.384 363.227 46.6709Z" fill="#90ACC1"/>
<path d="M50.1591 397.206C42.8532 388.707 36.6116 379.405 31.6152 369.67V373.663C36.414 382.47 42.2042 390.867 48.8785 398.647C50.051 400.005 51.2415 401.343 52.45 402.66H55.0834C53.3881 400.87 51.7469 399.058 50.1591 397.206ZM145.604 24.3413H143.763C149.211 62.8464 137.359 104.109 111.816 130.615C106.17 136.46 100.181 141.152 94.1015 144.569C94.0654 144.404 94.0294 144.24 93.9753 144.074C91.9008 135.945 86.4891 128.969 79.093 124.935C71.715 120.922 63.543 120.49 56.6885 123.741C53.4775 125.284 51.2588 127.219 49.9241 129.689C47.3268 134.422 48.3002 141.461 52.1789 146.03C55.2276 149.652 59.7733 151.916 65.6724 152.801C75.6657 154.282 84.938 151.71 92.8576 147.594C94.3726 157.061 91.9916 168.03 86.1653 178.176C81.3132 186.634 74.7283 193.796 68.3605 200.711C67.188 202.007 65.9975 203.283 64.8431 204.58C50.8629 220.015 39.7324 235.82 31.6152 251.646V255.844C39.7511 239.112 51.2962 222.402 66.0884 206.061C67.2608 204.765 68.4333 203.489 69.6058 202.213C76.0457 195.195 82.702 187.951 87.681 179.308C93.8685 168.524 96.3036 156.814 94.5355 146.688C102.383 142.305 108.787 136.543 113.025 132.139C138.947 105.24 151.016 63.4222 145.604 24.3413ZM65.9074 150.763C60.4236 149.94 56.2385 147.862 53.4782 144.61C50.6639 141.276 48.9867 135.287 51.4398 130.78C52.5942 128.702 54.5425 127.014 57.3923 125.656C60.2066 124.298 63.2726 123.639 66.4302 123.639C70.381 123.639 74.4572 124.689 78.3178 126.809C85.2452 130.575 90.3137 137.078 92.244 144.652C92.3161 144.919 92.3882 145.186 92.4423 145.475C83.4771 150.146 74.3678 152.018 65.9074 150.763Z" fill="#4D7B9E"/>
<path d="M344.341 159.18C336.674 144.774 332.273 127.138 330.505 103.738C330.307 101.104 330.144 98.5522 330.036 96.0827C334.311 93.9216 338.316 91.267 341.834 88.2421C347.101 83.7143 355.778 74.3305 354.858 62.353C354.407 56.5698 350.42 50.9932 345.135 48.791C341.04 47.1038 337.143 47.8853 334.456 50.9521C332.111 53.6273 331.136 57.3316 330.415 60.9331C328.43 70.9758 327.69 81.8831 328.178 94.7664C313.404 101.784 295.347 102.525 281.619 91.0826C271.95 83.0356 265.023 69.6999 260.477 50.2931C258.493 41.8142 257.068 33.1297 256.238 24.3423H254.434C255.264 33.3148 256.706 42.1852 258.727 50.8287C263.399 70.7085 270.542 84.4152 280.554 92.7493C294.66 104.501 313.079 103.924 328.267 96.9275C328.376 99.1913 328.52 101.517 328.7 103.904C330.504 127.653 334.978 145.558 342.806 160.251C348.272 170.52 355.506 179.267 363.227 187.396V184.577C356.066 176.94 349.41 168.709 344.341 159.18ZM332.183 61.4053C332.832 58.0918 333.716 54.6967 335.736 52.4123C337.143 50.8073 338.983 49.9838 341.022 49.9838C342.14 49.9838 343.313 50.2306 344.521 50.725C349.085 52.6187 352.675 57.599 353.072 62.5381C353.92 73.5276 345.712 82.315 340.751 86.596C337.504 89.3946 333.86 91.8436 329.946 93.8813C329.531 81.5327 330.252 71.0573 332.183 61.4053Z" fill="#4D7B9E"/>
<path d="M156.431 142.611C156.388 142.611 156.343 142.607 156.299 142.599C155.772 142.517 155.404 141.962 155.476 141.361L161.003 95.6473C161.075 95.0485 161.559 94.6119 162.088 94.7108C162.615 94.793 162.983 95.3475 162.911 95.9487L157.384 141.662C157.317 142.21 156.904 142.611 156.431 142.611Z" fill="black"/>
<path d="M147.459 183.836L145.967 195.388L148.831 195.869L150.323 184.318L147.459 183.836Z" fill="white"/>
<path d="M139.995 196.23C139.714 195.865 139.574 195.362 139.656 194.847C139.797 193.949 140.55 193.352 141.336 193.514L153.912 196.091C154.699 196.249 155.223 197.109 155.081 198.007C154.939 198.905 154.187 199.502 153.401 199.34L140.825 196.763C140.49 196.695 140.203 196.5 139.995 196.23Z" fill="white"/>
<path d="M140.692 185.18L149.602 128.286C149.795 127.051 150.854 126.25 151.926 126.525L163.06 129.39C164.065 129.648 164.715 130.761 164.536 131.919L155.708 189.166L140.692 185.18Z" fill="white"/>
<path d="M154.814 185.299L162.333 131.843L151.967 128.701L142.996 182.971L154.814 185.299Z" fill="#4D7B9E"/>
<path d="M162.333 131.843L152.137 127.92L152.369 126.567L152.721 124.532L153.074 122.481L162.948 125.223L162.579 129.162L162.567 129.255L162.333 131.843Z" fill="white"/>
<path d="M162.567 129.255L152.369 126.567L152.721 124.532L162.58 129.162L162.567 129.255Z" fill="black"/>
<path d="M149.822 136.577C149.721 136.447 149.671 136.269 149.697 136.085C149.743 135.757 150.013 135.534 150.3 135.587L154.259 136.308C154.548 136.361 154.743 136.67 154.696 136.996C154.65 137.324 154.381 137.546 154.094 137.494L150.134 136.772C150.008 136.749 149.9 136.678 149.822 136.577Z" fill="black"/>
<path d="M148.774 141.716C148.674 141.587 148.623 141.412 148.648 141.229C148.691 140.901 148.96 140.675 149.247 140.724L153.586 141.474C153.874 141.525 154.071 141.831 154.028 142.157C153.984 142.485 153.716 142.711 153.429 142.661L149.09 141.912C148.962 141.891 148.853 141.818 148.774 141.716Z" fill="black"/>
<path d="M148.52 146.261C148.422 146.134 148.372 145.962 148.394 145.782C148.433 145.453 148.699 145.224 148.987 145.269L152.858 145.876C153.145 145.92 153.348 146.223 153.308 146.553C153.268 146.882 153.003 147.11 152.715 147.066L148.844 146.459C148.713 146.439 148.601 146.366 148.52 146.261Z" fill="black"/>
<path d="M336.511 402.66H109.508C112.358 380.763 117.138 349.646 124.228 320.876C124.48 319.826 124.751 318.776 125.004 317.727C125.112 317.315 125.22 316.903 125.31 316.492C125.4 316.163 125.49 315.854 125.563 315.524C127.005 310.009 128.521 304.597 130.144 299.39C131.858 293.813 133.68 288.483 135.61 283.482C136.007 282.453 136.404 281.444 136.819 280.456C142.916 265.475 150.023 253.867 158.267 248.702C164.219 244.977 170.046 241.725 175.602 238.926C176.198 238.639 176.775 238.33 177.37 238.041C200.911 226.476 219.69 222.668 225.751 221.68C227.104 221.454 227.825 221.371 227.825 221.371L291.9 220.342L292.766 220.322C292.766 220.322 292.802 220.322 292.892 220.363H292.946C293.199 220.425 293.794 220.548 294.642 220.774C300.27 222.215 317.606 227.504 332.65 240.736C333.282 241.272 333.913 241.848 334.545 242.444C334.563 242.465 334.563 242.444 334.563 242.444C345.873 253.064 355.506 268.374 357.237 290.21C360.125 326.577 346.793 373.148 336.511 402.66Z" fill="white"/>
<path d="M227.818 221.377C227.818 221.377 205.71 250.802 176.234 346.432L295.062 220.326L227.818 221.377Z" fill="#4D7B9E"/>
<path d="M306.287 118.583C312.858 114.838 319.967 112.095 327.273 111.862C334.579 111.629 342.114 114.093 347.605 119.734C352.238 124.494 355.162 131.207 356.779 138.168C360.665 154.895 357.084 173.743 347.509 186.972C337.934 200.201 322.631 207.439 307.886 205.714C300.48 204.847 292.976 201.607 288.085 195.042C283.952 189.493 282.04 182.013 281.871 174.656C281.702 167.299 283.156 160.011 285.102 153.012C288.055 142.389 292.562 131.656 300.606 125.633L306.287 118.583Z" fill="black"/>
<path d="M185.54 92.3621C184.874 102.833 185.448 113.534 186.183 123.567C187.047 135.379 188.163 147.173 188.722 159.015C189.092 166.579 191.849 173.724 196.462 179.113C201.627 185.157 208.695 188.529 216.084 188.525L227.763 188.754V189.042L227.631 202.968L227.587 208.125L226.92 219.523C226.92 219.523 200.338 266.391 215.997 279.002C231.657 291.613 291.991 223.305 291.991 223.305L290.182 161.995C307.114 159.473 318.394 141.065 310.724 124.762C305.695 114.085 297.068 115.922 290.76 119.276C293.556 111.71 295.089 103.412 295.086 94.6948C295.071 59.8814 270.325 31.6777 239.81 31.6943C223.86 31.703 208.18 39.1797 197.833 53.2147C189.638 64.3293 186.444 78.1325 185.54 92.3621Z" fill="#E8A19A"/>
<g opacity="0.41">
<path d="M185.54 92.3621C184.874 102.833 185.448 113.534 186.183 123.567C187.047 135.379 188.163 147.173 188.722 159.015C189.092 166.579 191.849 173.724 196.462 179.113C201.627 185.157 208.695 188.529 216.084 188.525L227.763 188.754V189.042L227.631 202.968L227.587 208.125L226.92 219.523C226.92 219.523 200.338 266.391 215.997 279.002C231.657 291.613 291.991 223.305 291.991 223.305L290.182 161.995C307.114 159.473 318.394 141.065 310.724 124.762C305.695 114.085 297.068 115.922 290.76 119.276C293.556 111.71 295.089 103.412 295.086 94.6948C295.071 59.8814 270.325 31.6777 239.81 31.6943C223.86 31.703 208.18 39.1797 197.833 53.2147C189.638 64.3293 186.444 78.1325 185.54 92.3621Z" fill="#E8A19A"/>
</g>
<path d="M217.685 144.887C217.43 144.887 217.175 144.771 216.986 144.544L210.757 137.043C210.288 136.481 209.705 135.777 209.477 134.861C209.203 133.752 209.537 132.693 209.757 131.991C210.476 129.698 211.328 127.402 212.152 125.18C214.137 119.834 216.188 114.303 216.384 108.715C216.405 108.11 216.866 107.668 217.385 107.663C217.916 107.686 218.329 108.197 218.308 108.804C218.098 114.791 215.977 120.509 213.926 126.038C213.112 128.231 212.271 130.498 211.57 132.73C211.387 133.31 211.233 133.866 211.331 134.264C211.428 134.658 211.814 135.122 212.155 135.532L218.384 143.032C218.75 143.472 218.733 144.168 218.347 144.586C218.161 144.787 217.923 144.887 217.685 144.887Z" fill="black"/>
<path d="M219.819 152.155C217.893 152.155 215.97 151.71 214.196 150.779C213.713 150.525 213.502 149.872 213.724 149.321C213.948 148.773 214.517 148.526 215.002 148.785C220.002 151.416 226.665 149.38 229.844 144.245C230.151 143.748 230.753 143.632 231.187 143.981C231.621 144.331 231.724 145.016 231.417 145.51C228.793 149.749 224.302 152.155 219.819 152.155Z" fill="black"/>
<path d="M205.537 102.234C207.613 101.572 207.566 98.9914 205.494 98.3222C203.361 97.634 200.979 97.358 198.669 97.5834C195.321 97.9093 192.202 99.2785 190.16 101.247C189.479 101.903 189.886 102.969 190.862 103.208C194.035 103.984 197.346 104.139 200.64 103.502C202.237 103.192 203.912 102.752 205.537 102.234Z" fill="black"/>
<path d="M237.182 102.496C235.107 101.835 235.154 99.2541 237.226 98.5849C239.358 97.8959 241.741 97.6206 244.051 97.8453C247.398 98.1712 250.518 99.5404 252.56 101.508C253.241 102.165 252.834 103.231 251.857 103.47C248.685 104.245 245.374 104.401 242.08 103.764C240.484 103.455 238.808 103.015 237.182 102.496Z" fill="black"/>
<path d="M227.63 202.968C258.741 199.444 266.627 184.493 266.627 184.493C248.435 189.24 232.833 189.223 227.762 189.043L227.63 202.968Z" fill="black"/>
<path d="M288.953 151.53C288.991 151.53 289.031 151.528 289.068 151.52C289.503 151.448 289.806 150.985 289.742 150.489C288.891 143.821 289.884 136.831 292.539 130.807C294.117 127.228 296.076 124.465 298.36 122.593C301.005 120.427 304.128 119.484 306.94 120.052C307.38 120.124 307.786 119.806 307.861 119.31C307.936 118.814 307.645 118.345 307.21 118.258C303.99 117.623 300.422 118.666 297.429 121.115C294.934 123.159 292.809 126.144 291.113 129.989C288.313 136.343 287.265 143.716 288.165 150.75C288.223 151.203 288.563 151.531 288.953 151.53Z" fill="black"/>
<path d="M237.212 120.188C237.213 123.848 239.815 126.814 243.024 126.811C246.232 126.81 248.831 123.841 248.829 120.181C248.828 116.521 246.226 113.556 243.017 113.557C239.81 113.56 237.211 116.528 237.212 120.188Z" fill="black"/>
<path d="M193.959 120.212C193.96 123.872 196.563 126.837 199.771 126.835C202.979 126.833 205.578 123.865 205.576 120.205C205.575 116.545 202.973 113.579 199.764 113.581C196.557 113.584 193.958 116.552 193.959 120.212Z" fill="black"/>
<path d="M291.814 119.635C289.527 121.146 287.533 123.267 285.279 124.842C284.645 125.285 281.508 126.903 278.576 128.485C276.036 129.855 273.054 127.959 272.785 124.768C272.379 119.936 271.419 115.236 268.91 111.403C267.262 108.885 265.054 106.933 262.932 104.929C253.676 96.1851 245.423 85.5609 241.098 72.7702C236.982 60.5973 236.847 46.2419 242.393 34.9043C243.96 31.7007 248.037 29.2873 251.248 29.4938C266.438 30.4683 281.552 32.9829 296.354 36.9965C301.463 38.3824 306.782 40.1013 310.522 44.3063C313.848 48.0447 315.518 53.3777 315.957 58.6807C316.397 63.9836 315.711 69.3182 314.908 74.565C312.599 89.6687 313.036 106.555 308.802 121.107C309.118 120.021 296.844 117.698 295.668 117.944C294.255 118.237 292.995 118.855 291.814 119.635Z" fill="black"/>
<path d="M251.646 30.0056C243.627 36.2238 237.52 45.3379 233.458 55.3814C229.396 65.4249 227.296 76.3876 226.314 87.3922C226.007 87.3922 225.055 87.7411 224.747 87.7411H166.676C169.211 74.8768 170.931 60.9209 178.115 50.5926C184.668 41.1716 194.273 34.9218 204.399 31.5726C214.525 28.2235 225.197 27.5962 235.736 27.9284C241.645 28.1143 245.965 28.1428 251.646 30.0056Z" fill="black"/>
<path d="M176.234 347.532C175.987 347.532 175.743 347.425 175.555 347.212C175.178 346.785 175.175 346.089 175.55 345.659C195.431 322.814 292.456 279.99 307.374 273.489L281.949 254.702C281.621 254.459 281.454 254.014 281.526 253.578C281.598 253.14 281.894 252.794 282.276 252.704L333.86 240.445C334.38 240.315 334.891 240.705 334.999 241.297C335.107 241.89 334.774 242.473 334.253 242.595L284.961 254.31L310.015 272.824C310.319 273.049 310.488 273.451 310.449 273.863C310.41 274.275 310.172 274.627 309.833 274.774C308.713 275.256 197.714 323.307 176.916 347.207C176.729 347.424 176.481 347.532 176.234 347.532Z" fill="black"/>
<path d="M197.755 256.07C197.701 256.461 197.448 256.791 197.106 256.935L169.073 267.245C173.565 272.925 190.414 296.406 183.92 322.398C183.902 322.46 183.884 322.542 183.865 322.604C182.441 328.243 180.222 335.487 177.552 343.554C177.281 344.316 177.028 345.097 176.758 345.879C176.578 346.414 176.397 346.97 176.198 347.526C170.101 365.615 162.128 386.874 156.067 402.659H153.956C163.264 378.436 177.317 340.693 182.061 321.78C189.186 293.339 166.872 267.779 166.656 267.511C166.421 267.244 166.313 266.852 166.385 266.482C166.475 266.112 166.71 265.803 167.035 265.7L194.725 255.492L175.964 239.605C175.766 239.42 175.639 239.173 175.603 238.925C175.549 238.638 175.603 238.329 175.766 238.061C176.09 237.567 176.686 237.464 177.118 237.835L177.371 238.04L197.376 254.998C197.665 255.246 197.809 255.658 197.755 256.07Z" fill="black"/>
<path d="M161.803 202.822C161.803 202.822 143.998 223.305 139.994 251.409C137.703 267.62 135.809 295.394 134.618 316.041C133.734 331.261 133.248 342.588 133.248 342.588L83.5137 343.791C83.5137 343.791 85.1736 332.559 86.8688 319.415C88.474 306.72 90.0978 292.231 90.2601 284.35C90.5665 268.281 87.807 232.129 90.5665 226.112C93.3261 220.095 101.624 210.845 101.624 210.845C101.624 210.845 105.917 193.572 113.909 193.572C113.909 193.572 116.362 179.107 123.416 181.136C123.416 181.136 124.95 171.084 130.18 171.886C135.394 172.689 159.043 183.142 159.043 183.142C159.043 183.142 158.123 194.775 150.438 194.775C150.438 194.775 154.118 204.426 137.847 205.63L139.38 210.042C139.38 210.042 153.505 197.584 161.803 202.822Z" fill="#F8679B"/>
<g opacity="0.47">
<path d="M161.803 202.822C161.803 202.822 143.998 223.305 139.994 251.409C137.703 267.62 135.809 295.394 134.618 316.041C133.734 331.261 133.248 342.588 133.248 342.588L83.5137 343.791C83.5137 343.791 85.1736 332.559 86.8688 319.415C88.474 306.72 90.0978 292.231 90.2601 284.35C90.5665 268.281 87.807 232.129 90.5665 226.112C93.3261 220.095 101.624 210.845 101.624 210.845C101.624 210.845 105.917 193.572 113.909 193.572C113.909 193.572 116.362 179.107 123.416 181.136C123.416 181.136 124.95 171.084 130.18 171.886C135.394 172.689 159.043 183.142 159.043 183.142C159.043 183.142 158.123 194.775 150.438 194.775C150.438 194.775 154.118 204.426 137.847 205.63L139.38 210.042C139.38 210.042 153.505 197.584 161.803 202.822Z" fill="#E8A19A"/>
</g>
<path d="M163.453 200.273C164.652 200.518 165.099 202.485 164.22 203.58C158.993 210.106 145.622 232.139 141.23 253.723C137.988 269.655 136.894 295.734 135.703 316.381C130.562 318.268 122.369 320.264 112.682 322.907C98.3234 326.824 90.3186 323.08 86.4219 319.092C88.0277 306.397 88.7925 292.933 88.9547 285.052C89.2612 268.983 87.5978 233.033 89.7604 226.612C92.7543 217.725 101.044 210.495 101.044 210.495C101.044 210.495 105.373 192.872 113.364 192.872C113.364 192.872 115.868 178.793 122.921 180.823C122.921 180.823 124.713 170.531 129.945 171.334C135.158 172.137 159.537 182.781 159.537 182.781C159.537 182.781 159.046 195.434 151.361 195.434C151.361 195.434 154.967 204.774 138.696 205.978L139.386 208.99C139.388 208.991 154.433 198.435 163.453 200.273Z" fill="#4D7B9E"/>
<path d="M140.148 207.749C139.102 207.752 138.509 207.41 138.177 207.065L113.564 194.75C113.068 194.501 112.819 193.773 113.009 193.122C113.199 192.473 113.755 192.152 114.253 192.394L139.041 204.799C139.204 204.882 139.347 205.02 139.456 205.203C139.436 205.155 139.612 205.263 140.069 205.263C140.904 205.263 142.705 204.954 146.144 203.013C148.432 201.723 149.914 200.131 150.429 198.407C150.687 197.542 150.651 196.818 150.584 196.388L123.064 182.308C122.569 182.054 122.324 181.323 122.517 180.676C122.712 180.026 123.271 179.705 123.765 179.961L151.712 194.26C151.938 194.375 152.123 194.599 152.228 194.885C152.3 195.081 152.92 196.871 152.252 199.219C151.557 201.665 149.758 203.718 146.907 205.326C143.616 207.183 141.502 207.749 140.148 207.749Z" fill="black"/>
<path d="M131.904 220.343C126.346 220.343 116.572 215.942 116.159 215.753C115.657 215.527 115.39 214.808 115.564 214.151C115.739 213.495 116.289 213.146 116.789 213.375C116.887 213.419 126.669 217.823 131.903 217.823C134.366 217.823 136.431 215.467 137.543 213.263C138.588 211.191 138.964 208.94 138.502 207.529C138.292 206.891 138.518 206.152 139.007 205.877C139.499 205.6 140.062 205.898 140.272 206.538C141.004 208.771 140.585 211.803 139.15 214.649C137.763 217.4 135.132 220.343 131.904 220.343Z" fill="black"/>
<path d="M123.791 236.912C123.345 236.912 122.88 236.857 122.398 236.737C116.252 235.219 105.368 228.785 104.907 228.512C104.424 228.224 104.209 227.478 104.428 226.844C104.647 226.212 105.216 225.934 105.703 226.217C105.813 226.284 116.836 232.801 122.755 234.262C127.018 235.315 129.702 229.284 130.576 226.924C128.698 225.311 123.269 220.702 118.652 217.319C113.107 213.259 102.608 211.008 102.503 210.987C101.978 210.876 101.621 210.228 101.706 209.542C101.79 208.853 102.285 208.399 102.81 208.498C103.253 208.592 113.753 210.844 119.592 215.121C125.316 219.313 132.252 225.352 132.321 225.412C132.696 225.74 132.848 226.364 132.686 226.914C132.557 227.351 129.667 236.912 123.791 236.912Z" fill="black"/>
<path d="M154.587 298L146.885 402.66H62.209L75.3599 298H154.587Z" fill="white"/>
<path d="M144.937 402.659H143.006L142.122 300.196L133.391 299.872L125.003 299.547L85.6599 298.048L84.3793 297.998L75.8107 297.674C75.2699 297.649 74.8546 297.024 74.8726 296.299C74.8726 295.575 75.3053 295 75.8288 295C75.8468 295 75.8468 295 75.8648 295L84.7579 295.325L125.562 296.874L133.5 297.173L143.096 297.548C143.385 297.573 143.656 297.748 143.818 298.047C143.962 298.272 144.035 298.547 144.035 298.872L144.937 402.659Z" fill="black"/>
<path d="M119.503 82.9942C118.331 87.151 115.77 90.8142 112.071 92.9753L102.583 98.5322L86.6542 107.855C79.2761 112.157 70.1127 108.884 66.2881 100.57C64.3758 96.4336 64.1415 91.7619 65.314 87.5837C66.4864 83.4269 69.0657 79.7637 72.728 77.6027L86.7623 69.4117L98.1632 62.7442C105.541 58.4221 114.705 61.6946 118.529 70.0089C120.424 74.1649 120.676 78.8367 119.503 82.9942Z" fill="#4D7B9E"/>
<path d="M101.692 98.8961L86.6542 107.854C79.2761 112.156 70.1127 108.883 66.2881 100.569C64.3758 96.4329 64.1415 91.7611 65.314 87.583C66.4864 83.4262 69.0657 79.763 72.728 77.6019L85.3409 70.1284C87.758 72.4129 90.831 76.2881 93.8616 81.557C97.2716 87.5047 100.501 94.4308 101.692 98.8961Z" fill="white"/>
<path d="M102.093 98.8175L100.945 99.4899C97.0624 88.6063 92.4537 77.7717 84.4551 70.7531L85.7024 70.0229C93.6213 77.2299 98.221 87.9988 102.093 98.8175Z" fill="black"/>
<path d="M305.273 200.655C306.434 196.494 308.986 192.821 312.678 190.648L322.152 185.058L338.055 175.68C345.421 171.353 354.594 174.593 358.441 182.894C360.364 187.024 360.611 191.695 359.449 195.876C358.288 200.038 355.718 203.71 352.062 205.883L338.05 214.123L326.667 220.831C319.301 225.179 310.129 221.939 306.282 213.638C304.377 209.486 304.112 204.816 305.273 200.655Z" fill="#4D7B9E"/>
<path d="M323.043 184.69L338.056 175.68C345.423 171.353 354.595 174.593 358.442 182.894C360.365 187.024 360.612 191.695 359.451 195.876C358.289 200.038 355.72 203.71 352.064 205.883L339.471 213.4C337.047 211.125 333.964 207.26 330.92 202.002C327.494 196.067 324.246 189.152 323.043 184.69Z" fill="white"/>
<path d="M322.642 184.771L323.788 184.094C327.7 194.964 332.337 205.783 340.355 212.773L339.11 213.507C331.171 206.329 326.543 195.576 322.642 184.771Z" fill="black"/>
<path d="M66.6172 178.808V231.371" stroke="black" stroke-width="1.9918" stroke-miterlimit="10" stroke-linecap="round" stroke-linejoin="round"/>
<path d="M80.0166 189.333L51.9834 222.119" stroke="black" stroke-width="1.9918" stroke-miterlimit="10" stroke-linecap="round" stroke-linejoin="round"/>
<path d="M89.6545 205.089H43.5801" stroke="black" stroke-width="1.9918" stroke-miterlimit="10" stroke-linecap="round" stroke-linejoin="round"/>
<path d="M81.074 221.113L51.9834 189.535" stroke="black" stroke-width="1.9918" stroke-miterlimit="10" stroke-linecap="round" stroke-linejoin="round"/>
<path d="M322.234 322.253V374.817" stroke="black" stroke-width="1.9918" stroke-miterlimit="10" stroke-linecap="round" stroke-linejoin="round"/>
<path d="M335.634 332.779L307.602 365.565" stroke="black" stroke-width="1.9918" stroke-miterlimit="10" stroke-linecap="round" stroke-linejoin="round"/>
<path d="M345.272 348.535H299.197" stroke="black" stroke-width="1.9918" stroke-miterlimit="10" stroke-linecap="round" stroke-linejoin="round"/>
<path d="M336.691 364.559L307.602 332.98" stroke="black" stroke-width="1.9918" stroke-miterlimit="10" stroke-linecap="round" stroke-linejoin="round"/>
</g>
<defs>
<clipPath id="clip0_846_24330">
<rect width="355" height="405" fill="white" transform="translate(19 11)"/>
</clipPath>
</defs>
</svg>
